<svg width="198" height="41" viewBox="0 0 198 41" fill="none" xmlns="http://www.w3.org/2000/svg">
<path d="M5.89962 39.5122C5.44833 39.5122 5.08248 39.1463 5.08248 38.695V33.7166C5.08248 33.2653 5.44833 32.8995 5.89962 32.8995H14.8649C17.3424 32.8995 19.5102 32.3894 21.3683 31.3693C23.2264 30.3127 24.6655 28.8371 25.6856 26.9426C26.7422 25.0481 27.2705 22.8074 27.2705 20.2206C27.2705 17.7067 26.7422 15.5207 25.6856 13.6626C24.6291 11.768 23.1717 10.3107 21.3136 9.29055C19.4555 8.23398 17.3059 7.70569 14.8649 7.70569H5.73567C5.28438 7.70569 4.91853 7.33985 4.91853 6.88855V1.91015C4.91853 1.45886 5.28437 1.09301 5.73567 1.09301H14.9742C17.816 1.09301 20.4392 1.56664 22.8438 2.51391C25.2849 3.46119 27.398 4.80923 29.1833 6.55804C31.0049 8.27041 32.4076 10.2925 33.3913 12.6242C34.4115 14.956 34.9215 17.5063 34.9215 20.2753C34.9215 23.0442 34.4115 25.6128 33.3913 27.981C32.4076 30.3127 31.0232 32.353 29.2379 34.1018C27.4527 35.8142 25.3395 37.144 22.8985 38.0913C20.4939 39.0385 17.8889 39.5122 15.0835 39.5122H5.89962ZM0.817143 39.5122C0.365847 39.5122 0 39.1463 0 38.695V1.91015C0 1.45886 0.365848 1.09301 0.817144 1.09301H6.6153C7.0666 1.09301 7.43244 1.45886 7.43244 1.91015V38.695C7.43244 39.1463 7.06659 39.5122 6.6153 39.5122H0.817143Z" fill="white"/>
<path d="M40.8797 39.5122C40.4284 39.5122 40.0625 39.1463 40.0625 38.695V13.9332C40.0625 13.4819 40.4284 13.1161 40.8797 13.1161H46.4592C46.9105 13.1161 47.2764 13.4819 47.2764 13.9332V38.695C47.2764 39.1463 46.9105 39.5122 46.4592 39.5122H40.8797ZM43.6694 8.85335C42.5036 8.85335 41.5381 8.4708 40.773 7.70569C40.0079 6.90416 39.6253 5.92045 39.6253 4.75458C39.6253 3.62514 40.0079 2.65965 40.773 1.85811C41.5381 1.05657 42.5036 0.655805 43.6694 0.655805C44.8717 0.655805 45.8372 1.05657 46.5659 1.85811C47.331 2.65965 47.7136 3.62514 47.7136 4.75458C47.7136 5.92045 47.331 6.90416 46.5659 7.70569C45.8372 8.4708 44.8717 8.85335 43.6694 8.85335Z" fill="white"/>
<path d="M72.1969 39.5122C71.7456 39.5122 71.3797 39.1463 71.3797 38.695V24.374C71.3797 22.8074 70.8879 21.5322 69.9041 20.5485C68.9204 19.5648 67.6453 19.073 66.0786 19.073C65.0585 19.073 64.1476 19.2916 63.3461 19.7288C62.5446 20.166 61.907 20.7853 61.4333 21.5869C61.1893 22.0344 61.0133 22.5216 60.9055 23.0486C60.7832 23.6465 60.1329 24.0454 59.5893 23.7682L58.4364 23.1805C58.1627 23.041 57.9883 22.7594 57.999 22.4524C58.0643 20.5852 58.4986 18.9487 59.302 17.5428C60.2128 15.9761 61.4516 14.7556 63.0182 13.8812C64.6213 13.0068 66.4247 12.5696 68.4286 12.5696C70.3596 12.5696 72.0902 13.0614 73.6204 14.0451C75.1506 14.9924 76.3529 16.2494 77.2273 17.816C78.1017 19.3462 78.5389 21.0039 78.5389 22.7892V38.695C78.5389 39.1463 78.173 39.5122 77.7217 39.5122H72.1969ZM54.4355 39.5122C53.9842 39.5122 53.6184 39.1463 53.6184 38.695V13.9332C53.6184 13.4819 53.9842 13.1161 54.4355 13.1161H59.9604C60.4117 13.1161 60.7775 13.4819 60.7775 13.9332V38.695C60.7775 39.1463 60.4117 39.5122 59.9604 39.5122H54.4355Z" fill="white"/>
<path d="M96.93 40.0587C94.161 40.0587 91.7018 39.4757 89.5522 38.3099C87.4026 37.1076 85.6903 35.468 84.4151 33.3913C83.1763 31.3146 82.557 28.9464 82.557 26.2868C82.557 23.6636 83.1581 21.3318 84.3604 19.2916C85.5992 17.2148 87.2751 15.5753 89.3883 14.373C91.5014 13.1343 93.8514 12.5149 96.4381 12.5149C98.9885 12.5149 101.229 13.0979 103.16 14.2637C105.128 15.3932 106.658 16.9598 107.751 18.9637C108.88 20.9311 109.445 23.1717 109.445 25.6856C109.445 26.1593 109.408 26.6511 109.336 27.1612C109.312 27.4669 109.266 27.8029 109.197 28.1693C109.127 28.5412 108.795 28.8014 108.417 28.8023L87.6935 28.8533C87.2414 28.8545 86.8743 28.4883 86.8743 28.0362V24.3144C86.8743 23.864 87.2387 23.4986 87.6891 23.4973L103.515 23.4514C104.234 23.4493 104.546 24.3598 103.978 24.7996C103.496 25.1725 102.785 24.8473 102.693 24.2449C102.548 23.2968 102.303 22.4655 101.958 21.7508C101.484 20.6943 100.774 19.8927 99.8265 19.3462C98.9156 18.7633 97.7862 18.4718 96.4381 18.4718C95.0172 18.4718 93.7785 18.7997 92.7219 19.4555C91.6654 20.0749 90.8456 20.9675 90.2627 22.1334C89.7162 23.2628 89.4429 24.6109 89.4429 26.1775C89.4429 27.7806 89.7344 29.1833 90.3173 30.3856C90.9367 31.5514 91.8111 32.4623 92.9405 33.1181C94.07 33.7375 95.3816 34.0471 96.8754 34.0471C98.2234 34.0471 99.4439 33.8285 100.537 33.3913C101.365 33.0324 102.11 32.5479 102.771 31.9378C103.118 31.6179 103.661 31.5969 103.995 31.9305L107.053 34.9887C107.354 35.2902 107.375 35.775 107.079 36.0819C105.903 37.3015 104.506 38.2445 102.887 38.911C101.065 39.6761 99.0796 40.0587 96.93 40.0587Z" fill="white"/>
<path d="M128.519 40.0587C126.624 40.0587 124.912 39.6579 123.382 38.8564C121.851 38.0548 120.631 36.9618 119.72 35.5774C118.809 34.1929 118.317 32.6445 118.244 30.9321V21.5322C118.317 19.8198 118.809 18.2896 119.72 16.9416C120.667 15.5571 121.906 14.4823 123.436 13.7172C124.966 12.9521 126.661 12.5696 128.519 12.5696C130.96 12.5696 133.146 13.1707 135.077 14.373C137.008 15.5753 138.52 17.2148 139.613 19.2916C140.742 21.3683 141.307 23.7182 141.307 26.3415C141.307 28.9282 140.742 31.26 139.613 33.3367C138.52 35.4134 137.008 37.0529 135.077 38.2552C133.146 39.4575 130.96 40.0587 128.519 40.0587ZM114.69 39.5122C114.238 39.5122 113.872 39.1463 113.872 38.695V0.817143C113.872 0.365847 114.238 0 114.69 0H120.214C120.666 0 121.032 0.365848 121.032 0.817144V19.5427C121.032 19.5937 121.027 19.6447 121.017 19.6949L119.857 25.8113C119.839 25.9089 119.838 26.009 119.856 26.1068L120.964 32.3366C120.973 32.3839 120.977 32.4318 120.977 32.4798V38.695C120.977 39.1463 120.611 39.5122 120.16 39.5122H114.69ZM127.316 33.446C128.628 33.446 129.776 33.1545 130.759 32.5716C131.78 31.9522 132.563 31.1142 133.109 30.0577C133.692 28.9647 133.984 27.7077 133.984 26.2868C133.984 24.9023 133.692 23.6818 133.109 22.6252C132.563 21.5322 131.78 20.6943 130.759 20.1113C129.739 19.4919 128.573 19.1823 127.262 19.1823C125.95 19.1823 124.784 19.4919 123.764 20.1113C122.78 20.6943 121.997 21.5322 121.414 22.6252C120.868 23.6818 120.594 24.9023 120.594 26.2868C120.594 27.7077 120.868 28.9647 121.414 30.0577C121.997 31.1142 122.799 31.9522 123.819 32.5716C124.839 33.1545 126.005 33.446 127.316 33.446Z" fill="white"/>
<path d="M185.482 39.5122C185.031 39.5122 184.665 39.1463 184.665 38.695V2.94851C184.665 2.49721 185.031 2.13136 185.482 2.13136H191.007C191.459 2.13136 191.825 2.49721 191.825 2.94851V38.695C191.825 39.1463 191.459 39.5122 191.007 39.5122H185.482ZM179.307 19.4009C178.856 19.4009 178.49 19.035 178.49 18.5837V13.9332C178.49 13.4819 178.856 13.1161 179.307 13.1161H197.183C197.634 13.1161 198 13.4819 198 13.9332V18.5837C198 19.035 197.634 19.4009 197.183 19.4009H179.307Z" fill="white"/>
<path d="M162.207 39.9874C159.541 39.9874 157.122 39.3589 154.951 38.1019C152.78 36.8068 151.047 35.0737 149.752 32.9025C148.495 30.7313 147.866 29.3503 147.866 26.684C147.866 24.0176 148.495 21.6179 149.752 19.4848C151.047 17.3517 152.78 15.6567 154.951 14.3997C157.122 13.1046 159.541 12.457 162.207 12.457C164.912 12.457 167.35 13.0855 169.521 14.3425C171.692 15.5995 173.406 17.3136 174.663 19.4848C175.958 21.6179 176.606 24.0176 176.606 26.684C176.606 29.3503 175.958 30.7313 174.663 32.9025C173.406 35.0737 171.692 36.8068 169.521 38.1019C167.35 39.3589 164.912 39.9874 162.207 39.9874ZM162.207 34.9687C163.769 34.9687 165.14 34.6259 166.321 33.9403C167.54 33.2165 168.473 32.2262 169.121 30.9692C169.807 29.7122 170.149 28.2838 170.149 26.684C170.149 25.0842 169.807 23.6748 169.121 22.4559C168.435 21.237 167.502 20.2847 166.321 19.5991C165.14 18.8753 163.769 18.5135 162.207 18.5135C160.684 18.5135 159.313 18.8753 158.094 19.5991C156.913 20.2847 155.98 21.237 155.294 22.4559C154.646 23.6748 154.323 25.0842 154.323 26.684C154.323 28.2838 154.646 29.7122 155.294 30.9692C155.98 32.2262 156.913 33.2165 158.094 33.9403C159.313 34.6259 160.684 34.9687 162.207 34.9687Z" fill="white"/>
<path d="M160.383 8.76131C160.776 9.14874 161.271 9.34246 161.869 9.34246C162.487 9.34246 162.982 9.14874 163.356 8.76131C163.749 8.35543 163.945 7.8573 163.945 7.26693C163.945 6.69501 163.749 6.20611 163.356 5.80023C162.982 5.39435 162.487 5.19141 161.869 5.19141C161.271 5.19141 160.776 5.39435 160.383 5.80023C159.99 6.20611 159.794 6.69501 159.794 7.26693C159.794 7.8573 159.99 8.35543 160.383 8.76131Z" fill="white"/>
<circle cx="162.387" cy="26.9844" r="9.33986" fill="white"/>
<path d="M148.726 22.223C148.764 22.0878 148.8 21.9525 148.834 21.8155C149.008 21.127 150.17 17.8132 156.434 17.6539C160.16 17.5597 162.337 18.1848 163.696 19.0171C165.056 19.8494 165.967 21.4181 166.233 23.254C166.721 26.626 167.108 33.2434 162.639 33.2108C162.639 33.2108 156.02 32.1182 151.915 32.9266C150.916 33.1235 149.915 32.5943 149.325 31.5634C148.36 29.8799 147.444 26.8727 148.726 22.223Z" fill="#1F1E1F"/>
<ellipse cx="164.459" cy="23.8724" rx="1.55664" ry="2.07553" fill="white"/>
<ellipse cx="156.165" cy="23.8724" rx="1.55664" ry="2.07553" fill="white"/>
<path d="M158.337 28.0234C158.337 29.1692 157.649 30.099 156.802 30.099C155.954 30.099 155.267 29.1692 155.267 28.0234" fill="white"/>
<path d="M174.329 23.2085V30.2036C174.329 31.2181 175.556 31.7261 176.273 31.0088C176.359 30.9222 176.431 30.8223 176.486 30.7129L176.912 29.8615C177.898 27.8897 177.898 25.5688 176.912 23.597L176.404 22.5804C175.782 21.6482 174.329 22.0882 174.329 23.2085Z" fill="white" stroke="white" stroke-width="2.07443"/>
<path d="M149.029 24.2431V28.8187C149.029 29.4823 148.227 29.8146 147.758 29.3454C147.701 29.2888 147.654 29.2234 147.618 29.1518L147.34 28.595C146.695 27.3052 146.695 25.787 147.34 24.4972L147.672 23.8323C148.079 23.2225 149.029 23.5103 149.029 24.2431Z" fill="white" stroke="white" stroke-width="1.35692"/>
</svg>
