<svg width="50" height="50" viewBox="0 0 50 50" fill="none" xmlns="http://www.w3.org/2000/svg">
<circle cx="25" cy="25" r="25" fill="white"/>
<path d="M15 24C15 19.286 15 16.9289 16.4645 15.4645C17.9289 14 20.286 14 25 14C29.714 14 32.0711 14 33.5355 15.4645C35 16.9289 35 19.286 35 24" stroke="#171717"/>
<path d="M15 26C15 23.1997 15 21.7996 15.545 20.73C16.0243 19.7892 16.7892 19.0243 17.73 18.545C18.7996 18 20.1997 18 23 18H27C29.8003 18 31.2004 18 32.27 18.545C33.2108 19.0243 33.9757 19.7892 34.455 20.73C35 21.7996 35 23.1997 35 26C35 28.8003 35 30.2004 34.455 31.27C33.9757 32.2108 33.2108 32.9757 32.27 33.455C31.2004 34 29.8003 34 27 34H23C20.1997 34 18.7996 34 17.73 33.455C16.7892 32.9757 16.0243 32.2108 15.545 31.27C15 30.2004 15 28.8003 15 26Z" stroke="#171717"/>
<path d="M25 29L25 23M25 23L27.5 25.5M25 23L22.5 25.5" stroke="#171717" stroke-linecap="round" stroke-linejoin="round"/>
</svg>
