<svg width="166" height="166" viewBox="0 0 166 166" fill="none" xmlns="http://www.w3.org/2000/svg">
<circle cx="82.7079" cy="82.7079" r="82.7079" fill="#F7F7FC"/>
<mask id="mask0_1872_188" style="mask-type:alpha" maskUnits="userSpaceOnUse" x="0" y="0" width="166" height="166">
<circle cx="82.7079" cy="82.7079" r="82.7079" fill="#F7F7FC"/>
</mask>
<g mask="url(#mask0_1872_188)">
<path opacity="0.3" d="M101.81 107.494C115.491 105.823 118.914 113.349 118.914 113.349C118.914 113.349 121.646 123.538 122.937 127.18C124.044 130.303 124.319 132.989 124.366 133.691V134.025L124.377 148.121C124.377 149.135 124.077 150.149 123.432 150.933C121.507 153.249 121.564 155.981 121.564 155.981L120.192 303.94C124.064 332.894 141.204 344.949 149.895 349.271C153.03 350.827 155.001 354.021 155.001 357.513V448.766C155.001 452.661 153.07 456.368 149.549 458.034C127.573 468.436 91.801 467.204 82.3299 466.663C72.8589 467.204 37.0815 468.426 15.1117 458.034C11.5899 456.367 9.65771 452.661 9.65771 448.766V357.513C9.65771 354.021 11.6287 350.827 14.7638 349.271C23.4653 344.949 40.5929 332.904 44.4664 303.94L43.0942 155.981C43.0942 155.981 43.1524 153.249 41.2266 150.933C40.5812 150.149 40.2812 149.135 40.2812 148.121V134.025C40.2812 133.898 40.2812 133.783 40.2928 133.657C40.351 132.919 40.6265 130.268 41.7219 127.168C43.0127 123.526 45.7442 113.337 45.7442 113.337C45.7442 113.337 49.1676 105.811 62.8485 107.482H101.806V107.494H101.81Z" fill="url(#paint0_linear_1872_188)"/>
<ellipse opacity="0.3" cx="82.8055" cy="117.584" rx="20.6885" ry="6.64988" fill="url(#paint1_linear_1872_188)"/>
<path opacity="0.3" d="M90.1955 105.025C90.1955 102.576 88.2106 100.591 85.7622 100.591H79.1123C76.6639 100.591 74.6791 102.576 74.6791 105.025V115.369C74.6791 117.817 76.6639 119.802 79.1123 119.802H85.7622C88.2106 119.802 90.1955 117.817 90.1955 115.369V105.025Z" fill="url(#paint2_linear_1872_188)"/>
<path opacity="0.3" d="M82.4505 107.526C104.361 107.526 122.123 89.7634 122.123 67.8531C122.123 45.9428 104.361 28.1815 82.4505 28.1815C60.5402 28.1815 42.7776 45.9441 42.7776 67.8544C42.7776 89.7647 60.5389 107.527 82.4505 107.527V107.526Z" fill="url(#paint3_linear_1872_188)"/>
<path opacity="0.3" d="M110.06 48.7773H55.0064C53.034 48.7773 51.4346 50.3818 51.4346 52.3605V83.5014C51.4346 85.48 53.034 87.0845 55.0064 87.0845H110.06C112.033 87.0845 113.632 85.48 113.632 83.5014V52.3605C113.632 50.3818 112.033 48.7773 110.06 48.7773Z" fill="url(#paint4_linear_1872_188)"/>
<rect x="64.9407" y="58.2015" width="12.8657" height="12.253" rx="2.88333" fill="#F7F7FC"/>
<rect x="88.222" y="58.2015" width="12.8657" height="12.253" rx="2.88333" fill="#F7F7FC"/>
<path d="M76.5813 78.9329C78.403 77.3915 83.9947 73.1129 90.0596 78.9329" stroke="#F7F7FC" stroke-width="2.52237" stroke-linecap="round"/>
</g>
<defs>
<linearGradient id="paint0_linear_1872_188" x1="82.3293" y1="107.24" x2="82.3293" y2="467.01" gradientUnits="userSpaceOnUse">
<stop stop-color="#2D2D2D"/>
<stop offset="0.296672" stop-color="#2D2D2D" stop-opacity="0"/>
</linearGradient>
<linearGradient id="paint1_linear_1872_188" x1="63.3583" y1="117.584" x2="160.18" y2="117.584" gradientUnits="userSpaceOnUse">
<stop stop-color="#2A2A2A"/>
<stop offset="1" stop-color="#0C0C0C"/>
</linearGradient>
<linearGradient id="paint2_linear_1872_188" x1="82.4373" y1="100.591" x2="82.4373" y2="119.802" gradientUnits="userSpaceOnUse">
<stop stop-color="#0C0C0C"/>
<stop offset="1" stop-opacity="0.18"/>
</linearGradient>
<linearGradient id="paint3_linear_1872_188" x1="82.4505" y1="22.64" x2="82.4505" y2="107.527" gradientUnits="userSpaceOnUse">
<stop stop-color="#2D2D2D" stop-opacity="0.17"/>
<stop offset="1" stop-color="#2D2D2D"/>
</linearGradient>
<linearGradient id="paint4_linear_1872_188" x1="82.5334" y1="48.7773" x2="82.5334" y2="87.0845" gradientUnits="userSpaceOnUse">
<stop stop-color="#0C0C0C"/>
<stop offset="1" stop-color="#0C0C0C" stop-opacity="0.19"/>
</linearGradient>
</defs>
</svg>
