<svg width="44" height="44" viewBox="0 0 44 44" fill="none" xmlns="http://www.w3.org/2000/svg">
<circle cx="22" cy="22" r="22" fill="#F7F7FC"/>
<path d="M13 22.167C13 23.1313 13.1654 24.0569 13.4694 24.917M23.0959 19.417H30.8764M21.25 24.917H13.4694M30.8764 19.417C29.7439 16.2127 26.688 13.917 23.0959 13.917C24.5634 13.917 25.7624 17.3655 25.8417 21.7087M30.8764 19.417C31.1319 20.1399 31.2896 20.9091 31.3333 21.7087M13.4694 24.917C14.602 28.1213 17.6579 30.417 21.25 30.417C19.8345 30.417 18.6688 27.2086 18.5168 23.0837" stroke="#141B34" stroke-linecap="round" stroke-linejoin="round"/>
<path d="M13 16.0226C13 15.0157 13 14.5123 13.1718 14.1219C13.3539 13.7079 13.6679 13.3751 14.0585 13.1821C14.4269 13 14.9019 13 15.8519 13H16.6667C18.3952 13 19.2594 13 19.7964 13.5691C20.3333 14.1382 20.3333 15.0542 20.3333 16.8862V18.957C20.3333 19.7561 20.3333 20.1556 20.0913 20.2929C19.8492 20.4302 19.5355 20.2086 18.9082 19.7653L18.8126 19.6978C18.3541 19.3738 18.1249 19.2119 17.8651 19.1285C17.6053 19.0451 17.3297 19.0451 16.7787 19.0451H15.8519C14.9019 19.0451 14.4269 19.0451 14.0585 18.8631C13.6679 18.67 13.3539 18.3372 13.1718 17.9232C13 17.5328 13 17.0294 13 16.0226Z" stroke="#141B34"/>
<path d="M31.3333 27.0226C31.3333 26.0157 31.3333 25.5123 31.1616 25.1219C30.9794 24.7079 30.6654 24.3751 30.2748 24.1821C29.9064 24 29.4315 24 28.4815 24H27.6667C25.9382 24 25.0739 24 24.537 24.5691C24 25.1382 24 26.0542 24 27.8862V29.957C24 30.7561 24 31.1556 24.2421 31.2929C24.4841 31.4302 24.7978 31.2086 25.4251 30.7653L25.5207 30.6978C25.9792 30.3738 26.2085 30.2119 26.4683 30.1285C26.7281 30.0451 27.0036 30.0451 27.5546 30.0451H28.4815C29.4315 30.0451 29.9064 30.0451 30.2748 29.8631C30.6654 29.67 30.9794 29.3372 31.1616 28.9232C31.3333 28.5328 31.3333 28.0294 31.3333 27.0226Z" stroke="#141B34"/>
</svg>
