<svg width="30" height="30" viewBox="0 0 30 30" fill="none" xmlns="http://www.w3.org/2000/svg">
<path d="M22.5 19.5831V23.7498C22.5 25.8123 20.8125 27.4998 18.75 27.4998H11.25C9.1875 27.4998 7.5 25.8123 7.5 23.7498V18.3081L12.3625 18.3331C13.275 18.3331 14.175 18.5456 15 18.9581C15.825 19.3706 16.725 19.5831 17.65 19.5831H22.5Z" stroke="#7E7E7E" stroke-width="1.25" stroke-linecap="round" stroke-linejoin="round"/>
<path d="M22.5 13.537V19.5828H17.65C16.725 19.5828 15.825 19.3703 15 18.9578C14.175 18.5453 13.275 18.3328 12.3625 18.3328L7.5 18.3078V13.537C7.5 12.962 7.82503 12.1745 8.23753 11.762L10.8875 9.112C11.1125 8.887 11.25 8.56201 11.25 8.23701V6.24951H18.75V8.23701C18.75 8.56201 18.8875 8.887 19.1125 9.112L21.7625 11.762C22.175 12.1745 22.5 12.962 22.5 13.537Z" stroke="#7E7E7E" stroke-width="1.25" stroke-linecap="round" stroke-linejoin="round"/>
<path d="M18.125 6.24951H11.875C10.8375 6.24951 10 5.39951 10 4.37451C10 3.34951 10.8375 2.49951 11.875 2.49951H18.125C19.1625 2.49951 20 3.34951 20 4.37451C20 5.39951 19.1625 6.24951 18.125 6.24951Z" stroke="#7E7E7E" stroke-width="1.25" stroke-linecap="round" stroke-linejoin="round"/>
</svg>
