<svg width="44" height="44" viewBox="0 0 44 44" fill="none" xmlns="http://www.w3.org/2000/svg">
<g id="Group 1171275837">
<g id="Group 1171275298">
<circle id="Ellipse 2172" cx="22" cy="22" r="22" fill="white"/>
</g>
<g id="Group 1171275836">
<g id="Subtract">
<mask id="path-2-inside-1_89_1242" fill="#F7F7FE">
<path fill-rule="evenodd" clip-rule="evenodd" d="M11.3689 17.2713C11.3689 15.4646 12.8335 14 14.6402 14H29.3608C31.1675 14 32.6321 15.4646 32.6321 17.2713V18.2982C31.2026 18.8034 30.1785 20.1666 30.1785 21.769C30.1785 23.3715 31.2026 24.7347 32.6321 25.2398V26.2672C32.6321 28.0739 31.1675 29.5385 29.3608 29.5385H14.6401C12.8335 29.5385 11.3689 28.0739 11.3689 26.2672V25.2399C12.7985 24.7348 13.8227 23.3715 13.8227 21.769C13.8227 20.1665 12.7985 18.8032 11.3689 18.2981V17.2713Z"/>
</mask>
<path d="M32.6321 18.2982L32.9046 19.0693L33.4499 18.8766V18.2982H32.6321ZM32.6321 25.2398H33.4499V24.6615L32.9046 24.4688L32.6321 25.2398ZM11.3689 25.2399L11.0965 24.4688L10.5511 24.6615V25.2399H11.3689ZM11.3689 18.2981H10.5511V18.8765L11.0965 19.0692L11.3689 18.2981ZM14.6402 13.1822C12.3818 13.1822 10.5511 15.0129 10.5511 17.2713H12.1867C12.1867 15.9163 13.2852 14.8178 14.6402 14.8178V13.1822ZM29.3608 13.1822H14.6402V14.8178H29.3608V13.1822ZM33.4499 17.2713C33.4499 15.0129 31.6191 13.1822 29.3608 13.1822V14.8178C30.7158 14.8178 31.8142 15.9163 31.8142 17.2713H33.4499ZM33.4499 18.2982V17.2713H31.8142V18.2982H33.4499ZM30.9963 21.769C30.9963 20.524 31.7917 19.4626 32.9046 19.0693L32.3596 17.5271C30.6136 18.1442 29.3607 19.8092 29.3607 21.769H30.9963ZM32.9046 24.4688C31.7917 24.0755 30.9963 23.0141 30.9963 21.769H29.3607C29.3607 23.7288 30.6136 25.3939 32.3596 26.0109L32.9046 24.4688ZM33.4499 26.2672V25.2398H31.8142V26.2672H33.4499ZM29.3608 30.3563C31.6191 30.3563 33.4499 28.5255 33.4499 26.2672H31.8142C31.8142 27.6222 30.7158 28.7206 29.3608 28.7206V30.3563ZM14.6401 30.3563H29.3608V28.7206H14.6401V30.3563ZM10.5511 26.2672C10.5511 28.5255 12.3818 30.3563 14.6401 30.3563V28.7206C13.2852 28.7206 12.1867 27.6222 12.1867 26.2672H10.5511ZM10.5511 25.2399V26.2672H12.1867V25.2399H10.5511ZM13.0049 21.769C13.0049 23.0141 12.2094 24.0756 11.0965 24.4688L11.6413 26.011C13.3875 25.3941 14.6405 23.7289 14.6405 21.769H13.0049ZM11.0965 19.0692C12.2094 19.4625 13.0049 20.5239 13.0049 21.769H14.6405C14.6405 19.8091 13.3875 18.144 11.6413 17.527L11.0965 19.0692ZM10.5511 17.2713V18.2981H12.1867V17.2713H10.5511Z" fill="black" mask="url(#path-2-inside-1_89_1242)"/>
</g>
<path id="Vector 7307" d="M18.729 20.543L18.729 22.9964" stroke="black" stroke-width="0.817814" stroke-linecap="round"/>
<path id="Vector 7309" d="M18.729 16.4531L18.729 18.9066" stroke="black" stroke-width="0.817814" stroke-linecap="round"/>
<path id="Vector 7308" d="M18.729 24.6318L18.729 27.0853" stroke="black" stroke-width="0.817814" stroke-linecap="round"/>
</g>
</g>
</svg>
