<svg width="383" height="560" viewBox="0 0 383 560" fill="none" xmlns="http://www.w3.org/2000/svg">
<g clip-path="url(#clip0_3459_22239)">
<path d="M294.085 456.649H235.522V374.675H294.085V456.649Z" fill="white"/>
<path d="M60.5971 215.464C68.3124 214.017 71.588 218.79 71.3386 225.607C71.0892 232.424 76.4267 242.235 69.6758 243.548C62.925 244.862 52.2666 217.01 60.5971 215.464Z" fill="#263238"/>
<path d="M89.0144 564.015C65.9018 498.003 48.3928 412.137 48.3928 412.137L111.695 411.106C111.695 411.106 121.439 519.603 126.859 565.678C132.529 613.583 151.917 719.851 151.917 719.851L124.132 727.699C124.132 727.699 92.9219 623.626 89.0144 564.015Z" fill="#263238"/>
<path opacity="0.2" d="M76.9759 459.826C76.9759 459.826 78.8216 510.524 81.083 539.855C75.1303 520.816 69.7262 501.245 65.1037 483.321L76.9759 459.826Z" fill="black"/>
<path d="M26.211 560.058C28.1398 491.767 20.4744 452.476 30.5342 412.47L88.1162 411.605C88.1162 411.605 72.7023 519.952 65.1366 565.079C57.571 610.207 46.8461 724.157 46.8461 724.157L18.5789 724.506C18.5789 724.506 15.3032 612.901 26.211 560.058Z" fill="#263238"/>
<path d="M26.1948 294.163C41.8086 290.459 57.7597 288.359 73.8001 287.895C91.1595 287.545 104.744 296.125 108.053 313.185C114.568 347.336 116.375 382.218 113.424 416.859C113.291 423.028 35.0741 422.496 28.6225 416.859C25.8124 394.828 28.9051 371.216 14.4556 321.898C11.4958 311.755 16.0186 296.591 26.1948 294.163Z" fill="#1F1F1F"/>
<path d="M73.0184 311.273C73.351 312.703 74.2323 313.717 74.9972 313.534C75.762 313.351 76.0946 312.054 75.762 310.624C75.4295 309.195 74.5482 308.18 73.7833 308.363C73.0184 308.546 72.6859 309.909 73.0184 311.273Z" fill="white"/>
<path d="M-76.1491 332.972C-75.6017 331.552 -74.5151 330.405 -73.126 329.782C-71.737 329.159 -70.158 329.111 -68.7331 329.647H-68.5336C-64.6095 331.127 -60.4691 332.706 -56.4452 334.12C-52.4213 335.533 -48.3475 336.946 -44.307 338.177C-40.2664 339.407 -36.2425 340.488 -32.2851 341.502C-30.0403 342.001 -27.8122 342.417 -25.634 342.733C-20.0914 337.6 -14.5488 332.357 -9.00618 327.003L10.2321 307.947L10.3485 307.831C12.5043 305.789 15.3654 304.657 18.3351 304.673C21.3048 304.689 24.1537 305.85 26.2876 307.916C28.4216 309.981 29.6757 312.791 29.7885 315.758C29.9014 318.726 28.8641 321.622 26.8932 323.844C23.5676 327.452 20.242 330.728 16.9165 334.036C13.5909 337.345 10.0825 340.538 6.52414 343.664C2.9658 346.79 -0.592525 349.866 -4.26726 352.859C-7.942 355.852 -11.7165 358.779 -15.5243 361.639L-16.2559 362.204C-17.2765 362.956 -18.4403 363.492 -19.6756 363.778C-20.9109 364.064 -22.1917 364.094 -23.4391 363.867C-28.3368 362.949 -33.1482 361.62 -37.8221 359.893C-42.256 358.24 -46.5966 356.347 -50.825 354.223C-54.9819 352.116 -59.0114 349.844 -62.9134 347.405C-66.8537 344.981 -70.6665 342.356 -74.3367 339.54C-75.2969 338.78 -75.9901 337.733 -76.3159 336.552C-76.6417 335.372 -76.5833 334.118 -76.1491 332.972Z" fill="#E19381"/>
<path d="M21.2563 296.109C9.60411 305.284 -1.4224 315.228 -11.7498 325.872C-4.74854 335.795 4.70373 343.735 15.686 348.919C15.686 348.919 22.5366 346.158 33.0121 330.628C44.7347 313.152 35.5395 285.267 21.2563 296.109Z" fill="#1F1F1F"/>
<path d="M70.3247 302.377C67.9922 305.181 66.7051 308.707 66.6832 312.354C51.236 309.71 38.416 302.045 36.7532 291.802C39.3638 289.341 41.0931 289.773 41.0931 289.773C41.0931 289.773 51.7182 298.935 70.3247 302.377Z" fill="white"/>
<path d="M70.3246 302.377C74.4863 303.096 78.2831 305.2 81.0995 308.347C87.0356 302.577 79.3036 290.206 74.5647 287.878C72.4916 287.281 70.3159 287.128 68.1796 287.429C68.1796 287.429 74.7476 290.937 70.3246 302.377Z" fill="white"/>
<path d="M38.3994 253.808C41.3758 263.252 45.1337 279.78 41.3425 289.275C40.8831 290.418 40.8219 291.683 41.1688 292.865C41.5157 294.048 42.2504 295.079 43.2547 295.793C50.2587 301.113 58.981 303.659 67.7474 302.943C77.6243 302.128 78.2396 297.007 76.2609 292.667C75.7371 291.573 74.9757 290.609 74.0321 289.847C73.0886 289.085 71.9867 288.542 70.8069 288.26C60.8303 285.816 60.3813 277.402 61.4787 269.288L38.3994 253.808Z" fill="#E19381"/>
<path opacity="0.2" d="M47.8107 260.126L61.4622 269.288C61.163 271.341 61.0351 273.416 61.0797 275.49C56.3075 275.374 49.2574 270.967 48.2098 266.112C47.712 264.158 47.5767 262.129 47.8107 260.126Z" fill="black"/>
<path d="M29.7027 239.774C34.4416 254.19 36.4868 262.853 45.815 268.573C59.8488 277.187 76.0775 266.146 75.745 250.715C75.4124 236.814 67.7304 215.597 51.934 213.22C48.4848 212.653 44.9475 212.995 41.6706 214.212C38.3938 215.428 35.4905 217.478 33.2466 220.158C31.0028 222.838 29.496 226.056 28.8745 229.496C28.2531 232.936 28.5385 236.478 29.7027 239.774Z" fill="#E19381"/>
<path d="M70.3248 242.634C70.9871 242.63 71.6443 242.518 72.2702 242.301C73.3579 241.858 74.3188 241.152 75.0674 240.247C75.8159 239.341 76.3288 238.265 76.5602 237.113C77.1728 234.303 76.9884 231.377 76.0278 228.665C75.0671 225.954 73.3684 223.564 71.1229 221.766C70.2464 220.967 69.1694 220.421 68.0068 220.186C66.8442 219.951 65.6396 220.036 64.5215 220.432C63.4034 220.828 62.4139 221.52 61.6584 222.434C60.9029 223.349 60.4097 224.451 60.2317 225.624C59.5617 228.435 59.747 231.382 60.7638 234.087C62.5097 239.192 66.5004 242.634 70.3248 242.634ZM66.5004 220.918C68.0044 220.964 69.4546 221.488 70.6407 222.414C72.7648 224.111 74.3718 226.368 75.2798 228.931C76.1878 231.493 76.3606 234.258 75.7787 236.914C75.5819 237.937 75.1339 238.895 74.475 239.702C73.8162 240.509 72.9671 241.139 72.0042 241.536C68.2131 242.883 63.5074 239.425 61.5121 233.804C60.5586 231.258 60.3792 228.487 60.9966 225.84C61.1995 224.815 61.6514 223.856 62.3126 223.047C62.9737 222.237 63.8238 221.604 64.7877 221.201C65.3167 221.015 65.8732 220.919 66.4339 220.918H66.5004Z" fill="#263238"/>
<path d="M53.3145 248.636C53.9776 248.642 54.6364 248.529 55.2599 248.304C59.4668 246.807 61.1628 240.688 59.0178 234.669C58.1103 231.93 56.4015 229.526 54.1126 227.768C53.2243 227.002 52.149 226.484 50.9959 226.267C49.8427 226.051 48.6528 226.143 47.5468 226.534C46.4408 226.926 45.4581 227.604 44.6985 228.498C43.9388 229.392 43.4293 230.471 43.2215 231.626C42.5514 234.437 42.7367 237.384 43.7535 240.09C45.5659 245.211 49.5732 248.636 53.3145 248.636ZM49.4901 226.92C50.9973 226.977 52.4498 227.5 53.6471 228.417C55.7998 230.083 57.4088 232.352 58.2696 234.935C60.2483 240.539 58.785 246.209 54.944 247.555C51.103 248.902 46.4472 245.427 44.4519 239.824C43.4957 237.272 43.322 234.493 43.9531 231.842C44.153 230.818 44.6019 229.86 45.2602 229.051C45.9185 228.242 46.7659 227.607 47.7276 227.203C48.2955 227.012 48.891 226.917 49.4901 226.92Z" fill="#263238"/>
<path d="M58.6856 235.201C58.7986 235.196 58.9054 235.149 58.9849 235.068C59.2121 234.767 59.5211 234.538 59.8749 234.409C60.2288 234.279 60.6125 234.254 60.9803 234.336C61.0816 234.363 61.1894 234.351 61.2819 234.301C61.3744 234.252 61.4448 234.169 61.4791 234.07C61.5115 233.969 61.5037 233.859 61.4573 233.763C61.4109 233.667 61.3294 233.593 61.2297 233.555C60.709 233.431 60.1638 233.457 59.6575 233.631C59.1512 233.805 58.7046 234.118 58.3697 234.536C58.2984 234.613 58.2588 234.714 58.2588 234.819C58.2588 234.924 58.2984 235.024 58.3697 235.101C58.4115 235.141 58.4616 235.17 58.5163 235.187C58.571 235.204 58.6288 235.209 58.6856 235.201Z" fill="#263238"/>
<path d="M32.5632 247.938C32.6391 247.961 32.7201 247.961 32.796 247.938C41.2429 241.836 44.4354 241.121 44.4354 241.121C44.5412 241.101 44.6349 241.04 44.6957 240.951C44.7565 240.862 44.7795 240.752 44.7596 240.647C44.7398 240.541 44.6787 240.447 44.5899 240.386C44.501 240.326 44.3916 240.303 44.2858 240.322C44.1527 240.322 40.9602 241.021 32.2971 247.289C32.211 247.353 32.1526 247.447 32.134 247.552C32.1154 247.657 32.1381 247.766 32.1974 247.855C32.2482 247.895 32.3074 247.924 32.3708 247.938C32.4341 247.952 32.4999 247.952 32.5632 247.938Z" fill="#263238"/>
<path d="M39.3307 251.995C44.9841 246.724 39.5302 240.838 36.0051 238.693C32.1308 236.299 37.9672 233.522 33.2117 227.702C52.4999 228.168 48.3762 219.238 58.5524 220.286C64.1061 220.851 69.6597 215.946 68.9614 208.115C67.6478 193.316 46.4806 189.974 43.1218 195.527C51.0865 196.941 49.4071 201.829 45.9153 202.178C36.8365 202.927 38.5825 207.549 33.7604 211.889C26.9098 218.041 18.4795 212.72 19.5436 225.574C6.07515 228.899 13.541 243.864 22.0877 247.855C27.5934 250.098 33.4069 251.493 39.3307 251.995Z" fill="#263238"/>
<path d="M24.1824 225.324C22.8287 225.341 21.487 225.069 20.2473 224.525C19.0076 223.981 17.8986 223.178 16.9947 222.17C16.0908 221.162 15.4129 219.973 15.0064 218.681C14.5999 217.39 14.4743 216.027 14.6381 214.683C9.58321 224.16 15.7188 227.137 24.1824 225.324Z" fill="#263238"/>
<path d="M28.2229 255.354C30.76 257.96 34.1715 259.535 37.8006 259.777C42.3399 259.943 42.8886 255.354 40.1783 251.463C37.734 247.905 32.4131 243.532 28.5389 245.244C24.6646 246.957 24.9306 252.045 28.2229 255.354Z" fill="#E19381"/>
<path d="M28.6389 257.166C30.8338 259.345 34.0097 259.744 35.7057 258.031C37.4017 256.318 36.9861 253.176 34.7746 250.981C32.5631 248.786 29.4038 248.387 27.7078 250.099C26.0117 251.812 26.4274 254.971 28.6389 257.166Z" fill="#263238"/>
<path d="M62.5264 262.421C62.9704 262.095 63.3142 261.652 63.5187 261.14C63.7232 260.629 63.7802 260.071 63.6833 259.529C63.5864 258.987 63.3395 258.483 62.9705 258.075C62.6015 257.666 62.1254 257.369 61.5961 257.218C61.0668 257.066 60.5056 257.066 59.9763 257.218C59.4471 257.369 58.9709 257.666 58.6019 258.075C58.2329 258.483 57.9859 258.987 57.889 259.529C57.7921 260.071 57.8491 260.629 58.0536 261.14C58.4836 261.896 59.1927 262.453 60.0288 262.693C60.8649 262.932 61.7615 262.834 62.5264 262.421Z" fill="#263238"/>
<path d="M52.3503 261.473C55.2121 261.497 58.0675 261.202 60.8637 260.592C60.9729 260.567 61.0761 260.521 61.1673 260.456C61.2586 260.391 61.3362 260.308 61.3956 260.213C61.4551 260.118 61.4952 260.013 61.5138 259.902C61.5324 259.792 61.529 259.679 61.5039 259.57C61.4788 259.46 61.4325 259.357 61.3675 259.266C61.3025 259.175 61.2201 259.097 61.1252 259.038C61.0302 258.978 60.9245 258.938 60.814 258.919C60.7035 258.901 60.5905 258.904 60.4813 258.929C52.3171 260.875 39.1146 259.578 34.3424 255.005C34.2652 254.927 34.1732 254.865 34.0719 254.823C33.9706 254.781 33.8619 254.759 33.7522 254.759C33.6424 254.759 33.5338 254.781 33.4324 254.823C33.3311 254.865 33.2392 254.927 33.1619 255.005C33.0845 255.081 33.023 255.172 32.981 255.272C32.939 255.371 32.9173 255.479 32.9173 255.587C32.9173 255.696 32.939 255.803 32.981 255.903C33.023 256.003 33.0845 256.093 33.1619 256.169C36.8366 259.727 44.9011 261.473 52.3503 261.473Z" fill="#263238"/>
<path d="M52.6994 238.111C53.0985 239.275 54.0296 240.023 54.7945 239.774C55.5594 239.524 55.842 238.394 55.443 237.23C55.0439 236.066 54.0962 235.318 53.3479 235.567C52.5997 235.816 52.3003 236.864 52.6994 238.111Z" fill="#263238"/>
<path d="M66.9987 233.123C67.3978 234.287 68.329 235.035 69.0938 234.786C69.8587 234.536 70.1414 233.405 69.7423 232.242C69.3432 231.078 68.3955 230.329 67.6472 230.579C66.899 230.828 66.5331 231.959 66.9987 233.123Z" fill="#263238"/>
<path d="M61.7612 236.997C65.3527 238.862 68.8337 240.933 72.1868 243.199C71.3554 246.009 66.9823 247.007 66.9823 247.007L61.7612 236.997Z" fill="#D1725C"/>
<path d="M65.3363 252.195C64.0226 252.618 62.637 252.772 61.2626 252.646C59.8882 252.52 58.5534 252.118 57.3384 251.463C57.2547 251.415 57.1937 251.335 57.1688 251.241C57.1439 251.148 57.157 251.048 57.2053 250.965C57.2567 250.884 57.3377 250.826 57.431 250.804C57.5242 250.783 57.6223 250.798 57.7042 250.848C59.0556 251.556 60.5546 251.935 62.08 251.955C63.6053 251.976 65.1139 251.636 66.4836 250.965C66.5698 250.924 66.6685 250.919 66.7585 250.95C66.8485 250.981 66.9229 251.046 66.9658 251.131C66.9888 251.172 67.003 251.218 67.0079 251.264C67.0128 251.311 67.0081 251.359 66.9941 251.404C66.9801 251.449 66.9571 251.491 66.9266 251.527C66.896 251.563 66.8584 251.592 66.8162 251.613C66.3353 251.837 65.8411 252.032 65.3363 252.195Z" fill="#263238"/>
<path d="M45.716 236.033C45.5964 236.066 45.4699 236.066 45.3502 236.033C45.2588 236.004 45.1739 235.958 45.1007 235.896C45.0275 235.835 44.9674 235.759 44.924 235.674C44.8806 235.588 44.8547 235.495 44.848 235.4C44.8412 235.304 44.8537 235.209 44.8847 235.118C45.2133 234.035 45.8017 233.05 46.5988 232.247C47.3958 231.444 48.3772 230.849 49.4573 230.512C49.6468 230.466 49.8466 230.496 50.0143 230.596C50.182 230.695 50.3043 230.856 50.3551 231.044C50.4006 231.227 50.3719 231.421 50.2754 231.583C50.1788 231.745 50.0222 231.862 49.8397 231.909C48.9868 232.187 48.2142 232.668 47.5886 233.312C46.9629 233.955 46.5029 234.74 46.2481 235.6C46.2027 235.711 46.1302 235.809 46.0372 235.884C45.9443 235.96 45.8338 236.011 45.716 236.033Z" fill="#263238"/>
<path d="M69.6928 226.671C69.5881 226.728 69.471 226.758 69.3519 226.758C69.2329 226.758 69.1157 226.728 69.011 226.671C68.2271 226.217 67.3461 225.955 66.441 225.909C65.5359 225.863 64.6328 226.033 63.8065 226.405C63.6364 226.494 63.4383 226.512 63.2548 226.456C63.0713 226.4 62.9171 226.275 62.8255 226.106C62.776 226.026 62.7436 225.937 62.7303 225.844C62.7169 225.751 62.7229 225.656 62.7479 225.566C62.7729 225.475 62.8163 225.391 62.8754 225.318C62.9346 225.245 63.0082 225.185 63.0916 225.142C64.1379 224.64 65.2909 224.403 66.4502 224.449C67.6094 224.495 68.7397 224.824 69.7427 225.408C69.8575 225.468 69.9536 225.559 70.0206 225.671C70.0876 225.782 70.123 225.91 70.123 226.039C70.123 226.169 70.0876 226.297 70.0206 226.408C69.9536 226.52 69.8575 226.611 69.7427 226.671H69.6928Z" fill="#263238"/>
<path d="M99.0394 307.309C99.6614 305.967 100.543 304.76 101.633 303.759C102.723 302.759 104 301.983 105.391 301.478C106.782 300.972 108.259 300.747 109.737 300.815C111.215 300.882 112.666 301.242 114.004 301.872L114.52 302.105L117.047 303.286L119.791 304.533C121.653 305.331 123.532 306.195 125.428 306.91C129.202 308.573 133.043 309.887 136.901 311.234C140.758 312.58 144.666 313.761 148.54 314.809C151.966 315.74 155.408 316.471 158.866 317.136C161.859 316.372 165.018 315.357 168.178 314.21C172.152 312.763 176.192 311.084 180.216 309.321C184.24 307.559 188.297 305.697 192.338 303.801L204.459 298.031H204.576C205.794 297.46 207.176 297.345 208.472 297.706C209.767 298.067 210.89 298.881 211.637 300C212.383 301.119 212.704 302.469 212.54 303.804C212.377 305.139 211.739 306.371 210.745 307.276C207.186 310.485 203.562 313.345 199.82 316.189C196.079 319.032 192.221 321.692 188.181 324.253C184.159 326.867 180.008 329.276 175.743 331.47C171.229 333.831 166.523 335.805 161.676 337.372C160.695 337.663 159.67 337.77 158.65 337.688H157.952C153.215 337.349 148.501 336.739 143.835 335.859C141.49 335.46 139.229 334.912 136.917 334.413C134.606 333.914 132.378 333.265 130.133 332.584C125.627 331.303 121.221 329.774 116.831 328.061C114.669 327.196 112.491 326.398 110.363 325.317C109.299 324.818 108.218 324.336 107.154 323.804C106.09 323.272 105.092 322.757 103.828 322.042C101.293 320.669 99.382 318.374 98.4907 315.632C97.5995 312.89 97.7959 309.911 99.0394 307.309Z" fill="#E19381"/>
<path d="M100.17 293.176C113.835 297.943 127.167 303.614 140.077 310.153C136.758 321.513 130.561 331.823 122.086 340.083C122.086 340.083 114.886 339.717 100.27 328.677C83.9083 316.455 83.5425 287.756 100.17 293.176Z" fill="#1F1F1F"/>
<path d="M207.519 308.79L222.368 307.36L216.199 290.499C216.199 290.499 202.897 293.459 203.08 300.875L207.519 308.79Z" fill="#E19381"/>
<path d="M232.61 295.321L229.468 289.817C228.866 288.75 227.893 287.942 226.734 287.547C225.575 287.151 224.311 287.196 223.182 287.672L216.199 290.499L222.368 307.359L230.549 302.587C231.78 301.891 232.687 300.738 233.073 299.378C233.459 298.017 233.293 296.56 232.61 295.321Z" fill="#E19381"/>
<path d="M-130.964 456.3H379.095C380.193 456.3 381.246 455.866 382.022 455.093C382.799 454.32 383.235 453.271 383.235 452.178C383.237 451.635 383.132 451.097 382.925 450.595C382.718 450.093 382.413 449.637 382.028 449.253C381.643 448.868 381.186 448.563 380.683 448.355C380.179 448.147 379.64 448.04 379.095 448.04H-130.964C-131.509 448.04 -132.049 448.147 -132.552 448.355C-133.056 448.563 -133.513 448.868 -133.897 449.253C-134.282 449.637 -134.587 450.093 -134.794 450.595C-135.001 451.097 -135.107 451.635 -135.105 452.178C-135.105 453.271 -134.668 454.32 -133.892 455.093C-133.115 455.866 -132.062 456.3 -130.964 456.3Z" fill="#6C6C6C"/>
<path opacity="0.3" d="M-130.705 456.766H16.168C17.3073 456.766 18.4002 456.315 19.2074 455.511C20.0145 454.706 20.4702 453.615 20.4746 452.476C20.4746 451.334 20.0209 450.238 19.2133 449.431C18.4056 448.623 17.3102 448.169 16.168 448.169H-130.705C-131.27 448.169 -131.829 448.281 -132.351 448.498C-132.872 448.714 -133.346 449.032 -133.744 449.432C-134.143 449.832 -134.459 450.307 -134.673 450.829C-134.888 451.352 -134.997 451.911 -134.995 452.476C-134.995 453.614 -134.543 454.705 -133.738 455.509C-132.934 456.314 -131.843 456.766 -130.705 456.766Z" fill="black"/>
<path d="M290.306 456.3H306.827V586.402H290.306V456.3Z" fill="#DEDEDE"/>
<path d="M286.176 554.321H310.402V684.018H286.176V554.321Z" fill="#DEDEDE"/>
<path d="M123.084 442.998H322.252C322.937 443.002 323.592 443.278 324.075 443.764C324.558 444.25 324.829 444.907 324.829 445.592C324.825 446.274 324.552 446.927 324.069 447.41C323.587 447.892 322.934 448.165 322.252 448.169H123.084C122.399 448.169 121.742 447.898 121.256 447.415C120.77 446.933 120.495 446.277 120.491 445.592C120.491 444.904 120.764 444.244 121.25 443.758C121.737 443.271 122.396 442.998 123.084 442.998Z" fill="#1F1F1F"/>
<path opacity="0.3" d="M123.084 442.998H322.252C322.937 443.002 323.592 443.278 324.075 443.764C324.558 444.25 324.829 444.907 324.829 445.592C324.825 446.274 324.552 446.927 324.069 447.41C323.587 447.892 322.934 448.165 322.252 448.169H123.084C122.399 448.169 121.742 447.898 121.256 447.415C120.77 446.933 120.495 446.277 120.491 445.592C120.491 444.904 120.764 444.244 121.25 443.758C121.737 443.271 122.396 442.998 123.084 442.998Z" fill="black"/>
<path d="M192.622 350.132H333.958C334.888 350.11 335.811 350.295 336.661 350.674C337.511 351.053 338.265 351.616 338.87 352.323C339.475 353.03 339.915 353.862 340.159 354.76C340.402 355.658 340.442 356.599 340.276 357.515L328.637 438.209C328.297 440.226 327.27 442.062 325.73 443.407C324.191 444.753 322.233 445.525 320.19 445.592H178.854C177.924 445.614 177.001 445.429 176.151 445.05C175.301 444.672 174.546 444.108 173.941 443.401C173.337 442.695 172.896 441.862 172.653 440.964C172.41 440.066 172.37 439.125 172.535 438.209L184.175 357.515C184.515 355.499 185.542 353.662 187.082 352.317C188.621 350.971 190.578 350.2 192.622 350.132Z" fill="#1F1F1F"/>
<path d="M355.65 0H197V177H355.65V0Z" fill="#F4F4F4"/>
<path d="M345.205 10.4448H207.457V166.643H345.205V10.4448Z" fill="#EBEBEB"/>
<path d="M268.463 38.0645H219.904V95.5926H268.463V38.0645Z" fill="white"/>
<path d="M245.922 41.9798C245.922 42.9429 245.147 43.731 244.171 43.731C243.195 43.731 242.42 42.9554 242.42 41.9798C242.42 41.0041 243.195 40.2285 244.171 40.2285C245.147 40.2285 245.922 41.0041 245.922 41.9798Z" fill="#455A64"/>
<path d="M229.147 49.5978C234.051 49.2225 238.967 49.1975 243.87 49.1475C248.774 49.1975 253.69 49.2225 258.593 49.5978C253.69 49.973 248.774 49.9981 243.87 50.0481C238.967 49.9981 234.051 49.973 229.147 49.5978Z" fill="#EBEBEB"/>
<path d="M229.147 54.1381C231.812 53.7879 234.489 53.7003 237.153 53.6753C239.818 53.6878 242.494 53.7754 245.159 54.1381C242.494 54.5009 239.818 54.5759 237.153 54.5884C234.489 54.5759 231.812 54.4884 229.147 54.1381Z" fill="#EBEBEB"/>
<path d="M229.147 58.6913C232.562 58.3411 235.965 58.2535 239.38 58.2285C242.795 58.241 246.197 58.3286 249.612 58.6913C246.197 59.0541 242.795 59.1292 239.38 59.1417C235.965 59.1292 232.562 59.0416 229.147 58.6913Z" fill="#EBEBEB"/>
<path d="M229.147 63.2324C233.413 62.8821 237.678 62.7945 241.944 62.7695C246.21 62.782 250.475 62.8696 254.741 63.2324C250.475 63.5951 246.21 63.6702 241.944 63.6827C237.678 63.6702 233.413 63.5826 229.147 63.2324Z" fill="#EBEBEB"/>
<path d="M229.147 67.7856C232.85 67.4353 236.565 67.3478 240.268 67.3228C243.97 67.3353 247.686 67.4228 251.388 67.7856C247.686 68.1483 243.97 68.2234 240.268 68.2359C236.565 68.2234 232.85 68.1358 229.147 67.7856Z" fill="#EBEBEB"/>
<path d="M229.147 72.3263C233.888 71.951 238.642 71.926 243.383 71.876C248.123 71.926 252.877 71.951 257.618 72.3263C252.877 72.7016 248.123 72.7266 243.383 72.7766C238.642 72.7266 233.888 72.7016 229.147 72.3263Z" fill="#EBEBEB"/>
<path d="M229.147 76.8793C232.212 76.5291 235.277 76.4415 238.341 76.4165C241.406 76.429 244.471 76.5166 247.535 76.8793C244.471 77.2421 241.406 77.3171 238.341 77.3297C235.277 77.3171 232.212 77.2296 229.147 76.8793Z" fill="#EBEBEB"/>
<path d="M229.147 81.42C234.051 81.0448 238.967 81.0198 243.87 80.9697C248.774 81.0198 253.69 81.0448 258.593 81.42C253.69 81.7953 248.774 81.8203 243.87 81.8704C238.967 81.8203 234.051 81.7953 229.147 81.42Z" fill="#EBEBEB"/>
<path d="M229.147 85.9733C234.051 85.598 238.967 85.573 243.87 85.5229C248.774 85.573 253.69 85.598 258.593 85.9733C253.69 86.3485 248.774 86.3736 243.87 86.4236C238.967 86.3736 234.051 86.3485 229.147 85.9733Z" fill="#EBEBEB"/>
<path d="M333.296 73.9399H275.843V142.013H333.296V73.9399Z" fill="white"/>
<path d="M306.314 83.1214C306.314 84.0845 305.539 84.8726 304.563 84.8726C303.588 84.8726 302.812 84.097 302.812 83.1214C302.812 82.1457 303.588 81.3701 304.563 81.3701C305.539 81.3701 306.314 82.1457 306.314 83.1214Z" fill="#455A64"/>
<path d="M283.886 90.9272C286.013 90.5769 288.139 90.4894 290.253 90.4644C292.38 90.4769 294.506 90.5644 296.62 90.9272C294.494 91.2899 292.367 91.365 290.253 91.39C288.127 91.3775 286 91.2899 283.886 90.9272Z" fill="#EBEBEB"/>
<path d="M283.886 96.0556C286.638 95.7053 289.39 95.6178 292.13 95.5928C294.882 95.6053 297.634 95.6928 300.373 96.0556C297.621 96.4184 294.869 96.4934 292.13 96.5184C289.378 96.5059 286.626 96.4184 283.886 96.0556Z" fill="#EBEBEB"/>
<path d="M283.886 101.197C286.438 100.847 288.978 100.759 291.529 100.734C294.081 100.747 296.621 100.834 299.172 101.197C296.621 101.56 294.081 101.635 291.529 101.66C288.978 101.648 286.438 101.56 283.886 101.197Z" fill="#EBEBEB"/>
<path d="M283.886 106.326C286.438 105.975 288.978 105.888 291.529 105.863C294.081 105.875 296.621 105.963 299.172 106.326C296.621 106.688 294.081 106.763 291.529 106.788C288.978 106.776 286.438 106.688 283.886 106.326Z" fill="#EBEBEB"/>
<path d="M283.886 111.454C286.101 111.104 288.315 111.016 290.529 110.991C292.743 111.004 294.957 111.091 297.171 111.454C294.957 111.817 292.743 111.892 290.529 111.917C288.315 111.904 286.101 111.817 283.886 111.454Z" fill="#EBEBEB"/>
<path d="M283.886 116.595C286.713 116.245 289.553 116.157 292.38 116.132C295.207 116.145 298.046 116.232 300.873 116.595C298.046 116.958 295.207 117.033 292.38 117.058C289.553 117.045 286.713 116.958 283.886 116.595Z" fill="#EBEBEB"/>
<path d="M283.886 121.724C286.226 121.374 288.565 121.286 290.904 121.261C293.243 121.274 295.582 121.361 297.921 121.724C295.582 122.087 293.243 122.162 290.904 122.187C288.565 122.174 286.226 122.087 283.886 121.724Z" fill="#EBEBEB"/>
<path d="M283.886 126.853C286.814 126.502 289.753 126.415 292.68 126.402C295.607 126.415 298.547 126.502 301.474 126.853C298.547 127.215 295.607 127.29 292.68 127.315C289.753 127.303 286.814 127.215 283.886 126.853Z" fill="#EBEBEB"/>
<path d="M283.886 131.994C286.814 131.643 289.753 131.556 292.68 131.531C295.607 131.543 298.547 131.631 301.474 131.994C298.547 132.356 295.607 132.431 292.68 132.444C289.753 132.431 286.814 132.344 283.886 131.994Z" fill="#EBEBEB"/>
<path d="M308.992 90.9272C311.769 90.5769 314.558 90.4894 317.335 90.4644C320.112 90.4769 322.901 90.5644 325.678 90.9272C322.901 91.2899 320.112 91.365 317.335 91.39C314.558 91.3775 311.769 91.2899 308.992 90.9272Z" fill="#EBEBEB"/>
<path d="M308.992 96.0556C310.818 95.7053 312.644 95.6178 314.483 95.5928C316.309 95.6053 318.136 95.6928 319.974 96.0556C318.148 96.4184 316.322 96.4934 314.483 96.5184C312.657 96.5059 310.83 96.4184 308.992 96.0556Z" fill="#EBEBEB"/>
<path d="M308.992 101.197C311.606 100.847 314.233 100.759 316.847 100.734C319.462 100.747 322.088 100.834 324.703 101.197C322.088 101.56 319.462 101.635 316.847 101.66C314.233 101.648 311.606 101.56 308.992 101.197Z" fill="#EBEBEB"/>
<path d="M308.992 106.326C311.544 105.975 314.083 105.888 316.635 105.863C319.186 105.875 321.726 105.963 324.277 106.326C321.726 106.688 319.186 106.763 316.635 106.788C314.083 106.776 311.544 106.688 308.992 106.326Z" fill="#EBEBEB"/>
<path d="M308.992 111.454C311.769 111.104 314.558 111.016 317.335 110.991C320.112 111.004 322.901 111.091 325.678 111.454C322.901 111.817 320.112 111.892 317.335 111.917C314.558 111.904 311.769 111.817 308.992 111.454Z" fill="#EBEBEB"/>
<path d="M308.992 116.595C311.206 116.245 313.42 116.157 315.634 116.132C317.848 116.145 320.062 116.232 322.276 116.595C320.062 116.958 317.848 117.033 315.634 117.058C313.42 117.045 311.206 116.958 308.992 116.595Z" fill="#EBEBEB"/>
<path d="M308.992 121.724C311.606 121.374 314.233 121.286 316.847 121.261C319.462 121.274 322.088 121.361 324.703 121.724C322.088 122.087 319.462 122.162 316.847 122.187C314.233 122.174 311.606 122.087 308.992 121.724Z" fill="#EBEBEB"/>
<path d="M308.992 126.853C311.018 126.502 313.045 126.415 315.071 126.402C317.097 126.415 319.124 126.502 321.15 126.853C319.124 127.215 317.097 127.29 315.071 127.315C313.045 127.303 311.018 127.215 308.992 126.853Z" fill="#EBEBEB"/>
<path d="M308.992 131.994C310.931 131.643 312.882 131.556 314.821 131.531C316.76 131.543 318.711 131.631 320.65 131.994C318.711 132.356 316.76 132.431 314.821 132.444C312.882 132.431 310.931 132.344 308.992 131.994Z" fill="#EBEBEB"/>
<path d="M293.205 22.2534H263.997V51.4615H293.205V22.2534Z" fill="#EBEBEB"/>
<path d="M280.346 25.218C280.346 26.1812 279.571 26.9693 278.595 26.9693C277.62 26.9693 276.844 26.1937 276.844 25.218C276.844 24.2423 277.62 23.4668 278.595 23.4668C279.571 23.4668 280.346 24.2423 280.346 25.218Z" fill="#455A64"/>
<path d="M345.067 10.4448H341.127V166.805H345.067V10.4448Z" fill="#EBEBEB"/>
</g>
<defs>
<clipPath id="clip0_3459_22239">
<rect width="383" height="560" fill="white"/>
</clipPath>
</defs>
</svg>
