<svg width="44" height="44" viewBox="0 0 44 44" fill="none" xmlns="http://www.w3.org/2000/svg">
<g id="Group 1171275784">
<g id="Group 102399">
<circle id="Ellipse 2173" cx="22" cy="22" r="22" fill="#F7F7FC"/>
</g>
<g id="Group 102404">
<circle id="Ellipse 41" cx="22.0351" cy="21.9413" r="1.99016" stroke="#171717" stroke-width="0.995082"/>
<path id="Vector" d="M15.4665 15.8498C14.5414 16.8469 13.8696 18.0303 13.4784 19.2981L15.0698 20.2169C16.3966 20.983 16.3966 22.898 15.0698 23.664L13.4767 24.5838C13.6709 25.2107 13.9376 25.826 14.2796 26.4183C14.6216 27.0107 15.021 27.5492 15.4668 28.0309L17.06 27.1111C18.3868 26.345 20.0453 27.3026 20.0453 28.8346L20.0453 30.6723C21.3388 30.9675 22.6995 30.9773 24.0257 30.6747L24.0257 28.8347C24.0257 27.3026 25.6842 26.3451 27.0109 27.1111L28.6045 28.0312C29.5296 27.034 30.2014 25.8506 30.5926 24.5828L29.0011 23.664C27.6743 22.8979 27.6743 20.9829 29.0011 20.2169L30.5943 19.2971C30.4 18.6701 30.1334 18.055 29.7914 17.4626C29.4494 16.8702 29.0499 16.3317 28.6041 15.85L27.0109 16.7698C25.6842 17.5358 24.0257 16.5783 24.0257 15.0463L24.0257 13.2086C22.7321 12.9135 21.3714 12.9036 20.0453 13.2062L20.0453 15.0462C20.0453 16.5783 18.3868 17.5358 17.06 16.7698L15.4665 15.8498Z" stroke="#171717" stroke-width="0.995082" stroke-linejoin="round"/>
</g>
</g>
</svg>
