<svg width="26" height="26" viewBox="0 0 26 26" fill="none" xmlns="http://www.w3.org/2000/svg">
<path d="M4.83325 4.83325L5.27519 4.39131C5.03112 4.14723 4.63539 4.14723 4.39131 4.39131L4.83325 4.83325ZM2.70009 6.96642L3.14203 7.40836L2.70009 6.96642ZM6.96642 6.96642L6.52447 7.40836L6.96642 6.96642ZM8.15564 8.40682L8.73306 8.16764V8.16764L8.15564 8.40682ZM2.01667 23.9832L2.45861 23.5412H2.45861L2.01667 23.9832ZM1.51087 8.40682L2.08829 8.646L2.08829 8.646L1.51087 8.40682ZM4.20825 4.83767C4.20825 5.18285 4.48807 5.46267 4.83325 5.46267C5.17843 5.46267 5.45825 5.18285 5.45825 4.83767H4.20825ZM17.5713 5.42264L18.0512 5.02222V5.02222L17.5713 5.42264ZM19.9999 8.33325H20.6249C20.6249 8.18691 20.5736 8.0452 20.4798 7.93284L19.9999 8.33325ZM5.27747 1.78575L5.71914 2.22797V2.22797L5.27747 1.78575ZM17.1286 4.73741L17.7292 4.56471L17.7292 4.56471L17.1286 4.73741ZM16.7901 1.96169L17.2941 1.59204L17.294 1.59203L16.7901 1.96169ZM8.33325 7.70825C7.98807 7.70825 7.70825 7.98807 7.70825 8.33325C7.70825 8.67843 7.98807 8.95825 8.33325 8.95825V7.70825ZM12.9999 25.2916C13.3451 25.2916 13.6249 25.0118 13.6249 24.6666C13.6249 24.3214 13.3451 24.0416 12.9999 24.0416V25.2916ZM19.3749 11.2499C19.3749 11.5951 19.6547 11.8749 19.9999 11.8749C20.3451 11.8749 20.6249 11.5951 20.6249 11.2499H19.3749ZM4.39131 4.39131L2.25815 6.52447L3.14203 7.40836L5.27519 5.27519L4.39131 4.39131ZM0.708252 10.2662V19.9999H1.95825V10.2662H0.708252ZM4.39131 5.27519L6.52447 7.40836L7.40836 6.52447L5.27519 4.39131L4.39131 5.27519ZM7.70825 10.2662V24.6666H8.95825V10.2662H7.70825ZM5.99992 25.2916H8.33325V24.0416H5.99992V25.2916ZM6.52447 7.40836C7.23494 8.11882 7.45924 8.35877 7.57821 8.646L8.73306 8.16764C8.49681 7.59728 8.0467 7.16282 7.40836 6.52447L6.52447 7.40836ZM8.95825 10.2662C8.95825 9.36349 8.96931 8.73801 8.73306 8.16764L7.57821 8.646C7.69719 8.93323 7.70825 9.2615 7.70825 10.2662H8.95825ZM0.708252 19.9999C0.708252 21.0822 0.706925 21.9568 0.799252 22.6435C0.893997 23.3482 1.09754 23.9479 1.57473 24.4251L2.45861 23.5412C2.25238 23.335 2.11422 23.043 2.03811 22.4769C1.95958 21.8929 1.95825 21.1175 1.95825 19.9999H0.708252ZM5.99992 24.0416C4.88231 24.0416 4.10697 24.0403 3.5229 23.9617C2.9568 23.8856 2.66484 23.7475 2.45861 23.5412L1.57473 24.4251C2.05192 24.9023 2.65163 25.1058 3.35634 25.2006C4.04306 25.2929 4.91764 25.2916 5.99992 25.2916V24.0416ZM2.25815 6.52447C1.6198 7.16282 1.16969 7.59728 0.933442 8.16764L2.08829 8.646C2.20727 8.35877 2.43157 8.11882 3.14203 7.40836L2.25815 6.52447ZM1.95825 10.2662C1.95825 9.2615 1.96931 8.93323 2.08829 8.646L0.933442 8.16764C0.697189 8.73801 0.708252 9.36349 0.708252 10.2662H1.95825ZM5.45825 4.83767V4.37159H4.20825V4.83767H5.45825ZM7.86658 1.96709H14.3457V0.717091H7.86658V1.96709ZM17.0914 5.82305L19.52 8.73367L20.4798 7.93284L18.0512 5.02222L17.0914 5.82305ZM5.45825 4.37159C5.45825 3.63984 5.45958 3.15398 5.50819 2.79288C5.55437 2.44984 5.63265 2.31435 5.71914 2.22797L4.83581 1.34353C4.47808 1.70081 4.33424 2.14418 4.26937 2.62612C4.20692 3.08999 4.20825 3.67522 4.20825 4.37159H5.45825ZM7.86658 0.717091C7.16927 0.717091 6.58349 0.715767 6.11921 0.778108C5.63704 0.842852 5.19343 0.98636 4.83581 1.34353L5.71914 2.22797C5.80573 2.14148 5.94172 2.06316 6.28557 2.01699C6.64731 1.96842 7.13397 1.96709 7.86658 1.96709V0.717091ZM18.0512 5.02222C17.8394 4.7684 17.7613 4.67615 17.7292 4.56471L16.5279 4.91011C16.65 5.33483 16.9526 5.65665 17.0914 5.82305L18.0512 5.02222ZM16.2861 2.33134C16.4412 2.54279 16.4789 2.81991 16.4592 3.29199C16.4425 3.69306 16.3646 4.34207 16.5279 4.91011L17.7292 4.56471C17.639 4.25105 17.6845 3.91106 17.7081 3.34413C17.7288 2.84821 17.7241 2.17832 17.2941 1.59204L16.2861 2.33134ZM14.3457 1.96709C14.8198 1.96709 15.2022 1.9362 15.5844 1.9893C15.9377 2.03838 16.1505 2.14643 16.2861 2.33134L17.294 1.59203C16.8788 1.02588 16.2815 0.82414 15.7564 0.751187C15.2601 0.682249 14.6957 0.717091 14.3457 0.717091V1.96709ZM8.33325 8.95825H19.9999V7.70825H8.33325V8.95825ZM12.9999 24.0416H8.33325V25.2916H12.9999V24.0416ZM19.3749 8.33325V11.2499H20.6249V8.33325H19.3749Z" fill="#626262"/>
<path d="M23.0805 23.0804C24.8641 21.2968 25.5026 19.0435 23.0805 16.6213C20.6584 14.1992 16.6215 13.3918 15.0067 15.0066M23.0805 23.0804C21.2969 24.864 19.0436 25.5025 16.6215 23.0804C14.1993 20.6582 13.392 16.6213 15.0067 15.0066M23.0805 23.0804L15.0067 15.0066" stroke="#626262" stroke-width="1.25"/>
</svg>
