<svg width="44" height="44" viewBox="0 0 44 44" fill="none" xmlns="http://www.w3.org/2000/svg">
<g id="Group 102410">
<circle id="Ellipse 2172" cx="22" cy="22" r="22" fill="#F7F7FC"/>
<g id="Group 102409">
<path id="Ellipse 86" d="M31 25V22C31 17.0294 26.9706 13 22 13C17.0294 13 13 17.0294 13 22V25" stroke="#171717" stroke-linecap="round"/>
<path id="Rectangle 22" d="M13 25H16C16.5523 25 17 25.4477 17 26V29C17 30.1046 16.1046 31 15 31V31C13.8954 31 13 30.1046 13 29V25Z" stroke="#171717" stroke-linecap="round"/>
<path id="Rectangle 23" d="M27 26C27 25.4477 27.4477 25 28 25H31V29C31 30.1046 30.1046 31 29 31V31C27.8954 31 27 30.1046 27 29V26Z" stroke="#171717" stroke-linecap="round"/>
</g>
</g>
</svg>
