<svg width="22" height="26" viewBox="0 0 22 26" fill="none" xmlns="http://www.w3.org/2000/svg">
<g clip-path="url(#clip0_3397_1856)">
<circle cx="10.8419" cy="8.26476" r="7.51574" stroke="white" stroke-width="1.5"/>
<path d="M8.625 17.8603V16.374H13.0317V17.8603H8.625Z" stroke="white" stroke-width="1.5"/>
<path d="M19.0223 74.8356L18.2993 26.9865L19.1076 19.2683V19.2683C13.8142 17.0809 7.86957 17.0809 2.57617 19.2683V19.2683L3.25412 26.9865L2.7213 74.8356" stroke="white" stroke-width="1.5"/>
<path d="M2.70703 21.9279L7.13169 20.689C7.85601 20.4862 8.57388 21.0306 8.57388 21.7828V21.7828C8.57388 22.4102 9.08244 22.9187 9.70979 22.9187H11.9579C12.5803 22.9187 13.0848 22.4142 13.0848 21.7917V21.7917C13.0848 21.0392 13.8082 20.4981 14.5301 20.7106L18.6649 21.9279" stroke="white" stroke-width="1.5"/>
<circle cx="8.5" cy="8.5" r="1.5" fill="white"/>
<circle cx="13.5" cy="8.5" r="1.5" fill="white"/>
</g>
<defs>
<clipPath id="clip0_3397_1856">
<rect width="22" height="25.1429" fill="white"/>
</clipPath>
</defs>
</svg>
