<svg width="19" height="19" viewBox="0 0 19 19" fill="none" xmlns="http://www.w3.org/2000/svg">
<g id="elements">
<path id="Vector" d="M17.6528 5.24872L17.2209 4.4992C16.8943 3.93234 16.731 3.64892 16.4531 3.5359C16.1752 3.42288 15.8609 3.51206 15.2324 3.69042L14.1647 3.99116C13.7634 4.08369 13.3424 4.0312 12.976 3.84294L12.6812 3.67287C12.367 3.47163 12.1254 3.17492 11.9916 2.82615L11.6994 1.95344C11.5072 1.37592 11.4112 1.08716 11.1825 0.921999C10.9538 0.756836 10.65 0.756836 10.0424 0.756836H9.06699C8.45943 0.756836 8.15565 0.756836 7.92695 0.921999C7.69824 1.08716 7.60218 1.37592 7.41005 1.95344L7.11784 2.82615C6.98407 3.17492 6.7424 3.47163 6.4282 3.67287L6.13343 3.84294C5.76702 4.0312 5.34602 4.08369 4.94474 3.99116L3.87703 3.69042C3.24849 3.51206 2.93422 3.42288 2.65634 3.5359C2.37846 3.64892 2.21514 3.93234 1.88851 4.4992L1.45662 5.24872C1.15045 5.78006 0.997365 6.04573 1.02708 6.32855C1.05679 6.61137 1.26173 6.83928 1.6716 7.2951L2.57376 8.30372C2.79426 8.58287 2.95081 9.06934 2.95081 9.50669C2.95081 9.94434 2.79431 10.4307 2.57379 10.7099L1.67161 11.7185C1.26173 12.1743 1.05679 12.4022 1.02708 12.685C0.997365 12.9679 1.15045 13.2335 1.45662 13.7649L1.8885 14.5144C2.21512 15.0812 2.37846 15.3647 2.65634 15.4777C2.93422 15.5907 3.2485 15.5015 3.87705 15.3231L4.9447 15.0224C5.34605 14.9298 5.76713 14.9824 6.13358 15.1707L6.42831 15.3408C6.74244 15.542 6.98406 15.8387 7.11781 16.1874L7.41005 17.0602C7.60218 17.6378 7.69824 17.9265 7.92695 18.0917C8.15565 18.2568 8.45943 18.2568 9.06699 18.2568H10.0424C10.65 18.2568 10.9538 18.2568 11.1825 18.0917C11.4112 17.9265 11.5072 17.6378 11.6994 17.0602L11.9916 16.1874C12.1254 15.8387 12.367 15.542 12.6811 15.3408L12.9758 15.1707C13.3423 14.9824 13.7634 14.9298 14.1647 15.0224L15.2324 15.3231C15.8609 15.5015 16.1752 15.5907 16.4531 15.4777C16.731 15.3647 16.8943 15.0812 17.2209 14.5144L17.6528 13.7649C17.959 13.2335 18.1121 12.9679 18.0823 12.685C18.0526 12.4022 17.8477 12.1743 17.4378 11.7185L16.5356 10.7099C16.3151 10.4307 16.1586 9.94434 16.1586 9.50669C16.1586 9.06934 16.3152 8.58287 16.5357 8.30372L17.4378 7.2951C17.8477 6.83928 18.0526 6.61137 18.0823 6.32855C18.1121 6.04573 17.959 5.78006 17.6528 5.24872Z" stroke="#141B34" stroke-width="1.3125" stroke-linecap="round"/>
<path id="Ellipse 1200" d="M12.5801 9.5C12.5801 11.1914 11.209 12.5625 9.51758 12.5625C7.82621 12.5625 6.45508 11.1914 6.45508 9.5C6.45508 7.80863 7.82621 6.4375 9.51758 6.4375C11.209 6.4375 12.5801 7.80863 12.5801 9.5Z" stroke="#141B34" stroke-width="1.3125"/>
</g>
</svg>
