<svg width="50" height="50" viewBox="0 0 50 50" fill="none" xmlns="http://www.w3.org/2000/svg">
<circle cx="25" cy="25" r="25" fill="white"/>
<mask id="mask0_524_1254" style="mask-type:luminance" maskUnits="userSpaceOnUse" x="14" y="14" width="22" height="22">
<path d="M36 14H14V36H36V14Z" fill="white"/>
</mask>
<g mask="url(#mask0_524_1254)">
<path d="M24.556 27.2233C25.7832 27.2233 26.778 26.2285 26.778 25.0013C26.778 23.7741 25.7832 22.7793 24.556 22.7793C23.3288 22.7793 22.334 23.7741 22.334 25.0013C22.334 26.2285 23.3288 27.2233 24.556 27.2233Z" stroke="#171717" stroke-width="1.5"/>
<path d="M17.224 18.2004C16.2043 19.3004 15.4455 20.616 15.004 22.0494L16.781 23.0754C17.1186 23.2705 17.399 23.551 17.5939 23.8887C17.7888 24.2264 17.8914 24.6095 17.8914 24.9994C17.8914 25.3893 17.7888 25.7725 17.5939 26.1102C17.399 26.4479 17.1186 26.7283 16.781 26.9234L15.002 27.9504C15.4478 29.3822 16.2068 30.6966 17.224 31.7984L19.003 30.7714C19.3408 30.5764 19.724 30.4737 20.1141 30.4738C20.5042 30.4738 20.8875 30.5765 21.2253 30.7716C21.5631 30.9667 21.8435 31.2473 22.0385 31.5852C22.2335 31.9231 22.3361 32.3063 22.336 32.6964V34.7474C23.7985 35.0808 25.3174 35.0808 26.78 34.7474V32.6934C26.7798 32.3033 26.8824 31.92 27.0774 31.5822C27.2724 31.2443 27.5528 30.9637 27.8907 30.7686C28.2285 30.5735 28.6117 30.4707 29.0018 30.4707C29.3919 30.4707 29.7751 30.5734 30.113 30.7684L31.892 31.7954C32.9117 30.6954 33.6704 29.3799 34.112 27.9464L32.335 26.9204C31.9973 26.7254 31.7169 26.4449 31.522 26.1072C31.3271 25.7695 31.2245 25.3863 31.2245 24.9964C31.2245 24.6065 31.3271 24.2234 31.522 23.8857C31.7169 23.548 31.9973 23.2675 32.335 23.0725L34.114 22.0454C33.6681 20.6137 32.9091 19.2993 31.892 18.1975L30.113 19.2244C29.7751 19.4195 29.3919 19.5221 29.0018 19.5221C28.6117 19.5221 28.2285 19.4194 27.8907 19.2243C27.5528 19.0291 27.2724 18.7485 27.0774 18.4107C26.8824 18.0728 26.7798 17.6895 26.78 17.2994V15.2484C25.3174 14.9146 23.7985 14.9146 22.336 15.2484V17.3024C22.3361 17.6925 22.2335 18.0758 22.0385 18.4136C21.8435 18.7515 21.5631 19.0321 21.2253 19.2272C20.8875 19.4223 20.5042 19.5251 20.1141 19.5251C19.724 19.5251 19.3408 19.4225 19.003 19.2274L17.224 18.2004Z" stroke="#171717" stroke-width="1.5" stroke-linejoin="round"/>
</g>
</svg>
