<svg width="58" height="58" viewBox="0 0 58 58" fill="none" xmlns="http://www.w3.org/2000/svg">
<path d="M56.7499 28.8749C56.7499 34.6263 55.0081 39.9707 52.0233 44.4097C47.0184 51.8528 38.5186 56.7499 28.8749 56.7499C19.2313 56.7499 10.7315 51.8528 5.72663 44.4097C2.74178 39.9707 1 34.6263 1 28.8749C1 13.48 13.48 1 28.8749 1C44.2699 1 56.7499 13.48 56.7499 28.8749Z" stroke="white" stroke-width="2"/>
<path d="M35.0715 19.5812C35.0715 23.0022 32.2981 25.7756 28.8771 25.7756C25.456 25.7756 22.6826 23.0022 22.6826 19.5812C22.6826 16.1601 25.456 13.3867 28.8771 13.3867C32.2981 13.3867 35.0715 16.1601 35.0715 19.5812Z" stroke="white" stroke-width="2"/>
<path d="M38.1616 38.168H19.5783C13.9669 38.168 9.22686 41.8986 7.70312 47.015C12.8154 52.9752 20.4017 56.7514 28.8699 56.7514C37.3382 56.7514 44.9244 52.9752 50.0368 47.015C48.513 41.8986 43.773 38.168 38.1616 38.168Z" stroke="white" stroke-width="2"/>
</svg>
