<svg width="27" height="31" viewBox="0 0 27 31" fill="none" xmlns="http://www.w3.org/2000/svg">
<path d="M20.9942 18.8488L12.9793 20.2427C12.164 20.3845 11.3892 19.8352 11.2532 19.0189C11.1147 18.1881 10.316 17.6368 9.49004 17.802L7.27016 18.246C6.56867 18.3863 5.88627 17.9313 5.74597 17.2298C5.60886 16.5443 4.95247 16.0913 4.26287 16.2062L4 16.25C3.16386 16.3894 2.36801 15.84 2.20177 15.0088L1.40008 11.0004C1.18041 9.90207 1.90546 8.83748 3.00791 8.63961L18.5557 5.84898C19.6334 5.65555 20.6663 6.36462 20.873 7.43983L22.6155 16.5007C22.8267 17.5991 22.0961 18.6572 20.9942 18.8488Z" stroke="#7E7E7E" stroke-width="1.25"/>
<circle cx="6" cy="22" r="1" fill="#7E7E7E"/>
<circle cx="6" cy="30" r="1" fill="#7E7E7E"/>
<circle cx="8" cy="26" r="1" fill="#7E7E7E"/>
<circle cx="4" cy="26" r="1" fill="#7E7E7E"/>
<circle cx="1" cy="30" r="1" fill="#7E7E7E"/>
<circle cx="11" cy="30" r="1" fill="#7E7E7E"/>
</svg>
