<svg width="30" height="30" viewBox="0 0 30 30" fill="none" xmlns="http://www.w3.org/2000/svg">
<path d="M20.5 10.5L22.5 13.5V23.7498C22.5 25.8123 20.8125 27.4998 18.75 27.4998H11.25C9.1875 27.4998 7.5 25.8123 7.5 23.7498V13.2598L9 11L11 9C11.9125 9 14.175 9.379 15 9.7915C15.825 10.204 16.725 10.4165 17.65 10.4165L20.5 10.5Z" stroke="#626262" stroke-width="1.25" stroke-linecap="round" stroke-linejoin="round"/>
<path d="M22.5 15.4162V13.537C22.5 12.962 22.175 12.1745 21.7625 11.762L19.1125 9.112C18.8875 8.887 18.75 8.56201 18.75 8.23701V6.24951H11.25V8.23701C11.25 8.56201 11.1125 8.887 10.8875 9.112L8.23753 11.762C7.82503 12.1745 7.5 12.962 7.5 13.537V14.1412" stroke="#626262" stroke-width="1.25" stroke-linecap="round" stroke-linejoin="round"/>
<path d="M18.125 6.24951H11.875C10.8375 6.24951 10 5.39951 10 4.37451C10 3.34951 10.8375 2.49951 11.875 2.49951H18.125C19.1625 2.49951 20 3.34951 20 4.37451C20 5.39951 19.1625 6.24951 18.125 6.24951Z" stroke="#626262" stroke-width="1.25" stroke-linecap="round" stroke-linejoin="round"/>
</svg>
