<svg width="44" height="44" viewBox="0 0 44 44" fill="none" xmlns="http://www.w3.org/2000/svg">
<circle cx="22" cy="22" r="22" fill="white"/>
<path d="M23.75 15.1875C23.75 15.9124 23.1624 16.5 22.4375 16.5C21.7126 16.5 21.125 15.9124 21.125 15.1875C21.125 14.4626 22.4375 13 22.4375 13C22.4375 13 23.75 14.4626 23.75 15.1875Z" stroke="#141B34" stroke-linejoin="round"/>
<path d="M22.4375 16.5V19.125" stroke="#141B34" stroke-linecap="round" stroke-linejoin="round"/>
<path d="M27.3958 23.5C28.765 23.5 29.875 22.5206 29.875 21.3125C29.875 20.1044 28.765 19.125 27.3958 19.125H17.4792C16.11 19.125 15 20.1044 15 21.3125C15 22.5206 16.11 23.5 17.4792 23.5C18.6786 23.5 19.7286 22.7485 19.9583 21.75C20.188 22.7485 21.2381 23.5 22.4375 23.5C23.6369 23.5 24.687 22.7485 24.9167 21.75C25.1464 22.7485 26.1964 23.5 27.3958 23.5Z" stroke="#141B34" stroke-linejoin="round"/>
<path d="M16.3125 23.5L16.7683 25.7572C17.2272 28.0297 17.4566 29.166 18.2341 29.833C19.0115 30.5 20.1066 30.5 22.2966 30.5H22.5784C24.7684 30.5 25.8635 30.5 26.6409 29.833C27.4184 29.166 27.6478 28.0297 28.1067 25.7572L28.5625 23.5" stroke="#141B34" stroke-linecap="round" stroke-linejoin="round"/>
</svg>
