<svg width="24" height="23" viewBox="0 0 24 23" fill="none" xmlns="http://www.w3.org/2000/svg">
<g id="PaperPlaneRight">
<path id="Vector" d="M20.9481 9.91738L5.11231 1.69105C4.84586 1.55265 4.54022 1.49298 4.23623 1.52003C3.93225 1.54707 3.64441 1.65954 3.41117 1.84239C3.17793 2.02525 3.01041 2.26979 2.931 2.54332C2.85159 2.81686 2.86407 3.10636 2.96677 3.37314L5.68588 10.4358H12.7502C12.9491 10.4358 13.1399 10.5091 13.2805 10.6396C13.4212 10.77 13.5002 10.947 13.5002 11.1315C13.5002 11.316 13.4212 11.493 13.2805 11.6235C13.1399 11.7539 12.9491 11.8272 12.7502 11.8272H5.68588L2.96677 18.8899C2.88638 19.0998 2.86137 19.3246 2.89384 19.5453C2.9263 19.7661 3.01529 19.9764 3.15336 20.1587C3.29143 20.341 3.47456 20.49 3.68742 20.5931C3.90029 20.6963 4.13669 20.7507 4.37686 20.7517C4.63459 20.7512 4.88787 20.6894 5.1124 20.572L20.948 12.3457C21.1806 12.2248 21.3744 12.0486 21.5092 11.8352C21.644 11.6218 21.7151 11.3789 21.7151 11.1315C21.7151 10.8842 21.6441 10.6413 21.5092 10.4279C21.3744 10.2145 21.1807 10.0383 20.9481 9.91738Z" fill="#0083FC"/>
</g>
</svg>
