<svg width="44" height="44" viewBox="0 0 44 44" fill="none" xmlns="http://www.w3.org/2000/svg">
<circle cx="22" cy="22" r="22" fill="#F7F7FC"/>
<path d="M31.1673 21.6035C31.1673 26.4464 27.0627 30.373 22.0007 30.373C21.4054 30.3737 20.812 30.3187 20.2273 30.2089C19.8064 30.1299 19.596 30.0904 19.4491 30.1128C19.3022 30.1352 19.0941 30.2459 18.6777 30.4673C17.4999 31.0937 16.1266 31.3149 14.8058 31.0692C15.3078 30.4518 15.6507 29.7109 15.8019 28.9167C15.8936 28.4309 15.6665 27.959 15.3263 27.6135C13.7812 26.0446 12.834 23.9303 12.834 21.6035C12.834 16.7606 16.9386 12.834 22.0007 12.834C27.0627 12.834 31.1673 16.7606 31.1673 21.6035Z" stroke="black" stroke-linejoin="round"/>
<path d="M20.167 20.0263C20.167 19.0917 20.9878 18.334 22.0003 18.334C23.0128 18.334 23.8337 19.0917 23.8337 20.0263C23.8337 20.3632 23.727 20.6771 23.5432 20.9408C22.9953 21.7268 22.0003 22.4763 22.0003 23.4109V23.834" stroke="black" stroke-linecap="round"/>
<path d="M22 26.125H22.0082" stroke="black" stroke-linecap="round" stroke-linejoin="round"/>
</svg>
