<svg width="44" height="44" viewBox="0 0 44 44" fill="none" xmlns="http://www.w3.org/2000/svg">
<g id="Group 1171276024">
<g id="Group 1171275887">
<g id="Group 1171275837">
<g id="Group 1171275298">
<circle id="Ellipse 2172" cx="22" cy="22" r="22" fill="#F7F7FC"/>
</g>
</g>
</g>
<g id="Group 1171276023">
<path id="Vector" d="M17.5 18.8793H22M27.5 18.8793H25M22 18.8793H25M22 18.8793V17.5M25 18.8793C24.4725 20.7656 23.3679 22.5487 22.1071 24.1158M18.8929 27.5C19.912 26.5628 21.0631 25.4134 22.1071 24.1158M22.1071 24.1158C21.4643 23.3621 20.5643 22.1426 20.3071 21.5909M22.1071 24.1158L24.0357 26.1207" stroke="black" stroke-linecap="round" stroke-linejoin="round"/>
<path id="Rectangle 2190" d="M13 22.5C13 18.0217 13 15.7825 14.3912 14.3912C15.7825 13 18.0217 13 22.5 13C26.9783 13 29.2175 13 30.6088 14.3912C32 15.7825 32 18.0217 32 22.5C32 26.9783 32 29.2175 30.6088 30.6088C29.2175 32 26.9783 32 22.5 32C18.0217 32 15.7825 32 14.3912 30.6088C13 29.2175 13 26.9783 13 22.5Z" stroke="black"/>
</g>
</g>
</svg>
