<svg width="246" height="124" viewBox="0 0 246 124" fill="none" xmlns="http://www.w3.org/2000/svg">
<path d="M245.015 114.692H0V123.793H245.015V114.692Z" fill="#F4F4F4"/>
<path d="M245.015 40.8234H0V49.9248H245.015V40.8234Z" fill="#F4F4F4"/>
<path d="M245.015 -33.0481H0V-23.9467H245.015V-33.0481Z" fill="#F4F4F4"/>
<path d="M112.936 3.47379V0.664291H92.361V3.47379C91.3613 3.70564 90.4695 4.26922 89.8311 5.07266C89.1926 5.87611 88.845 6.87208 88.845 7.89832V36.5989C88.845 37.8081 89.3253 38.9677 90.1803 39.8227C91.0353 40.6777 92.1949 41.1581 93.4041 41.1581H111.91C113.119 41.1581 114.279 40.6777 115.134 39.8227C115.989 38.9677 116.469 37.8081 116.469 36.5989V7.89832C116.468 6.86978 116.118 5.87202 115.476 5.06827C114.834 4.26451 113.939 3.70235 112.936 3.47379Z" fill="#F4F4F4"/>
<path d="M92.4625 -1.74092H112.836C113.429 -1.74092 113.998 -1.5052 114.418 -1.08559C114.837 -0.665977 115.073 -0.0968399 115.073 0.496582V1.82561H90.225V0.496582C90.225 -0.0968399 90.4607 -0.665977 90.8804 -1.08559C91.3 -1.5052 91.8691 -1.74092 92.4625 -1.74092Z" fill="#F4F4F4"/>
<path d="M111.487 11.583H93.823V20.9031H111.487V11.583Z" fill="#F4F4F4"/>
<path d="M152.47 -78.7767V-82.1413H127.369V-78.7767C126.215 -78.7081 125.13 -78.2018 124.336 -77.3609C123.542 -76.5199 123.098 -75.4078 123.096 -74.2512V-37.2399C123.096 -36.0307 123.577 -34.8711 124.432 -34.0161C125.287 -33.1611 126.446 -32.6807 127.655 -32.6807H152.184C153.393 -32.6807 154.553 -33.1611 155.408 -34.0161C156.263 -34.8711 156.743 -36.0307 156.743 -37.2399V-74.2512C156.741 -75.4078 156.297 -76.5199 155.503 -77.3609C154.709 -78.2018 153.624 -78.7081 152.47 -78.7767Z" fill="#F4F4F4"/>
<path d="M127.016 -84.9999H152.807C153.4 -84.9999 153.969 -84.7642 154.389 -84.3446C154.808 -83.925 155.044 -83.3559 155.044 -82.7624V-80.6595H124.762V-82.7624C124.762 -83.0577 124.821 -83.35 124.934 -83.6226C125.048 -83.8951 125.214 -84.1426 125.423 -84.3506C125.633 -84.5585 125.882 -84.723 126.155 -84.8345C126.428 -84.9459 126.721 -85.0022 127.016 -84.9999Z" fill="#F4F4F4"/>
<path d="M148.752 -67.8579H131.087V-58.5378H148.752V-67.8579Z" fill="#F4F4F4"/>
<path d="M133.124 -39.3069C132.811 -39.1276 132.539 -38.8856 132.325 -38.5961C132.111 -38.3065 131.959 -37.9757 131.879 -37.6245C131.799 -37.404 131.644 -37.2188 131.441 -37.1017C131.237 -36.9847 130.999 -36.9435 130.768 -36.9852C130.621 -37.0084 130.48 -37.064 130.357 -37.148C130.234 -37.232 130.13 -37.3424 130.055 -37.4711C129.979 -37.5998 129.933 -37.7438 129.92 -37.8925C129.906 -38.0412 129.926 -38.191 129.978 -38.3311C130.153 -38.9588 130.466 -39.5397 130.894 -40.0315C131.321 -40.5232 131.853 -40.9136 132.451 -41.1743C133.599 -41.911 134.602 -42.8518 135.412 -43.9501C134.394 -44.1052 133.352 -43.9714 132.407 -43.5639C131.461 -43.1565 130.648 -42.4917 130.062 -41.6453C128.144 -39.3573 127.808 -36.4805 129.322 -35.2188C130.836 -33.957 133.595 -34.7982 135.513 -37.0862C136.207 -37.7972 136.703 -38.6777 136.951 -39.6399C137.199 -40.6022 137.19 -41.6127 136.926 -42.5706C135.897 -41.2326 134.602 -40.1215 133.124 -39.3069Z" fill="#F4F4F4"/>
<path d="M140.239 -46.6078C139.924 -46.7586 139.581 -46.8452 139.232 -46.8625C138.882 -46.8798 138.533 -46.8276 138.204 -46.7087C137.976 -46.6483 137.734 -46.671 137.521 -46.7727C137.309 -46.8744 137.139 -47.0486 137.043 -47.2639C136.982 -47.3986 136.95 -47.5449 136.951 -47.6929C136.951 -47.8409 136.984 -47.9871 137.046 -48.1213C137.108 -48.2555 137.199 -48.3747 137.312 -48.4706C137.424 -48.5666 137.557 -48.637 137.699 -48.677C138.318 -48.8843 138.975 -48.9526 139.624 -48.877C140.272 -48.8014 140.896 -48.5838 141.451 -48.2396C142.71 -47.7105 144.056 -47.4141 145.421 -47.3648C144.975 -48.2945 144.276 -49.0796 143.404 -49.6301C142.532 -50.1806 141.523 -50.4742 140.492 -50.4771C137.514 -50.7631 134.94 -49.4173 134.755 -47.4658C134.57 -45.5143 136.841 -43.6973 139.802 -43.4113C140.78 -43.2384 141.786 -43.3261 142.72 -43.6658C143.653 -44.0054 144.48 -44.5849 145.118 -45.346C143.421 -45.4169 141.758 -45.8469 140.239 -46.6078Z" fill="#F4F4F4"/>
<path d="M151.981 -43.1269C152.1 -43.4601 152.149 -43.8141 152.126 -44.167C152.103 -44.52 152.007 -44.8645 151.846 -45.1793C151.766 -45.4006 151.767 -45.6427 151.847 -45.8638C151.926 -46.0849 152.081 -46.2713 152.283 -46.3906C152.411 -46.4669 152.554 -46.5144 152.702 -46.5299C152.85 -46.5455 153 -46.5287 153.14 -46.4807C153.281 -46.4327 153.41 -46.3546 153.518 -46.2519C153.625 -46.1492 153.709 -46.0243 153.764 -45.8859C154.038 -45.2956 154.18 -44.6526 154.18 -44.0017C154.18 -43.3509 154.038 -42.7078 153.764 -42.1175C153.375 -40.8092 153.227 -39.4411 153.327 -38.0799C154.201 -38.6239 154.905 -39.4032 155.357 -40.3285C155.809 -41.2538 155.992 -42.2877 155.884 -43.3119C155.884 -46.3065 154.201 -48.6954 152.267 -48.6786C150.332 -48.6618 148.751 -46.2056 148.784 -43.2278C148.727 -42.2413 148.929 -41.257 149.368 -40.372C149.808 -39.487 150.471 -38.7318 151.291 -38.1808C151.165 -39.8599 151.4 -41.5465 151.981 -43.1269Z" fill="#F4F4F4"/>
<path d="M130.936 -51.9075C130.696 -51.6513 130.51 -51.3496 130.389 -51.0201C130.267 -50.6907 130.213 -50.3403 130.23 -49.9896C130.212 -49.7558 130.113 -49.5356 129.95 -49.3668C129.787 -49.1979 129.571 -49.091 129.338 -49.0643C129.19 -49.0442 129.04 -49.057 128.898 -49.1019C128.756 -49.1468 128.625 -49.2227 128.516 -49.324C128.406 -49.4253 128.321 -49.5497 128.265 -49.688C128.21 -49.8264 128.185 -49.9753 128.194 -50.1242C128.197 -50.7647 128.338 -51.397 128.608 -51.9777C128.878 -52.5585 129.271 -53.074 129.759 -53.4888C130.647 -54.5264 131.337 -55.7182 131.794 -57.0049C130.774 -56.8616 129.814 -56.4337 129.026 -55.7701C128.237 -55.1066 127.652 -54.2343 127.336 -53.2533C126.142 -50.5111 126.646 -47.6511 128.446 -46.8773C130.247 -46.1034 132.669 -47.7016 133.847 -50.4438C134.317 -51.3233 134.544 -52.3119 134.506 -53.3082C134.467 -54.3045 134.164 -55.2727 133.628 -56.1133C133.042 -54.535 132.124 -53.1009 130.936 -51.9075Z" fill="#F4F4F4"/>
<path d="M146.264 -53.7244C146.466 -53.1187 147.24 -52.715 147.946 -52.4794C148.168 -52.3964 148.354 -52.238 148.471 -52.032C148.587 -51.8259 148.628 -51.5853 148.585 -51.3523C148.558 -51.2057 148.499 -51.0668 148.412 -50.9454C148.325 -50.824 148.213 -50.7229 148.084 -50.6492C147.954 -50.5756 147.81 -50.5311 147.661 -50.5188C147.512 -50.5066 147.363 -50.5269 147.223 -50.5784C146.599 -50.763 146.023 -51.0815 145.535 -51.5115C145.047 -51.9415 144.658 -52.4727 144.396 -53.0682C143.664 -54.2194 142.729 -55.2283 141.637 -56.046C141.475 -55.0285 141.603 -53.986 142.004 -53.0372C142.406 -52.0884 143.065 -51.2715 143.909 -50.6793C146.197 -48.7447 149.073 -48.4082 150.335 -49.9055C151.597 -51.4027 150.789 -54.1786 148.501 -56.1133C147.792 -56.8104 146.912 -57.3093 145.95 -57.5603C144.988 -57.8112 143.976 -57.8053 143.017 -57.5432C144.354 -56.5106 145.46 -55.2098 146.264 -53.7244Z" fill="#F4F4F4"/>
<path d="M142.965 -37.9797C142.615 -37.9994 142.265 -37.9485 141.936 -37.83C141.606 -37.7115 141.304 -37.5278 141.047 -37.29C140.866 -37.138 140.636 -37.0548 140.4 -37.0548C140.163 -37.0548 139.933 -37.138 139.752 -37.29C139.643 -37.3923 139.558 -37.517 139.503 -37.6555C139.448 -37.794 139.423 -37.9428 139.431 -38.0918C139.439 -38.2407 139.479 -38.3861 139.549 -38.5178C139.619 -38.6496 139.717 -38.7645 139.836 -38.8546C140.327 -39.2807 140.905 -39.5936 141.53 -39.771C142.155 -39.9483 142.812 -39.9858 143.453 -39.8808C144.819 -39.8632 146.176 -40.097 147.457 -40.5705C146.693 -41.2623 145.749 -41.7242 144.734 -41.9028C143.719 -42.0814 142.674 -41.9694 141.72 -41.5799C138.86 -40.7051 136.993 -38.4844 137.565 -36.5329C138.137 -34.5814 140.93 -33.8412 143.773 -34.716C144.747 -34.9241 145.648 -35.3875 146.384 -36.0585C147.12 -36.7296 147.665 -37.5842 147.962 -38.5349C146.354 -37.9995 144.651 -37.8103 142.965 -37.9797Z" fill="#F4F4F4"/>
<path d="M48.0797 68.6325V65.352H22.9792V68.6325C21.8247 68.7011 20.7398 69.2074 19.9458 70.0484C19.1517 70.8893 18.7084 72.0014 18.7061 73.158V110.169C18.7039 110.767 18.8198 111.36 19.047 111.913C19.2743 112.466 19.6086 112.969 20.0306 113.392C20.4526 113.816 20.9541 114.152 21.5063 114.381C22.0585 114.61 22.6505 114.728 23.2484 114.728H47.7936C49.0028 114.728 50.1624 114.248 51.0174 113.393C51.8724 112.538 52.3528 111.378 52.3528 110.169V73.158C52.3506 72.0014 51.9072 70.8893 51.1131 70.0484C50.3191 69.2074 49.2342 68.7011 48.0797 68.6325Z" fill="#F4F4F4"/>
<path d="M22.6277 62.4079H48.502C49.0954 62.4079 49.6645 62.6436 50.0841 63.0632C50.5037 63.4828 50.7394 64.052 50.7394 64.6454V66.681H20.4574V64.5781C20.4743 64.0079 20.7084 63.4657 21.1118 63.0623C21.5152 62.6589 22.0574 62.4248 22.6277 62.4079Z" fill="#F4F4F4"/>
<path d="M44.3617 79.5335H26.6972V88.8537H44.3617V79.5335Z" fill="#F4F4F4"/>
<path d="M28.7336 108.03C28.1279 108.232 27.7242 109.005 27.4887 109.712C27.4057 109.934 27.2472 110.12 27.0412 110.236C26.8351 110.353 26.5945 110.394 26.3615 110.351C26.2155 110.326 26.0768 110.269 25.9554 110.184C25.8339 110.099 25.7327 109.988 25.6588 109.86C25.585 109.731 25.5403 109.588 25.528 109.441C25.5157 109.293 25.536 109.144 25.5876 109.005C25.763 108.378 26.0759 107.797 26.5036 107.305C26.9314 106.813 27.4633 106.423 28.0606 106.162C29.2088 105.426 30.2123 104.485 31.0215 103.387C30.0031 103.225 28.9599 103.356 28.0129 103.764C27.066 104.172 26.2541 104.84 25.6717 105.691C23.7538 107.979 23.4174 110.856 24.9147 112.118C26.412 113.38 29.2046 112.538 31.1225 110.25C31.8196 109.538 32.3159 108.654 32.5611 107.688C32.8063 106.722 32.7918 105.708 32.5188 104.749C31.5039 106.099 30.2136 107.217 28.7336 108.03Z" fill="#F4F4F4"/>
<path d="M35.8493 100.797C35.5351 100.641 35.1922 100.552 34.842 100.535C34.4918 100.517 34.1418 100.572 33.8137 100.696C33.5835 100.754 33.3403 100.73 33.1256 100.629C32.9108 100.528 32.7379 100.355 32.6361 100.141C32.575 100.005 32.5441 99.8575 32.5457 99.7085C32.5473 99.5596 32.5813 99.4128 32.6453 99.2784C32.7093 99.1439 32.8019 99.025 32.9165 98.9299C33.0311 98.8347 33.165 98.7657 33.309 98.7276C33.9282 98.5215 34.5852 98.4538 35.2334 98.5294C35.8817 98.6049 36.5054 98.8219 37.0606 99.165C38.3233 99.6846 39.6668 99.9806 41.0309 100.04C40.5789 99.1113 39.8762 98.3277 39.0021 97.7777C38.1281 97.2277 37.1175 96.9332 36.0848 96.9275C33.1239 96.6415 30.55 97.9874 30.3649 99.9389C30.1799 101.89 32.4342 103.707 35.4119 103.993C36.3939 104.162 37.4029 104.071 38.3386 103.729C39.2743 103.386 40.1039 102.805 40.7449 102.042C39.043 101.981 37.3738 101.556 35.8493 100.797Z" fill="#F4F4F4"/>
<path d="M47.5758 104.261C47.6968 103.932 47.7488 103.581 47.7286 103.231C47.7083 102.881 47.6162 102.539 47.458 102.226C47.3784 102.004 47.3785 101.762 47.4584 101.541C47.5383 101.32 47.6928 101.134 47.8954 101.014C48.0211 100.935 48.163 100.885 48.3106 100.868C48.4582 100.851 48.6078 100.867 48.7482 100.916C48.8887 100.964 49.0165 101.043 49.1222 101.148C49.228 101.252 49.3089 101.379 49.359 101.519C49.6376 102.108 49.782 102.752 49.782 103.403C49.782 104.055 49.6376 104.698 49.359 105.287C48.9685 106.595 48.8202 107.964 48.9216 109.325C49.7961 108.781 50.4997 108.002 50.952 107.076C51.4042 106.151 51.5868 105.117 51.4787 104.093C51.4787 101.098 49.7964 98.6926 47.8617 98.7263C45.927 98.7599 44.3288 101.199 44.3793 104.177C44.3174 105.164 44.5166 106.15 44.9566 107.036C45.3966 107.922 46.062 108.677 46.886 109.224C46.7655 107.54 47.0005 105.849 47.5758 104.261Z" fill="#F4F4F4"/>
<path d="M26.5307 95.4971C26.2874 95.7511 26.0991 96.0524 25.9775 96.3824C25.8559 96.7124 25.8037 97.0639 25.8241 97.415C25.8023 97.6503 25.7001 97.8708 25.5346 98.0393C25.3691 98.2079 25.1505 98.3142 24.9157 98.3403C24.7687 98.3609 24.6189 98.3482 24.4774 98.3032C24.3359 98.2583 24.2063 98.1821 24.0982 98.0804C23.99 97.9787 23.9061 97.854 23.8525 97.7156C23.7989 97.5771 23.777 97.4285 23.7885 97.2804C23.7881 96.6411 23.9262 96.0092 24.1934 95.4284C24.4606 94.8475 24.8505 94.3315 25.3363 93.9158C26.2371 92.8844 26.9337 91.6912 27.3887 90.3997C26.3673 90.5457 25.4069 90.9744 24.6162 91.6373C23.8254 92.3002 23.2358 93.171 22.9137 94.1513C21.7361 96.8935 22.2408 99.7366 24.0409 100.527C25.841 101.318 28.2636 99.703 29.4412 96.9608C29.9026 96.0789 30.1252 95.0915 30.0868 94.0969C30.0485 93.1023 29.7505 92.1351 29.2225 91.2913C28.6266 92.8648 27.71 94.2971 26.5307 95.4971Z" fill="#F4F4F4"/>
<path d="M41.8573 93.6803C42.0365 93.9927 42.2786 94.2646 42.5681 94.4789C42.8577 94.6932 43.1884 94.8451 43.5396 94.9252C43.7596 95.0109 43.9433 95.1698 44.0597 95.3751C44.1762 95.5804 44.2182 95.8196 44.1789 96.0524C44.1514 96.199 44.0923 96.3378 44.0056 96.4592C43.9189 96.5807 43.8068 96.6817 43.6771 96.7554C43.5474 96.8291 43.4032 96.8736 43.2545 96.8858C43.1058 96.898 42.9562 96.8777 42.8162 96.8262C42.1925 96.6416 41.6165 96.3232 41.1284 95.8932C40.6402 95.4632 40.2517 94.9319 39.9899 94.3364C39.2577 93.1852 38.3229 92.1763 37.2309 91.3586C37.0689 92.3761 37.196 93.4186 37.5975 94.3674C37.999 95.3162 38.6589 96.1332 39.502 96.7253C41.79 98.6431 44.6668 98.9964 45.9286 97.4992C47.1903 96.0019 46.3828 93.226 44.0948 91.2914C43.3855 90.5942 42.5058 90.0953 41.5435 89.8443C40.5811 89.5934 39.5698 89.5993 38.6104 89.8614C39.9485 90.8925 41.0548 92.1937 41.8573 93.6803Z" fill="#F4F4F4"/>
<path d="M38.5757 109.427C38.2233 109.405 37.8701 109.455 37.5376 109.573C37.205 109.692 36.9 109.877 36.641 110.117C36.4636 110.271 36.2366 110.355 36.0017 110.355C35.7668 110.355 35.5399 110.271 35.3624 110.117C35.2514 110.018 35.1641 109.895 35.107 109.757C35.0499 109.62 35.0245 109.471 35.0326 109.323C35.0406 109.174 35.0821 109.029 35.1537 108.899C35.2254 108.768 35.3254 108.656 35.4465 108.569C35.9371 108.143 36.5155 107.83 37.1406 107.653C37.7657 107.475 38.4223 107.438 39.0636 107.543C40.4291 107.559 41.7861 107.325 43.0675 106.853C42.3 106.162 41.3533 105.7 40.3357 105.522C39.3182 105.343 38.271 105.455 37.3139 105.844C34.454 106.718 32.6034 108.939 33.1754 110.891C33.7474 112.842 36.54 113.582 39.3832 112.724C40.3537 112.508 41.2509 112.042 41.9857 111.372C42.7205 110.702 43.2675 109.852 43.5722 108.906C41.9617 109.428 40.2593 109.605 38.5757 109.427Z" fill="#F4F4F4"/>
<path d="M95.9595 35.2545C95.4884 35.406 95.1857 36.0116 95.0006 36.5163C94.9392 36.6902 94.8165 36.8357 94.6554 36.9256C94.4943 37.0154 94.306 37.0434 94.1258 37.0042C94.0128 36.9839 93.9056 36.9393 93.8116 36.8735C93.7176 36.8076 93.639 36.7221 93.5814 36.6229C93.5238 36.5236 93.4884 36.413 93.4778 36.2987C93.4673 36.1845 93.4817 36.0693 93.5201 35.9611C93.6621 35.4773 93.907 35.0299 94.238 34.6495C94.5691 34.2691 94.9784 33.9647 95.438 33.7572C96.333 33.1884 97.1145 32.4582 97.7428 31.6039C96.9512 31.4865 96.1426 31.5928 95.4083 31.911C94.6739 32.2291 94.0432 32.7462 93.5874 33.404C92.1069 35.1704 91.9051 37.4079 93.0154 38.451C94.1258 39.494 96.3801 38.7706 97.8101 36.9873C98.3517 36.441 98.7384 35.7605 98.9305 35.0156C99.1227 34.2706 99.1134 33.488 98.9036 32.7479C98.1123 33.7839 97.1085 34.6386 95.9595 35.2545Z" fill="#F4F4F4"/>
<path d="M101.494 29.6671C101.241 29.5621 100.969 29.508 100.695 29.508C100.421 29.508 100.149 29.5621 99.8957 29.6671C99.7194 29.7104 99.5335 29.6903 99.3705 29.6103C99.2075 29.5304 99.0778 29.3957 99.0041 29.2297C98.953 29.1251 98.9262 29.0102 98.9257 28.8938C98.9252 28.7773 98.9509 28.6622 99.0011 28.5571C99.0512 28.452 99.1244 28.3596 99.2152 28.2867C99.306 28.2138 99.4121 28.1624 99.5256 28.1362C100.002 27.9719 100.51 27.9168 101.011 27.975C101.512 28.0333 101.993 28.2033 102.419 28.4727C103.397 28.8797 104.44 29.1077 105.498 29.1456C105.149 28.4281 104.607 27.8226 103.932 27.3974C103.257 26.9722 102.477 26.7445 101.679 26.7399C99.3742 26.5212 97.3723 27.5642 97.2377 29.0783C97.1031 30.5924 98.8359 32.0056 101.157 32.2243C101.917 32.3541 102.697 32.2827 103.42 32.017C104.144 31.7514 104.784 31.3008 105.279 30.7102C103.956 30.6475 102.663 30.2912 101.494 29.6671Z" fill="#F4F4F4"/>
<path d="M110.579 32.3419C110.675 32.0862 110.715 31.813 110.698 31.5404C110.68 31.2679 110.605 31.0021 110.478 30.7606C110.416 30.5864 110.415 30.3961 110.476 30.2215C110.538 30.047 110.657 29.8988 110.814 29.8016C110.914 29.7426 111.025 29.7062 111.14 29.6949C111.255 29.6836 111.372 29.6977 111.481 29.7362C111.59 29.7747 111.689 29.8367 111.772 29.9177C111.854 29.9988 111.918 30.097 111.958 30.2054C112.176 30.6596 112.289 31.1569 112.289 31.6606C112.289 32.1643 112.176 32.6617 111.958 33.1158C111.651 34.1342 111.536 35.2013 111.622 36.2618C112.298 35.8345 112.842 35.2273 113.193 34.5082C113.544 33.7891 113.687 32.9866 113.607 32.1905C113.607 29.8857 112.312 28.0183 110.798 28.0352C109.283 28.052 108.072 29.953 108.089 32.2747C108.04 33.0444 108.194 33.8136 108.537 34.5047C108.879 35.1957 109.398 35.7844 110.04 36.2113C109.933 34.8976 110.117 33.5765 110.579 32.3419Z" fill="#F4F4F4"/>
<path d="M94.2618 25.5294C94.0744 25.7261 93.9286 25.9587 93.8332 26.2131C93.7378 26.4675 93.6948 26.7385 93.7066 27.0099C93.6963 27.1944 93.6217 27.3695 93.4956 27.5048C93.3696 27.64 93.2002 27.7268 93.0168 27.7501C92.9018 27.7627 92.7853 27.7499 92.6758 27.7126C92.5662 27.6752 92.4662 27.6143 92.3828 27.5341C92.2993 27.4539 92.2345 27.3563 92.1929 27.2483C92.1513 27.1403 92.134 27.0244 92.142 26.909C92.1292 26.4047 92.2298 25.904 92.4366 25.4439C92.6433 24.9838 92.9509 24.5761 93.3365 24.2509C94.0648 23.4635 94.6358 22.5442 95.0188 21.5423C94.2258 21.6453 93.4787 21.9722 92.8649 22.4847C92.2511 22.9972 91.7961 23.6741 91.5532 24.4359C90.6279 26.5557 91.0149 28.7764 92.4112 29.382C93.8076 29.9876 95.6918 28.7427 96.6002 26.6061C96.9622 25.9275 97.1374 25.1649 97.1079 24.3963C97.0783 23.6278 96.845 22.8809 96.432 22.2321C95.958 23.4765 95.2173 24.602 94.2618 25.5294Z" fill="#F4F4F4"/>
<path d="M106.137 24.1158C106.271 24.355 106.451 24.5648 106.668 24.7324C106.885 24.9001 107.134 25.0222 107.399 25.0916C107.571 25.1559 107.714 25.2792 107.803 25.4394C107.893 25.5996 107.922 25.7864 107.887 25.9664C107.87 26.0808 107.827 26.1899 107.762 26.2853C107.697 26.3808 107.61 26.4599 107.51 26.5168C107.409 26.5736 107.296 26.6067 107.181 26.6133C107.065 26.62 106.95 26.6001 106.843 26.5552C106.359 26.4195 105.911 26.1767 105.532 25.8448C105.154 25.5129 104.854 25.1003 104.656 24.6373C104.091 23.7401 103.367 22.9534 102.52 22.3157C102.396 23.1067 102.495 23.9167 102.807 24.654C103.12 25.3913 103.632 26.0266 104.286 26.4879C105.969 27.9852 108.273 28.1702 109.333 27.0936C110.393 26.0169 109.67 23.7289 107.903 22.2821C107.354 21.739 106.672 21.3504 105.924 21.1555C105.177 20.9605 104.392 20.9661 103.647 21.1717C104.676 21.9663 105.524 22.9696 106.137 24.1158Z" fill="#F4F4F4"/>
<path d="M103.599 36.3971C103.326 36.3807 103.052 36.42 102.795 36.5125C102.538 36.6051 102.302 36.749 102.102 36.9354C101.965 37.0584 101.789 37.1265 101.605 37.1265C101.422 37.1265 101.245 37.0584 101.109 36.9354C101.021 36.8628 100.95 36.7716 100.901 36.6684C100.853 36.5651 100.827 36.4524 100.827 36.3382C100.827 36.224 100.853 36.1113 100.901 36.008C100.95 35.9048 101.021 35.8136 101.109 35.741C101.488 35.4067 101.937 35.162 102.424 35.0251C102.91 34.8883 103.421 34.8627 103.918 34.9503C104.981 34.9517 106.035 34.7637 107.031 34.3951C106.433 33.8652 105.699 33.5122 104.911 33.3755C104.124 33.2389 103.314 33.3239 102.573 33.6212C100.352 34.2942 98.9219 36.027 99.3594 37.4738C99.7968 38.9206 101.967 39.5599 104.171 38.8869C104.926 38.7253 105.624 38.366 106.195 37.8458C106.765 37.3255 107.187 36.663 107.418 35.926C106.194 36.3597 104.891 36.5204 103.599 36.3971Z" fill="#F4F4F4"/>
<path d="M55.6174 -78.7767V-82.1413H37.2463V-78.7767C36.0917 -78.7081 35.0068 -78.2018 34.2128 -77.3609C33.4188 -76.5199 32.9754 -75.4078 32.9731 -74.2512V-37.2399C32.9709 -36.6419 33.0868 -36.0495 33.3141 -35.4964C33.5413 -34.9434 33.8756 -34.4407 34.2976 -34.0171C34.7196 -33.5935 35.2211 -33.2574 35.7733 -33.0281C36.3255 -32.7988 36.9175 -32.6807 37.5154 -32.6807H55.3313C56.5405 -32.6807 57.7001 -33.1611 58.5551 -34.0161C59.4101 -34.8711 59.8905 -36.0307 59.8905 -37.2399V-74.2512C59.8882 -75.4078 59.4449 -76.5199 58.6508 -77.3609C57.8568 -78.2018 56.7719 -78.7081 55.6174 -78.7767Z" fill="#F4F4F4"/>
<path d="M36.8929 -85H55.9706C56.564 -85 57.1332 -84.7643 57.5528 -84.3446C57.9724 -83.925 58.2081 -83.3559 58.2081 -82.7625V-80.6596H34.6554V-82.7625C34.6554 -83.0563 34.7133 -83.3473 34.8258 -83.6187C34.9382 -83.8902 35.103 -84.1369 35.3108 -84.3446C35.5186 -84.5524 35.7652 -84.7172 36.0367 -84.8297C36.3082 -84.9421 36.5991 -85 36.8929 -85Z" fill="#F4F4F4"/>
<path d="M42.5964 -41.9834C42.2858 -41.8018 42.0154 -41.5591 41.8014 -41.2699C41.5874 -40.9807 41.4343 -40.6511 41.3515 -40.3011C41.2685 -40.0792 41.1101 -39.8936 40.904 -39.7767C40.698 -39.6598 40.4573 -39.6191 40.2243 -39.6618C40.0783 -39.6871 39.9397 -39.7442 39.8182 -39.8292C39.6968 -39.9141 39.5955 -40.0247 39.5217 -40.1532C39.4478 -40.2817 39.4031 -40.4248 39.3908 -40.5725C39.3785 -40.7201 39.3988 -40.8687 39.4504 -41.0076C39.6258 -41.6354 39.9387 -42.2162 40.3664 -42.708C40.7942 -43.1998 41.3261 -43.5901 41.9234 -43.8508C43.0757 -44.5822 44.0802 -45.5239 44.8844 -46.6266C43.8662 -46.7837 42.8243 -46.6508 41.8782 -46.2432C40.932 -45.8356 40.1198 -45.1697 39.5346 -44.3218C37.6167 -42.0171 37.2802 -39.1403 38.7775 -37.8953C40.2748 -36.6504 43.0674 -37.4747 44.9853 -39.7627C45.6825 -40.4716 46.179 -41.3528 46.4243 -42.3163C46.6696 -43.2798 46.6549 -44.2912 46.3816 -45.2471C45.3619 -43.9065 44.0724 -42.7947 42.5964 -41.9834Z" fill="#F4F4F4"/>
<path d="M49.7122 -49.2158C49.3907 -49.3542 49.0443 -49.4255 48.6943 -49.4255C48.3443 -49.4255 47.998 -49.3542 47.6766 -49.2158C47.4445 -49.1623 47.201 -49.1899 46.9868 -49.294C46.7726 -49.3981 46.6004 -49.5723 46.4989 -49.7878C46.4378 -49.9236 46.4069 -50.0711 46.4085 -50.22C46.4101 -50.3689 46.4442 -50.5157 46.5082 -50.6502C46.5722 -50.7846 46.6647 -50.9035 46.7793 -50.9986C46.8939 -51.0938 47.0279 -51.1628 47.1718 -51.2009C47.7911 -51.4071 48.448 -51.4747 49.0962 -51.3992C49.7445 -51.3236 50.3683 -51.1066 50.9235 -50.7635C52.1806 -50.2263 53.5272 -49.9296 54.8937 -49.8887C54.4417 -50.8172 53.739 -51.6008 52.8649 -52.1508C51.9909 -52.7008 50.9804 -52.9953 49.9477 -53.001C46.9868 -53.287 44.4128 -51.9243 44.2277 -49.9728C44.0427 -48.0213 46.297 -46.2212 49.2747 -45.9352C50.2552 -45.7626 51.2639 -45.8505 52.1998 -46.19C53.1357 -46.5295 53.966 -47.1088 54.6078 -47.8699C52.8982 -47.962 51.2285 -48.421 49.7122 -49.2158Z" fill="#F4F4F4"/>
<path d="M40.3935 -54.4478C40.1502 -54.1939 39.9619 -53.8925 39.8403 -53.5625C39.7188 -53.2325 39.6666 -52.881 39.687 -52.5299C39.6658 -52.2928 39.5641 -52.07 39.3989 -51.8986C39.2336 -51.7273 39.0147 -51.6176 38.7785 -51.5878C38.6306 -51.57 38.4805 -51.5852 38.3391 -51.6323C38.1978 -51.6794 38.0685 -51.7572 37.9608 -51.8601C37.853 -51.963 37.7694 -52.0885 37.7159 -52.2276C37.6624 -52.3667 37.6403 -52.5159 37.6513 -52.6645C37.6507 -53.3056 37.7905 -53.939 38.0608 -54.5202C38.3311 -55.1015 38.7253 -55.6166 39.2159 -56.0292C40.1007 -57.0628 40.7904 -58.2484 41.2515 -59.5284C40.2307 -59.3875 39.2699 -58.9627 38.4787 -58.3024C37.6875 -57.6421 37.0978 -56.7728 36.7765 -55.7937C35.5989 -53.0514 36.1036 -50.1915 37.9037 -49.4176C39.7038 -48.6437 42.1264 -50.2419 43.304 -52.9841C43.7656 -53.863 43.9884 -54.8477 43.95 -55.8397C43.9116 -56.8317 43.6134 -57.7962 43.0853 -58.6368C42.4896 -57.0682 41.5727 -55.6414 40.3935 -54.4478Z" fill="#F4F4F4"/>
<path d="M52.4385 -40.5686C52.0861 -40.5905 51.733 -40.5407 51.4004 -40.4222C51.0678 -40.3036 50.7628 -40.1187 50.5038 -39.8788C50.3235 -39.7312 50.0976 -39.6506 49.8645 -39.6506C49.6315 -39.6506 49.4056 -39.7312 49.2252 -39.8788C49.114 -39.9796 49.0266 -40.1039 48.9695 -40.2427C48.9124 -40.3814 48.8869 -40.5312 48.895 -40.6811C48.903 -40.831 48.9444 -40.9772 49.0161 -41.109C49.0878 -41.2409 49.188 -41.3551 49.3094 -41.4434C49.8008 -41.8676 50.3797 -42.178 51.005 -42.3525C51.6303 -42.527 52.2864 -42.5613 52.9264 -42.4528C54.2919 -42.4544 55.6468 -42.6935 56.9304 -43.1593C56.1609 -43.8474 55.2142 -44.3065 54.1975 -44.4849C53.1808 -44.6632 52.1345 -44.5537 51.1768 -44.1687C48.3168 -43.2939 46.4662 -41.0733 47.0382 -39.1217C47.6102 -37.1702 50.4029 -36.43 53.246 -37.3048C54.2187 -37.5162 55.1183 -37.9807 55.8538 -38.6512C56.5894 -39.3218 57.1348 -40.1747 57.435 -41.1237C55.8266 -40.5918 54.1245 -40.4026 52.4385 -40.5686Z" fill="#F4F4F4"/>
<path d="M55.5006 -63.8361H37.8361V-54.516H55.5006V-63.8361Z" fill="#F4F4F4"/>
<path d="M200.333 -51.4386C199.156 -55.8632 195.791 -67.2862 191.215 -67.2862H176.074C171.498 -67.2862 168.133 -55.8632 166.956 -51.4386C166.199 -48.6291 166.384 -42.068 166.619 -37.4753C166.697 -36.1497 167.278 -34.904 168.245 -33.9937C169.212 -33.0834 170.49 -32.5774 171.818 -32.5797H195.471C196.802 -32.5777 198.083 -33.0859 199.05 -33.9998C200.017 -34.9137 200.596 -36.1636 200.67 -37.4921C200.905 -42.068 201.09 -48.6291 200.333 -51.4386Z" fill="#F4F4F4"/>
<path d="M185.192 -51.4386C184.015 -55.8632 180.65 -67.2862 176.074 -67.2862C171.498 -67.2862 168.133 -55.8632 166.956 -51.4386C166.199 -48.6291 166.384 -42.068 166.619 -37.4753C166.697 -36.1497 167.278 -34.904 168.245 -33.9937C169.212 -33.0834 170.49 -32.5774 171.818 -32.5797H180.33C181.661 -32.5777 182.941 -33.0859 183.909 -33.9998C184.876 -34.9137 185.455 -36.1636 185.529 -37.4921C185.764 -42.068 185.949 -48.6291 185.192 -51.4386Z" fill="#F4F4F4"/>
<path d="M191.214 -71.5249H176.073V-67.3022H191.214V-71.5249Z" fill="#F4F4F4"/>
<path d="M198.785 -50.2263H187.564V-45.0447H198.785V-50.2263Z" fill="#F4F4F4"/>
<path d="M106.105 -51.4386C104.927 -55.8632 101.545 -67.2862 96.9864 -67.2862H81.8454C77.2694 -67.2862 73.9048 -55.8632 72.7103 -51.4386C71.9701 -48.6291 72.1383 -42.068 72.3907 -37.4753C72.4639 -36.1467 73.0437 -34.8968 74.0108 -33.983C74.9778 -33.0691 76.2585 -32.5608 77.5891 -32.5629H101.142C102.472 -32.5608 103.753 -33.0691 104.72 -33.983C105.687 -34.8968 106.267 -36.1467 106.34 -37.4753C106.677 -42.068 106.862 -48.6291 106.105 -51.4386Z" fill="#F4F4F4"/>
<path d="M90.9636 -51.4386C89.786 -55.8632 86.4045 -67.2862 81.8454 -67.2862C77.2862 -67.2862 73.9048 -55.8632 72.7103 -51.4386C71.9701 -48.6291 72.1383 -42.068 72.3907 -37.4753C72.4639 -36.1467 73.0437 -34.8968 74.0108 -33.983C74.9778 -33.0691 76.2585 -32.5608 77.5891 -32.5629H86.0007C87.3313 -32.5608 88.612 -33.0691 89.579 -33.983C90.5461 -34.8968 91.1259 -36.1467 91.1991 -37.4753C91.5356 -42.068 91.7206 -48.6291 90.9636 -51.4386Z" fill="#F4F4F4"/>
<path d="M96.9872 -71.5249H81.8462V-67.3022H96.9872V-71.5249Z" fill="#F4F4F4"/>
<path d="M104.558 -50.2263H93.3367V-45.0447H104.558V-50.2263Z" fill="#F4F4F4"/>
<path d="M237.345 -51.4386C236.167 -55.8632 232.802 -67.2862 228.226 -67.2862H213.085C208.509 -67.2862 205.145 -55.8632 203.967 -51.4386C203.21 -48.6291 203.395 -42.068 203.631 -37.4753C203.708 -36.1497 204.29 -34.904 205.256 -33.9937C206.223 -33.0834 207.501 -32.5774 208.829 -32.5797H232.483C233.813 -32.5777 235.094 -33.0859 236.061 -33.9998C237.028 -34.9137 237.608 -36.1636 237.681 -37.4921C237.917 -42.068 238.102 -48.6291 237.345 -51.4386Z" fill="#F4F4F4"/>
<path d="M222.204 -51.4386C221.026 -55.8632 217.661 -67.2862 213.085 -67.2862C208.509 -67.2862 205.145 -55.8632 203.967 -51.4386C203.21 -48.6291 203.395 -42.068 203.631 -37.4753C203.708 -36.1497 204.29 -34.904 205.256 -33.9937C206.223 -33.0834 207.501 -32.5774 208.829 -32.5797H217.342C218.672 -32.5777 219.953 -33.0859 220.92 -33.9998C221.887 -34.9137 222.467 -36.1636 222.54 -37.4921C222.776 -42.068 222.961 -48.6291 222.204 -51.4386Z" fill="#F4F4F4"/>
<path d="M228.226 -71.5249H213.085V-67.3022H228.226V-71.5249Z" fill="#F4F4F4"/>
<path d="M235.796 -50.2263H224.575V-45.0447H235.796V-50.2263Z" fill="#F4F4F4"/>
<path d="M117.95 93.3623C119.38 87.9957 123.485 74.0659 129.053 74.0659H147.559C153.128 74.0659 157.216 87.9957 158.662 93.3623C159.571 96.727 159.352 104.785 159.066 110.388C158.976 112.006 158.267 113.528 157.087 114.639C155.907 115.751 154.345 116.367 152.724 116.36H123.872C122.247 116.38 120.678 115.775 119.487 114.669C118.297 113.564 117.578 112.043 117.479 110.421C117.243 104.785 117.025 96.8111 117.95 93.3623Z" fill="#F4F4F4"/>
<path d="M136.385 93.3623C137.815 87.9957 141.92 74.0659 147.489 74.0659C153.057 74.0659 157.145 87.9957 158.592 93.3623C159.501 96.727 159.282 104.785 158.996 110.388C158.905 112.006 158.197 113.528 157.017 114.639C155.837 115.751 154.275 116.367 152.654 116.36H142.307C140.693 116.367 139.138 115.755 137.961 114.651C136.785 113.546 136.076 112.032 135.982 110.421C135.679 104.785 135.46 96.8111 136.385 93.3623Z" fill="#F4F4F4"/>
<path d="M129.035 74.0659H147.474V68.918H129.035V74.0659Z" fill="#F4F4F4"/>
<path d="M119.816 101.184H133.476V94.875H119.816V101.184Z" fill="#F4F4F4"/>
<path d="M72.88 93.3623C74.3099 87.9957 78.4148 74.0659 83.9834 74.0659H102.489C108.058 74.0659 112.162 87.9957 113.592 93.3623C114.518 96.727 114.299 104.785 113.996 110.388C113.906 112.006 113.197 113.528 112.017 114.639C110.837 115.751 109.275 116.367 107.654 116.36H78.785C77.1668 116.362 75.6091 115.745 74.4325 114.634C73.2559 113.523 72.5498 112.003 72.4594 110.388C72.1734 104.785 71.9547 96.8111 72.88 93.3623Z" fill="#F4F4F4"/>
<path d="M91.3165 93.3623C92.7465 87.9957 96.8514 74.0659 102.42 74.0659C107.988 74.0659 112.093 87.9957 113.523 93.3623C114.449 96.727 114.23 104.785 113.927 110.388C113.837 112.006 113.128 113.528 111.948 114.639C110.768 115.751 109.206 116.367 107.585 116.36H97.2888C95.6706 116.362 94.1129 115.745 92.9363 114.634C91.7597 113.523 91.0536 112.003 90.9632 110.388C90.5594 104.785 90.3912 96.8111 91.3165 93.3623Z" fill="#F4F4F4"/>
<path d="M83.9834 74.0659H102.422V68.918H83.9836L83.9834 74.0659Z" fill="#F4F4F4"/>
<path d="M74.7638 101.184H88.4244V94.875H74.7638V101.184Z" fill="#F4F4F4"/>
<path d="M171.094 11.1619C169.877 10.9016 168.608 11.0804 167.511 11.6666V9.7824H133.999V22.7364C133.997 25.577 134.719 28.3712 136.096 30.8554C137.474 33.3397 139.462 35.4321 141.872 36.9353L140.61 41.1411H160.882L159.62 36.9353C162.555 35.0994 164.852 32.4028 166.198 29.2134C166.342 29.2921 166.495 29.3542 166.653 29.3984C170.219 30.2732 174.105 26.8917 175.333 21.8616C176.562 16.8314 174.677 12.0872 171.094 11.1619ZM173.281 21.3569C172.44 24.7215 169.799 27.0936 167.359 26.5048C167.261 26.4728 167.165 26.4334 167.073 26.3871C167.356 25.1906 167.503 23.9659 167.511 22.7364V14.6948C167.926 14.4094 168.396 14.2115 168.89 14.1131C169.385 14.0148 169.894 14.0181 170.387 14.1228C172.827 14.7116 174.122 17.9922 173.281 21.4242V21.3569Z" fill="#F4F4F4"/>
<path d="M218.418 11.1619C217.202 10.9016 215.932 11.0804 214.835 11.6666V9.7824H181.239V22.7364C181.237 25.577 181.959 28.3712 183.336 30.8554C184.714 33.3397 186.702 35.4321 189.112 36.9353L187.85 41.1411H208.139L206.861 36.9353C209.795 35.0994 212.093 32.4028 213.438 29.2134C213.584 29.2894 213.736 29.3513 213.893 29.3984C217.459 30.2732 221.345 26.8917 222.574 21.8616C223.802 16.8314 221.901 12.0872 218.418 11.1619ZM220.605 21.3569C219.764 24.7215 217.123 27.0936 214.683 26.5048C214.585 26.4728 214.49 26.4334 214.397 26.3871C214.68 25.1906 214.827 23.9659 214.835 22.7364V14.6948C215.25 14.4094 215.72 14.2115 216.214 14.1131C216.709 14.0148 217.218 14.0181 217.712 14.1228C220.1 14.7116 221.362 17.9922 220.521 21.4242L220.605 21.3569Z" fill="#F4F4F4"/>
<path d="M60.4641 11.1619C59.2475 10.9016 57.9781 11.0804 56.8808 11.6666V9.7824H23.3687V22.7364C23.367 25.577 24.089 28.3712 25.4665 30.8554C26.844 33.3397 28.8317 35.4321 31.242 36.9353L29.9802 41.1411H50.2692L48.9906 36.9353C51.9255 35.0994 54.2226 32.4028 55.5686 29.2134C55.7137 29.2894 55.8658 29.3513 56.0228 29.3984C59.5893 30.2732 63.4755 26.8917 64.7036 21.8616C65.9317 16.8314 64.0307 12.0872 60.4641 11.1619ZM62.6512 21.3569C61.81 24.7215 59.1688 27.0936 56.7294 26.5048C56.6312 26.4728 56.5356 26.4334 56.4434 26.3871C56.7264 25.1906 56.8731 23.9659 56.8808 22.7364V14.6948C57.2964 14.4094 57.7658 14.2115 58.2604 14.1131C58.7549 14.0148 59.2643 14.0181 59.7576 14.1228C62.1969 14.7116 63.4923 17.9922 62.6512 21.4242V21.3569Z" fill="#F4F4F4"/>
<path d="M193.736 114.693H169.157L166.18 66.1406H196.714L193.736 114.693Z" fill="#F4F4F4"/>
<path d="M199.475 68.9849H163.423L164.903 62.306H197.978L199.475 68.9849Z" fill="#F4F4F4"/>
<path d="M194.58 100.948L195.993 77.9169H166.906L168.319 100.948H194.58Z" fill="#F4F4F4"/>
<path d="M188.254 88.938C188.271 90.2891 187.885 91.6145 187.147 92.746C186.408 93.8775 185.35 94.7639 184.107 95.2925C182.863 95.8211 181.491 95.9681 180.164 95.7148C178.836 95.4615 177.615 94.8193 176.653 93.8698C175.692 92.9204 175.035 91.7066 174.765 90.3826C174.495 89.0587 174.625 87.6845 175.138 86.4346C175.651 85.1846 176.524 84.1155 177.647 83.3631C178.769 82.6106 180.089 82.2088 181.44 82.2087C182.331 82.1976 183.215 82.3634 184.042 82.6966C184.868 83.0298 185.619 83.5237 186.253 84.1497C186.887 84.7757 187.39 85.5213 187.734 86.3433C188.077 87.1652 188.254 88.0472 188.254 88.938Z" fill="#F4F4F4"/>
<path d="M232.581 114.693H208.002L205.025 66.1406H235.559L232.581 114.693Z" fill="#F4F4F4"/>
<path d="M238.32 68.9849H202.268L203.748 62.306H236.823L238.32 68.9849Z" fill="#F4F4F4"/>
<path d="M233.425 100.948L234.838 77.9169H205.751L207.164 100.948H233.425Z" fill="#F4F4F4"/>
<path d="M227.099 88.938C227.115 90.2891 226.73 91.6145 225.992 92.746C225.253 93.8775 224.195 94.7639 222.951 95.2925C221.708 95.8211 220.336 95.9681 219.008 95.7148C217.681 95.4615 216.459 94.8193 215.498 93.8698C214.537 92.9204 213.879 91.7066 213.61 90.3826C213.34 89.0587 213.47 87.6845 213.983 86.4346C214.496 85.1846 215.369 84.1155 216.491 83.3631C217.614 82.6106 218.934 82.2088 220.285 82.2087C221.176 82.1976 222.06 82.3634 222.886 82.6966C223.713 83.0298 224.464 83.5237 225.098 84.1497C225.732 84.7757 226.235 85.5213 226.579 86.3433C226.922 87.1652 227.099 88.0472 227.099 88.938Z" fill="#F4F4F4"/>
</svg>
