<svg width="21" height="27" viewBox="0 0 21 27" fill="none" xmlns="http://www.w3.org/2000/svg">
<path d="M2.24915 7.2511L4.4585 5.04175L6.66784 7.2511C7.36634 7.94959 7.71558 8.29883 7.89954 8.74295C8.0835 9.18706 8.0835 9.68097 8.0835 10.6688V25.5834H5.66683C3.38837 25.5834 2.24915 25.5834 1.54132 24.8756C0.833496 24.1678 0.833496 23.0285 0.833496 20.7501V10.6688C0.833496 9.68097 0.833496 9.18706 1.01745 8.74295C1.20141 8.29883 1.55066 7.94959 2.24915 7.2511Z" stroke="#626262" stroke-width="1.25"/>
<path d="M4.4585 5.04633V4.5636C4.4585 3.08448 4.4585 2.34491 4.91858 1.88541C5.37867 1.4259 6.11917 1.4259 7.60016 1.4259H14.3106C15.1642 1.4259 16.2718 1.28974 16.8424 2.06763C17.4484 2.89385 16.9304 4.02929 17.1929 4.94248C17.2728 5.22014 17.4699 5.43457 17.6515 5.65218L20.1668 8.66675" stroke="#626262" stroke-width="1.25" stroke-linecap="round"/>
<path d="M8.0835 8.66675H20.1668V20.7501C20.1668 23.0285 20.1668 24.1678 19.459 24.8756C18.7512 25.5834 17.612 25.5834 15.3335 25.5834H8.0835" stroke="#626262" stroke-width="1.25" stroke-linejoin="round"/>
</svg>
