<svg width="24" height="16" viewBox="0 0 24 16" fill="none" xmlns="http://www.w3.org/2000/svg">
<path d="M20.9942 13.8488L12.9793 15.2427C12.164 15.3845 11.3892 14.8352 11.2532 14.0189C11.1147 13.1881 10.316 12.6368 9.49004 12.802L7.27016 13.246C6.56867 13.3863 5.88627 12.9313 5.74597 12.2298C5.60886 11.5443 4.95247 11.0913 4.26287 11.2062L4 11.25C3.16386 11.3894 2.36801 10.84 2.20177 10.0088L1.40008 6.00038C1.18041 4.90207 1.90546 3.83748 3.00791 3.63961L18.5557 0.848977C19.6334 0.655547 20.6663 1.36462 20.873 2.43983L22.6155 11.5007C22.8267 12.5991 22.0961 13.6572 20.9942 13.8488Z" stroke="#7E7E7E" stroke-width="1.25"/>
</svg>
