<svg width="20" height="20" viewBox="0 0 20 20" fill="none" xmlns="http://www.w3.org/2000/svg">
<path d="M11.435 5L5.15915 11.2759M5.15915 11.2759L2.82728 13.6077C1.92569 14.5093 1.47489 14.9601 1.23745 15.5334C1 16.1066 1 16.7441 1 18.0192V19H1.98082C3.25586 19 3.89338 19 4.46663 18.7626C5.03988 18.5251 5.49068 18.0743 6.39227 17.1727L12.2891 11.2759M5.15915 11.2759H12.2891M12.2891 11.2759L15 8.56499" stroke="#171717" stroke-width="1.25" stroke-linecap="round" stroke-linejoin="round"/>
<path d="M17.2087 6.38869L18.82 8M17.2087 6.38869L18.0705 5.52682C18.363 5.23431 18.5093 5.08805 18.611 4.94529C19.1297 4.21676 19.1297 3.23953 18.611 2.511C18.5093 2.36824 18.363 2.22198 18.0705 1.92947C17.778 1.63697 17.6318 1.4907 17.489 1.38905C16.7605 0.870318 15.7832 0.870318 15.0547 1.38905C14.912 1.4907 14.7657 1.63695 14.4732 1.92947L13.6113 2.79133M17.2087 6.38869L13.6113 2.79133M12 1.18002L13.6113 2.79133" stroke="#171717" stroke-width="1.25" stroke-linecap="round" stroke-linejoin="round"/>
</svg>
