<svg width="24" height="24" viewBox="0 0 24 24" fill="none" xmlns="http://www.w3.org/2000/svg">
<g id="Clip path group">
<mask id="mask0_186_3606" style="mask-type:luminance" maskUnits="userSpaceOnUse" x="0" y="0" width="24" height="24">
<g id="clip-path-10">
<path id="Rectangle 39543" d="M24 0H0V24H24V0Z" fill="white"/>
</g>
</mask>
<g mask="url(#mask0_186_3606)">
<g id="Mask Group 117">
<g id="Group 261">
<g id="Group 260">
<path id="Path 804" d="M2 19.502C2 18.1759 2.52678 16.9041 3.46447 15.9664C4.40215 15.0287 5.67392 14.502 7 14.502H17C18.3261 14.502 19.5979 15.0287 20.5355 15.9664C21.4732 16.9041 22 18.1759 22 19.502C22 20.165 21.7366 20.8009 21.2678 21.2697C20.7989 21.7386 20.163 22.002 19.5 22.002H4.5C3.83696 22.002 3.20108 21.7386 2.73223 21.2697C2.26339 20.8009 2 20.165 2 19.502Z" stroke="#8F8F8F" stroke-width="1.5" stroke-linejoin="round"/>
<path id="Ellipse 114" d="M12 9.5C14.0711 9.5 15.75 7.82107 15.75 5.75C15.75 3.67893 14.0711 2 12 2C9.92893 2 8.25 3.67893 8.25 5.75C8.25 7.82107 9.92893 9.5 12 9.5Z" stroke="#8F8F8F" stroke-width="1.5"/>
</g>
</g>
</g>
</g>
</g>
</svg>
