<svg width="62" height="62" viewBox="0 0 62 62" fill="none" xmlns="http://www.w3.org/2000/svg">
<circle cx="31.1286" cy="30.8643" r="30.8643" fill="white"/>
<path d="M23.3061 36.9396C23.3061 37.2923 23.592 37.5782 23.9447 37.5782C24.2973 37.5782 24.5832 37.2923 24.5832 36.9396H23.3061ZM40.7086 21.2843L41.1602 20.8328L41.1602 20.8328L40.7086 21.2843ZM35.2551 39.1398L35.878 38.9989L35.2551 39.1398ZM19.7015 39.1398L19.0787 39.2807H19.0787L19.7015 39.1398ZM19.7257 37.356L20.2241 37.7553L19.7257 37.356ZM30.5964 20.9488H35.031V19.6716H30.5964V20.9488ZM41.0442 26.962V38.0483H42.3213V26.962H41.0442ZM24.5832 36.9396V26.962H23.3061V36.9396H24.5832ZM30.5964 19.6716C29.0467 19.6716 27.8201 19.6703 26.8619 19.7991C25.8854 19.9304 25.0927 20.2073 24.4672 20.8328L25.3703 21.7359C25.719 21.3872 26.1972 21.1771 27.0321 21.0648C27.8854 20.9501 29.0105 20.9488 30.5964 20.9488V19.6716ZM24.5832 26.962C24.5832 25.3761 24.5846 24.2509 24.6993 23.3976C24.8115 22.5628 25.0217 22.0845 25.3703 21.7359L24.4672 20.8328C23.8418 21.4583 23.5648 22.251 23.4335 23.2275C23.3047 24.1856 23.3061 25.4122 23.3061 26.962H24.5832ZM35.031 20.9488C36.6169 20.9488 37.742 20.9501 38.5953 21.0648C39.4302 21.1771 39.9084 21.3872 40.2571 21.7359L41.1602 20.8328C40.5347 20.2073 39.742 19.9304 38.7655 19.7991C37.8073 19.6703 36.5808 19.6716 35.031 19.6716V20.9488ZM42.3213 26.962C42.3213 25.4122 42.3227 24.1856 42.1939 23.2275C42.0626 22.251 41.7856 21.4583 41.1602 20.8328L40.2571 21.7359C40.6057 22.0845 40.8159 22.5628 40.9281 23.3976C41.0428 24.2509 41.0442 25.3761 41.0442 26.962H42.3213ZM41.0442 38.0483C41.0442 39.2141 40.8321 40.1792 40.4027 40.8337C40.0005 41.4469 39.3733 41.8442 38.3498 41.8442V43.1214C39.7807 43.1214 40.82 42.526 41.4706 41.5342C42.0941 40.5838 42.3213 39.3316 42.3213 38.0483H41.0442ZM38.3498 41.8442C37.6983 41.8442 37.1968 41.5635 36.7927 41.0734C36.3736 40.5651 36.0671 39.8349 35.878 38.9989L34.6323 39.2807C34.8463 40.2268 35.2155 41.1681 35.8073 41.8858C36.4139 42.6216 37.2581 43.1214 38.3498 43.1214V41.8442ZM22.7962 41.8442C22.1447 41.8442 21.6432 41.5635 21.2391 41.0734C20.82 40.5651 20.5135 39.8349 20.3244 38.9989L19.0787 39.2807C19.2927 40.2268 19.6619 41.1681 20.2536 41.8858C20.8603 42.6216 21.7045 43.1214 22.7962 43.1214V41.8442ZM22.7962 43.1214H38.3498V41.8442H22.7962V43.1214ZM21.6853 37.5782H32.795V36.3011H21.6853V37.5782ZM20.3244 38.9989C20.2159 38.5194 20.1566 38.2457 20.1494 38.0397C20.1438 37.8806 20.1712 37.8213 20.2241 37.7553L19.2274 36.9568C18.9467 37.3071 18.8589 37.684 18.873 38.0847C18.8855 38.4386 18.9809 38.8487 19.0787 39.2807L20.3244 38.9989ZM21.6853 36.3011C21.1655 36.3011 20.6964 36.299 20.3192 36.3618C19.9075 36.4303 19.523 36.5878 19.2274 36.9568L20.2241 37.7553C20.2621 37.7079 20.3153 37.6572 20.5289 37.6216C20.7772 37.5803 21.121 37.5782 21.6853 37.5782V36.3011ZM35.878 38.9989C35.7515 38.4398 35.6474 37.9768 35.5335 37.6261C35.4229 37.2856 35.2673 36.9273 34.9612 36.6831L34.1647 37.6815C34.1629 37.68 34.224 37.7288 34.3188 38.0207C34.4103 38.3022 34.5001 38.6966 34.6323 39.2807L35.878 38.9989ZM32.795 37.5782C33.2974 37.5782 33.6227 37.5791 33.8625 37.6049C34.0957 37.63 34.1514 37.6709 34.1647 37.6815L34.9612 36.6831C34.6702 36.4511 34.3299 36.3707 33.9991 36.3351C33.675 36.3002 33.2684 36.3011 32.795 36.3011V37.5782Z" fill="#009AF1"/>
<path d="M28.9335 25.8533H36.6939" stroke="#009AF1" stroke-width="1.27714" stroke-linecap="round"/>
<path d="M28.9335 30.2877H32.8137" stroke="#009AF1" stroke-width="1.27714" stroke-linecap="round"/>
</svg>
