<svg width="50" height="50" viewBox="0 0 50 50" fill="none" xmlns="http://www.w3.org/2000/svg">
<circle cx="25" cy="25" r="25" fill="white"/>
<path d="M15.0274 25.0273C15.0261 26.0492 15.1993 27.0637 15.5394 28.0273H24.0274M26.0394 22.0273H34.5273M34.5293 22.0273C33.9088 20.2722 32.7593 18.7527 31.2391 17.6781C29.7189 16.6035 27.903 16.0268 26.0414 16.0273C27.6414 16.0273 28.9504 19.7893 29.0414 24.5273M34.5333 22.0273C34.8182 22.8326 34.9866 23.6744 35.0333 24.5273M15.5453 28.0273C16.1659 29.7825 17.3154 31.302 18.8356 32.3766C20.3557 33.4512 22.1717 34.0279 24.0333 34.0273C22.4893 34.0273 21.2174 30.5273 21.0514 26.0273" stroke="#141B34" stroke-width="1.5" stroke-linecap="round" stroke-linejoin="round"/>
<path d="M15.0267 18.3264C14.9583 17.6295 15.0217 16.9259 15.2137 16.2525C15.406 15.8081 15.7482 15.4453 16.1807 15.2274C16.8114 15.0243 17.4779 14.9561 18.1367 15.0274H19.0267C20.9127 15.0274 21.8547 15.0274 22.4407 15.6474C23.0267 16.2674 23.0267 17.2674 23.0267 19.2664V21.5264C23.0267 22.3984 23.0267 22.8355 22.7627 22.9845C22.4987 23.1335 22.1567 22.8915 21.4717 22.4085L21.3717 22.3355C21.059 22.079 20.7107 21.8695 20.3377 21.7135C19.9495 21.6238 19.55 21.5931 19.1527 21.6225H18.1377C17.4789 21.6938 16.8124 21.6256 16.1817 21.4224C15.7488 21.2051 15.4064 20.8422 15.2147 20.3974C15.0225 19.725 14.9587 19.0225 15.0267 18.3264Z" stroke="#141B34" stroke-width="1.5"/>
<path d="M35.0293 30.3268C35.0979 29.6299 35.0344 28.9263 34.8423 28.2528C34.6505 27.8081 34.3081 27.4452 33.8753 27.2278C33.2447 27.024 32.5781 26.9558 31.9193 27.0278H31.0293C29.1433 27.0278 28.2003 27.0278 27.6153 27.6488C27.0303 28.2698 27.0293 29.2678 27.0293 31.2658V33.5259C27.0293 34.3979 27.0293 34.8338 27.2933 34.9838C27.5573 35.1338 27.8993 34.8908 28.5833 34.4078L28.6833 34.3338C28.9959 34.0776 29.3443 33.8684 29.7173 33.7128C30.1055 33.6231 30.505 33.5925 30.9023 33.6218H31.9133C32.5721 33.6932 33.2386 33.6251 33.8693 33.4218C34.3017 33.204 34.644 32.8412 34.8363 32.3968C35.0299 31.725 35.0954 31.0228 35.0293 30.3268Z" stroke="#141B34" stroke-width="1.5"/>
</svg>
