<svg width="229" height="229" viewBox="0 0 229 229" fill="none" xmlns="http://www.w3.org/2000/svg">
<g opacity="0.2">
<circle cx="114.292" cy="114.292" r="114.292" fill="white"/>
<mask id="mask0_791_25756" style="mask-type:alpha" maskUnits="userSpaceOnUse" x="0" y="0" width="229" height="229">
<circle cx="114.292" cy="114.292" r="114.292" fill="#FBFBFF"/>
</mask>
<g mask="url(#mask0_791_25756)">
<path d="M140.689 148.542C159.594 146.233 164.325 156.633 164.325 156.633C164.325 156.633 168.1 170.713 169.883 175.745C171.413 180.062 171.794 183.774 171.858 184.744V185.205L171.874 204.684C171.874 206.085 171.46 207.486 170.568 208.57C167.908 211.77 167.987 215.545 167.987 215.545L166.091 420.007C171.442 460.017 195.126 476.676 207.136 482.649C211.468 484.799 214.192 489.212 214.192 494.037V620.138C214.192 625.521 211.524 630.644 206.659 632.945C176.29 647.32 126.858 645.617 113.77 644.87C100.682 645.617 51.242 647.306 20.8824 632.945C16.0158 630.642 13.3457 625.521 13.3457 620.138V494.037C13.3457 489.212 16.0694 484.799 20.4017 482.649C32.4261 476.676 56.0943 460.032 61.447 420.007L59.5508 215.545C59.5508 215.545 59.6312 211.77 56.97 208.57C56.0782 207.486 55.6636 206.085 55.6636 204.684V185.205C55.6636 185.03 55.6636 184.871 55.6797 184.696C55.7601 183.677 56.1408 180.013 57.6545 175.729C59.4382 170.696 63.2128 156.617 63.2128 156.617C63.2128 156.617 67.9436 146.217 86.8488 148.526H140.684V148.542H140.689Z" fill="url(#paint0_linear_791_25756)"/>
<ellipse cx="114.427" cy="162.486" rx="28.589" ry="9.18931" fill="url(#paint1_linear_791_25756)"/>
<path d="M124.639 145.13C124.639 141.747 121.896 139.004 118.513 139.004H109.323C105.94 139.004 103.197 141.747 103.197 145.13V159.425C103.197 162.808 105.94 165.551 109.323 165.551H118.513C121.896 165.551 124.639 162.808 124.639 159.425V145.13Z" fill="url(#paint2_linear_791_25756)"/>
<path d="M113.936 148.588C144.214 148.588 168.759 124.042 168.759 93.7646C168.759 63.4873 144.214 38.9434 113.936 38.9434C83.659 38.9434 59.1133 63.4891 59.1133 93.7664C59.1133 124.044 83.6572 148.589 113.936 148.589V148.588Z" fill="url(#paint3_linear_791_25756)"/>
<path d="M152.09 67.4043H76.012C73.2864 67.4043 71.0762 69.6215 71.0762 72.3557V115.389C71.0762 118.123 73.2864 120.34 76.012 120.34H152.09C154.815 120.34 157.026 118.123 157.026 115.389V72.3557C157.026 69.6215 154.815 67.4043 152.09 67.4043Z" fill="url(#paint4_linear_791_25756)"/>
<rect x="89.7402" y="80.4277" width="17.7788" height="16.9322" rx="3.98441" fill="#F3F3F3"/>
<rect x="121.911" y="80.4277" width="17.7788" height="16.9322" rx="3.98441" fill="#F3F3F3"/>
<path d="M105.826 109.075C108.344 106.945 116.071 101.032 124.452 109.075" stroke="#F3F3F3" stroke-width="3.4856" stroke-linecap="round"/>
</g>
</g>
<defs>
<linearGradient id="paint0_linear_791_25756" x1="113.769" y1="148.191" x2="113.769" y2="645.349" gradientUnits="userSpaceOnUse">
<stop stop-color="#2D2D2D"/>
<stop offset="0.296672" stop-color="#2D2D2D" stop-opacity="0"/>
</linearGradient>
<linearGradient id="paint1_linear_791_25756" x1="87.5532" y1="162.486" x2="221.35" y2="162.486" gradientUnits="userSpaceOnUse">
<stop stop-color="#2A2A2A"/>
<stop offset="1" stop-color="#0C0C0C"/>
</linearGradient>
<linearGradient id="paint2_linear_791_25756" x1="113.918" y1="139.004" x2="113.918" y2="165.551" gradientUnits="userSpaceOnUse">
<stop stop-color="#0C0C0C"/>
<stop offset="1" stop-opacity="0.18"/>
</linearGradient>
<linearGradient id="paint3_linear_791_25756" x1="113.936" y1="31.2856" x2="113.936" y2="148.589" gradientUnits="userSpaceOnUse">
<stop stop-color="#2D2D2D" stop-opacity="0.17"/>
<stop offset="1" stop-color="#2D2D2D"/>
</linearGradient>
<linearGradient id="paint4_linear_791_25756" x1="114.051" y1="67.4043" x2="114.051" y2="120.34" gradientUnits="userSpaceOnUse">
<stop stop-color="#0C0C0C"/>
<stop offset="1" stop-color="#0C0C0C" stop-opacity="0.19"/>
</linearGradient>
</defs>
</svg>
