<svg width="44" height="44" viewBox="0 0 44 44" fill="none" xmlns="http://www.w3.org/2000/svg">
<circle cx="22" cy="22" r="22" fill="#F7F7FE"/>
<g clip-path="url(#clip0_1096_8390)">
<path d="M32.2981 23.1629C32.1875 23.3601 32.019 23.4445 31.7939 23.4686C31.3122 23.5202 30.8326 23.5888 30.3534 23.6616C30.2669 23.6749 30.1708 23.7236 30.1097 23.786C29.7602 24.1417 29.4216 24.5081 29.0764 24.868C28.7777 25.1787 28.4803 25.1292 28.2931 24.7398C28.0772 24.291 27.868 23.8388 27.6459 23.3933C27.6068 23.3151 27.5302 23.2382 27.452 23.1991C27.0065 22.9769 26.5543 22.7681 26.1059 22.5514C25.7149 22.3626 25.6654 22.0643 25.9753 21.7681C26.336 21.4237 26.702 21.0847 27.0581 20.7357C27.1205 20.6745 27.17 20.578 27.1829 20.4915C27.2586 19.9848 27.3222 19.4765 27.3884 18.969C27.4362 18.6034 27.7211 18.4487 28.0498 18.6221C28.5023 18.8609 28.9479 19.1138 29.4021 19.3501C29.4857 19.3933 29.6005 19.4121 29.6937 19.3967C30.1987 19.3126 30.7003 19.2099 31.2045 19.1225C31.5635 19.0606 31.7831 19.2798 31.7211 19.6392C31.6346 20.1437 31.534 20.6458 31.4458 21.15C31.4325 21.2265 31.43 21.3222 31.4645 21.3867C31.7365 21.8987 32.019 22.4054 32.2981 22.9137V23.1633V23.1629ZM28.145 19.6184C28.0989 19.9674 28.0452 20.2935 28.0161 20.6217C27.9919 20.8975 27.9042 21.1205 27.6825 21.3043C27.4196 21.5223 27.182 21.771 26.9212 22.0181C27.2873 22.1924 27.6217 22.3584 27.9624 22.5111C28.1367 22.5893 28.254 22.7057 28.3322 22.8804C28.4861 23.224 28.6538 23.5614 28.826 23.9229C29.1063 23.6263 29.358 23.3405 29.6334 23.0789C29.7407 22.9769 29.8934 22.8925 30.0381 22.865C30.4221 22.7918 30.8131 22.7536 31.2232 22.6982C31.0269 22.3363 30.8318 22.0019 30.6646 21.6541C30.6034 21.5269 30.5743 21.3626 30.5926 21.2228C30.6434 20.8347 30.7261 20.4512 30.801 20.0418C30.4108 20.1138 30.0444 20.1741 29.6816 20.2515C29.4865 20.2931 29.3189 20.2652 29.1467 20.1654C28.8247 19.9786 28.4936 19.8072 28.145 19.618V19.6184Z" fill="black"/>
<path d="M11 22.9134C11.2791 22.4051 11.5611 21.898 11.8344 21.3868C11.8665 21.3269 11.8694 21.2395 11.8569 21.1696C11.7733 20.6996 11.6814 20.2312 11.5928 19.762C11.5824 19.7075 11.5749 19.6526 11.5686 19.5977C11.5324 19.2824 11.7392 19.0661 12.0532 19.1172C12.5653 19.2004 13.0732 19.3077 13.5853 19.3905C13.6909 19.4076 13.8207 19.3889 13.9151 19.3402C14.3519 19.1156 14.7791 18.8722 15.2113 18.6393C15.5857 18.4375 15.8582 18.5848 15.9131 19.0116C15.9767 19.5057 16.0403 20.0003 16.1148 20.4928C16.1277 20.579 16.1789 20.6746 16.2413 20.7362C16.5874 21.0756 16.9426 21.4059 17.2941 21.7399C17.6431 22.0719 17.5944 22.3622 17.1547 22.5723C16.718 22.7811 16.2787 22.9849 15.8453 23.2013C15.7671 23.2404 15.6905 23.3165 15.6514 23.3947C15.4268 23.8468 15.2155 24.3057 14.9954 24.7599C14.8195 25.1235 14.5141 25.173 14.2346 24.8822C13.8839 24.5178 13.5416 24.1455 13.1876 23.7844C13.126 23.7216 13.0295 23.6725 12.943 23.6597C12.4642 23.5869 11.9842 23.5157 11.5025 23.4679C11.2745 23.445 11.1127 23.3552 11 23.163C11 23.0798 11 22.9966 11 22.9134ZM16.3773 22.0182C16.1065 21.762 15.8656 21.5128 15.6019 21.2907C15.3943 21.116 15.3087 20.9047 15.2841 20.6443C15.2529 20.3094 15.2001 19.977 15.1539 19.6206C14.7983 19.8136 14.4709 20.0074 14.1285 20.1684C13.9888 20.2341 13.8107 20.2661 13.6585 20.247C13.277 20.1996 12.9006 20.1147 12.4963 20.0403C12.5582 20.3826 12.5973 20.7046 12.6785 21.0157C12.7558 21.3119 12.7176 21.5644 12.5541 21.8227C12.3798 22.0985 12.2396 22.3959 12.0765 22.6992C12.4376 22.7462 12.7662 22.7994 13.0965 22.829C13.3661 22.8531 13.5795 22.9479 13.7583 23.1605C13.978 23.4221 14.2263 23.6601 14.4734 23.9205C14.6535 23.5436 14.8091 23.1884 14.9933 22.8481C15.0607 22.7241 15.1789 22.6056 15.3028 22.5382C15.6427 22.3539 15.9979 22.1988 16.3777 22.0174L16.3773 22.0182Z" fill="black"/>
<path d="M19.0395 18.1829C19.0395 18.1205 19.0282 18.0561 19.0411 17.9962C19.188 17.3148 18.9604 16.7665 18.4883 16.2749C18.2167 15.992 17.9991 15.6563 17.7604 15.3418C17.5274 15.0348 17.6256 14.732 17.9962 14.6201C18.6252 14.4304 19.257 14.2507 19.8839 14.0544C19.985 14.0228 20.0915 13.945 20.153 13.8585C20.5291 13.3273 20.8918 12.7869 21.2616 12.2512C21.4916 11.918 21.8032 11.9146 22.0332 12.2453C22.4084 12.7857 22.7741 13.3323 23.1539 13.8693C23.2113 13.9504 23.3136 14.0211 23.4093 14.0511C24.0299 14.2441 24.6551 14.4221 25.2774 14.6097C25.6851 14.7324 25.777 15.0286 25.5162 15.3701C25.1252 15.8818 24.7279 16.3888 24.3431 16.9055C24.2795 16.9912 24.2358 17.1155 24.2366 17.2216C24.2441 17.866 24.267 18.5099 24.2849 19.1538C24.297 19.5877 24.054 19.7711 23.6472 19.628C23.0341 19.4121 22.4242 19.1875 21.809 18.9779C21.7146 18.9458 21.5902 18.9462 21.4954 18.9783C20.8931 19.1833 20.2957 19.4017 19.6963 19.6147C19.2379 19.7778 18.9979 19.6022 19.0141 19.1172C19.0195 18.9579 19.0237 18.7986 19.0257 18.6393C19.0278 18.487 19.0262 18.3343 19.0262 18.1821C19.0303 18.1821 19.0345 18.1821 19.0391 18.1821L19.0395 18.1829ZM24.549 15.264C24.1356 15.1426 23.752 15.0028 23.3569 14.9205C22.898 14.8252 22.5765 14.5947 22.3456 14.1842C22.148 13.8323 21.8931 13.5124 21.6493 13.1576C21.3302 13.6226 21.0253 14.0586 20.7308 14.5012C20.6247 14.6609 20.4908 14.7549 20.3065 14.8065C19.7949 14.95 19.287 15.1064 18.7566 15.264C18.8099 15.3373 18.849 15.3922 18.8897 15.4458C19.1805 15.8248 19.4808 16.1975 19.7579 16.5864C19.8398 16.7012 19.8922 16.8622 19.8951 17.0032C19.9026 17.4113 19.8768 17.8202 19.866 18.2287C19.8623 18.3697 19.8656 18.5111 19.8656 18.6721C20.3785 18.4891 20.8685 18.321 21.3527 18.1384C21.5594 18.0606 21.7487 18.0619 21.955 18.1397C22.4388 18.3223 22.9284 18.4895 23.3968 18.6563C23.3968 18.1151 23.4039 17.5835 23.3931 17.0527C23.3889 16.8531 23.443 16.6929 23.5661 16.5382C23.8926 16.1268 24.2088 15.7071 24.549 15.2649V15.264Z" fill="black"/>
<path d="M21.3235 31.5199C21.3348 31.7832 21.1929 31.9675 20.9612 31.9896C20.7021 32.0141 20.5253 31.8548 20.4916 31.5499C20.3897 30.6356 20.1563 29.7562 19.7919 28.9118C19.0028 27.0836 17.7932 25.5877 16.2087 24.3893C16.2033 24.3851 16.1975 24.3814 16.1917 24.3772C15.9354 24.1892 15.8726 23.9484 16.0261 23.74C16.175 23.5378 16.4196 23.5183 16.6679 23.6971C16.8364 23.8186 17.0028 23.9438 17.1613 24.0777C18.9217 25.5619 20.2278 27.3619 20.9155 29.574C21.1118 30.2054 21.2237 30.8627 21.3743 31.5083C21.3572 31.512 21.3402 31.5162 21.3231 31.5199H21.3235Z" fill="black"/>
<path d="M21.9674 31.5728C22.12 30.1535 22.5214 28.8944 23.1575 27.7118C24.0169 26.1136 25.1787 24.7737 26.6358 23.6914C26.8006 23.5691 26.9719 23.5246 27.1562 23.6344C27.3076 23.7247 27.3904 23.8744 27.3409 24.0391C27.3043 24.1606 27.2165 24.2895 27.115 24.3657C25.9129 25.2654 24.9249 26.3582 24.1521 27.6435C23.4295 28.8453 22.9653 30.1381 22.8093 31.5371C22.7673 31.9148 22.4582 32.1078 22.1737 31.9372C22.0052 31.8361 21.952 31.6801 21.9674 31.5728Z" fill="black"/>
<path d="M22.0655 23.8914C22.0655 24.98 22.0655 26.0682 22.0655 27.1568C22.0655 27.2259 22.0696 27.2966 22.0588 27.3644C22.0247 27.5769 21.8463 27.7205 21.6337 27.713C21.4307 27.7059 21.2672 27.5595 21.2385 27.3536C21.231 27.2991 21.234 27.2429 21.234 27.1876C21.234 24.9759 21.234 22.7641 21.234 20.5528C21.234 20.5042 21.2319 20.4555 21.2369 20.4072C21.261 20.1809 21.4336 20.0254 21.6553 20.0279C21.8679 20.0304 22.036 20.1805 22.0617 20.3972C22.0701 20.4659 22.0659 20.5358 22.0659 20.6048C22.0659 21.7001 22.0659 22.7957 22.0659 23.891L22.0655 23.8914Z" fill="black"/>
</g>
<defs>
<clipPath id="clip0_1096_8390">
<rect width="21.2978" height="20" fill="white" transform="translate(11 12)"/>
</clipPath>
</defs>
</svg>
