<svg width="14" height="12" viewBox="0 0 14 12" fill="none" xmlns="http://www.w3.org/2000/svg">
<path id="Vector 22" d="M1 5.25C0.585786 5.25 0.25 5.58579 0.25 6C0.25 6.41421 0.585786 6.75 1 6.75L1 5.25ZM13.6226 6.53033C13.9155 6.23744 13.9155 5.76256 13.6226 5.46967L8.84967 0.696698C8.55677 0.403805 8.0819 0.403805 7.78901 0.696699C7.49611 0.989592 7.49611 1.46447 7.78901 1.75736L12.0316 6L7.78901 10.2426C7.49611 10.5355 7.49611 11.0104 7.78901 11.3033C8.0819 11.5962 8.55677 11.5962 8.84967 11.3033L13.6226 6.53033ZM1 6.75L13.0923 6.75L13.0923 5.25L1 5.25L1 6.75Z" fill="white"/>
</svg>
