<svg width="68" height="34" viewBox="0 0 68 34" fill="none" xmlns="http://www.w3.org/2000/svg">
<rect x="0.763672" width="61.9554" height="32.6693" rx="10.0521" fill="#004B04"/>
<path d="M1 16.0834C1 10.4536 1 7.6388 2.09561 5.48854C3.05934 3.59711 4.59711 2.05934 6.48854 1.09561C8.6388 0 11.4536 0 17.0833 0H50.8154V33.0291H17.0833C11.4536 33.0291 8.6388 33.0291 6.48854 31.9335C4.59711 30.9697 3.05934 29.432 2.09561 27.5405C1 25.3903 1 22.5754 1 16.9457V16.0834Z" fill="#60F667"/>
<path d="M63.9595 11.319C64.9454 11.319 65.8909 11.8485 66.5881 12.7911C67.2852 13.7337 67.6768 15.0121 67.6768 16.345C67.6768 17.678 67.2852 18.9564 66.5881 19.899C65.8909 20.8416 64.9454 21.3711 63.9595 21.3711L63.9595 16.345V11.319Z" fill="#004B04"/>
</svg>
