<svg width="124" height="22" viewBox="0 0 124 22" fill="none" xmlns="http://www.w3.org/2000/svg">
<g id="Layer_1" clip-path="url(#clip0_1124_11694)">
<path id="Vector" d="M36.4196 20.9836V12.7851C36.4196 9.33573 33.6124 6.52471 30.1592 6.52471C26.706 6.52471 23.8988 9.33188 23.8988 12.7851C23.8988 16.2383 26.706 19.0378 30.1592 19.0378H32.1934V20.9836H30.1592C25.6408 20.9836 21.9607 17.3035 21.9607 12.7851C21.9607 8.26669 25.6408 4.58276 30.1592 4.58276C34.6776 4.58276 38.3577 8.26285 38.3577 12.7812V20.9797H36.4196V20.9874V20.9836Z" fill="white"/>
<path id="Vector_2" d="M44.2227 21.1065V19.1607H55.7513C57.1318 19.1607 58.2585 18.0339 58.2585 16.6534C58.2585 15.942 58.0047 15.3229 57.5394 14.8615C57.0741 14.3962 56.4588 14.1424 55.8051 14.1424H48.6757C46.2223 14.1424 44.2303 12.1466 44.2303 9.68935C44.2303 7.23211 46.2261 5.23633 48.6757 5.23633H55.4898V7.18212H48.6757C47.2952 7.18212 46.1684 8.30883 46.1684 9.68935C46.1684 11.0699 47.2952 12.1966 48.6757 12.1966H55.8051C56.9818 12.1966 58.0816 12.6542 58.9161 13.4848C59.7467 14.3154 60.2043 15.4229 60.2043 16.5958C60.2043 19.1107 58.2085 21.1065 55.759 21.1065H44.2227Z" fill="white"/>
<path id="Vector_3" d="M65.83 12.7592C65.83 8.3869 69.3832 4.82603 73.7593 4.82603C75.882 4.82603 77.8701 5.65279 79.3698 7.14482C80.8695 8.64455 81.6925 10.6326 81.7001 12.7553V20.6692H79.7697V12.7553C79.762 11.1518 79.1352 9.65205 78.0008 8.52149C76.8664 7.38709 75.3629 6.76797 73.7632 6.76797C70.4561 6.76797 67.772 9.45978 67.772 12.7592V20.6923H65.8339V12.7592L65.8262 12.7669L65.83 12.7592ZM65.8454 3.65317V0H67.7835V3.64548H65.8454V3.65317Z" fill="white"/>
<path id="Vector_4" d="M109.695 21.1065V12.4004C109.695 10.4892 110.441 8.68953 111.799 7.33209C113.149 5.9785 114.948 5.23633 116.859 5.23633C120.613 5.23633 123.7 8.14348 124.004 11.8236H122.055C121.766 9.21636 119.547 7.18212 116.871 7.18212C115.475 7.18212 114.168 7.72433 113.179 8.70876C112.191 9.69704 111.653 11.0083 111.653 12.4004V21.1065H109.703H109.695Z" fill="#009AF1"/>
<path id="Vector_5" d="M8.19463 21.2499C3.68008 21.2499 0 17.5737 0 13.0553C0 8.53687 3.68008 4.85679 8.19463 4.85679H10.2289V6.80258H8.19463C4.74527 6.80258 1.93426 9.60975 1.93426 13.063C1.93426 16.5162 4.74143 19.3233 8.19463 19.3233C11.6478 19.3233 14.455 16.5162 14.455 13.063V0H16.3931V13.0553C16.3931 17.5737 12.713 21.2537 8.19463 21.2537V21.2499Z" fill="white"/>
<path id="Vector_6" d="M96.2212 20.9111C91.5413 20.9111 87.7305 17.1003 87.7305 12.4204C87.7305 7.74052 91.5413 3.92969 96.2212 3.92969C98.7746 3.92969 101.189 5.09485 102.801 7.06756L101.347 8.12891C99.9282 6.67533 98.1247 5.87548 96.2212 5.87548C92.6065 5.87548 89.6724 8.81339 89.6724 12.4204C89.6724 16.0274 92.6142 18.9692 96.2212 18.9692C98.2131 18.9692 100.017 18.177 101.366 16.7235L102.839 17.7387C101.228 19.7344 98.8015 20.915 96.225 20.915H96.2174L96.2212 20.9111ZM93.937 13.3049V11.559L103.777 11.5475V13.3087H93.937V13.3049Z" fill="#009AF1"/>
</g>
<defs>
<clipPath id="clip0_1124_11694">
<rect width="124" height="21.2499" fill="white"/>
</clipPath>
</defs>
</svg>
