<svg width="229" height="229" viewBox="0 0 229 229" fill="none" xmlns="http://www.w3.org/2000/svg">
<g opacity="0.2">
<circle cx="114.292" cy="114.292" r="114.292" fill="white"/>
<mask id="mask0_130_14070" style="mask-type:alpha" maskUnits="userSpaceOnUse" x="0" y="0" width="229" height="229">
<circle cx="114.292" cy="114.292" r="114.292" fill="#FBFBFF"/>
</mask>
<g mask="url(#mask0_130_14070)">
<path d="M140.688 148.544C159.594 146.234 164.324 156.634 164.324 156.634C164.324 156.634 168.099 170.714 169.883 175.747C171.413 180.063 171.793 183.775 171.858 184.746V185.207L171.874 204.686C171.874 206.087 171.459 207.488 170.567 208.571C167.908 211.772 167.986 215.547 167.986 215.547L166.09 420.008C171.441 460.019 195.125 476.678 207.136 482.65C211.468 484.801 214.192 489.213 214.192 494.039V620.14C214.192 625.523 211.523 630.645 206.658 632.947C176.29 647.322 126.857 645.618 113.769 644.871C100.681 645.618 51.2415 647.307 20.8819 632.947C16.0153 630.643 13.3452 625.523 13.3452 620.14V494.039C13.3452 489.213 16.0689 484.801 20.4012 482.65C32.4256 476.678 56.0938 460.033 61.4465 420.008L59.5503 215.547C59.5503 215.547 59.6307 211.772 56.9695 208.571C56.0777 207.488 55.6631 206.087 55.6631 204.686V185.207C55.6631 185.031 55.6631 184.872 55.6792 184.697C55.7596 183.679 56.1403 180.015 57.654 175.731C59.4377 170.698 63.2123 156.618 63.2123 156.618C63.2123 156.618 67.9431 146.218 86.8483 148.527H140.683V148.544H140.688Z" fill="url(#paint0_linear_130_14070)"/>
<ellipse cx="114.427" cy="162.487" rx="28.589" ry="9.18931" fill="url(#paint1_linear_130_14070)"/>
<path d="M124.638 145.131C124.638 141.748 121.895 139.005 118.512 139.005H109.323C105.939 139.005 103.197 141.748 103.197 145.131V159.426C103.197 162.809 105.939 165.552 109.323 165.552H118.512C121.895 165.552 124.638 162.809 124.638 159.426V145.131Z" fill="url(#paint2_linear_130_14070)"/>
<path d="M113.936 148.588C144.213 148.588 168.759 124.042 168.759 93.7651C168.759 63.4878 144.213 38.9438 113.936 38.9438C83.6583 38.9438 59.1125 63.4896 59.1125 93.7669C59.1125 124.044 83.6565 148.59 113.936 148.59V148.588Z" fill="url(#paint3_linear_130_14070)"/>
<path d="M152.089 67.4048H76.0112C73.2856 67.4048 71.0754 69.622 71.0754 72.3562V115.389C71.0754 118.123 73.2856 120.341 76.0112 120.341H152.089C154.815 120.341 157.025 118.123 157.025 115.389V72.3562C157.025 69.622 154.815 67.4048 152.089 67.4048Z" fill="url(#paint4_linear_130_14070)"/>
<rect x="89.7397" y="80.4277" width="17.7788" height="16.9322" rx="3.98441" fill="#F3F3F3"/>
<rect x="121.911" y="80.4277" width="17.7788" height="16.9322" rx="3.98441" fill="#F3F3F3"/>
<path d="M105.825 109.076C108.343 106.946 116.07 101.033 124.451 109.076" stroke="#F3F3F3" stroke-width="3.4856" stroke-linecap="round"/>
</g>
</g>
<defs>
<linearGradient id="paint0_linear_130_14070" x1="113.768" y1="148.193" x2="113.768" y2="645.35" gradientUnits="userSpaceOnUse">
<stop stop-color="#2D2D2D"/>
<stop offset="0.296672" stop-color="#2D2D2D" stop-opacity="0"/>
</linearGradient>
<linearGradient id="paint1_linear_130_14070" x1="87.5532" y1="162.487" x2="221.35" y2="162.487" gradientUnits="userSpaceOnUse">
<stop stop-color="#2A2A2A"/>
<stop offset="1" stop-color="#0C0C0C"/>
</linearGradient>
<linearGradient id="paint2_linear_130_14070" x1="113.917" y1="139.005" x2="113.917" y2="165.552" gradientUnits="userSpaceOnUse">
<stop stop-color="#0C0C0C"/>
<stop offset="1" stop-opacity="0.18"/>
</linearGradient>
<linearGradient id="paint3_linear_130_14070" x1="113.936" y1="31.2861" x2="113.936" y2="148.59" gradientUnits="userSpaceOnUse">
<stop stop-color="#2D2D2D" stop-opacity="0.17"/>
<stop offset="1" stop-color="#2D2D2D"/>
</linearGradient>
<linearGradient id="paint4_linear_130_14070" x1="114.05" y1="67.4048" x2="114.05" y2="120.341" gradientUnits="userSpaceOnUse">
<stop stop-color="#0C0C0C"/>
<stop offset="1" stop-color="#0C0C0C" stop-opacity="0.19"/>
</linearGradient>
</defs>
</svg>
