<svg width="60" height="60" viewBox="0 0 60 60" fill="none" xmlns="http://www.w3.org/2000/svg">
<g id="Group 1171275837">
<g id="Group 1171276181">
<circle id="Ellipse 2172" cx="30" cy="30" r="30" fill="#F7F7FC"/>
<g id="Group 1171276180">
<g id="Group 1171276179">
<g id="Vector">
<path fill-rule="evenodd" clip-rule="evenodd" d="M30.1152 18.344C29.5397 18.2462 28.7552 18.2388 27.34 18.2388C24.9441 18.2388 23.2412 18.2408 21.95 18.4136C20.6852 18.5829 19.9584 18.9004 19.4301 19.4287C18.9011 19.9577 18.584 20.6823 18.4149 21.9399C18.2422 23.2245 18.2402 24.9178 18.2402 27.3013V32.3013C18.2402 34.6849 18.2422 36.3782 18.4149 37.6628C18.584 38.9204 18.9011 39.6449 19.4301 40.174C19.9591 40.703 20.6837 41.0201 21.9413 41.1891C23.2259 41.3618 24.9192 41.3638 27.3027 41.3638H32.3027C34.6863 41.3638 36.3796 41.3618 37.6642 41.1891C38.9218 41.0201 39.6463 40.703 40.1754 40.174C40.7044 39.6449 41.0215 38.9204 41.1905 37.6628C41.3632 36.3782 41.3652 34.6849 41.3652 32.3013V31.755C41.3652 29.8349 41.3518 28.9248 41.148 28.2388H37.2356C35.8196 28.2389 34.6624 28.2389 33.7488 28.1161C32.7939 27.9877 31.966 27.7098 31.3051 27.049C30.6442 26.3881 30.3664 25.5602 30.238 24.6052C30.1152 23.6916 30.1152 22.5345 30.1152 21.1184V18.344ZM31.9902 19.3131V21.0513C31.9902 22.551 31.9922 23.5814 32.0963 24.3554C32.1967 25.1024 32.3765 25.4687 32.6309 25.7231C32.8854 25.9776 33.2517 26.1573 33.9987 26.2578C34.7727 26.3618 35.8031 26.3638 37.3027 26.3638H39.8271C39.4565 26.0044 38.9818 25.5737 38.3652 25.0189L33.4168 20.5652C32.81 20.0192 32.3585 19.6161 31.9902 19.3131ZM27.5221 16.3638C29.2528 16.3633 30.371 16.363 31.4001 16.758C32.4293 17.1529 33.2567 17.898 34.5368 19.0507C34.581 19.0905 34.6258 19.1308 34.6711 19.1716L39.6195 23.6252C39.6722 23.6726 39.7243 23.7194 39.7757 23.7656C41.2552 25.0964 42.212 25.957 42.7266 27.1125C43.2413 28.2681 43.2409 29.5549 43.2403 31.5449C43.2403 31.6141 43.2402 31.6841 43.2402 31.755V32.3718C43.2403 34.669 43.2403 36.4886 43.0488 37.9126C42.8518 39.3781 42.4366 40.5643 41.5012 41.4998C40.5657 42.4352 39.3795 42.8504 37.914 43.0474C36.49 43.2389 34.6705 43.2388 32.3732 43.2388H27.2322C24.935 43.2388 23.1155 43.2389 21.6915 43.0474C20.2259 42.8504 19.0397 42.4352 18.1043 41.4998C17.1688 40.5643 16.7537 39.3781 16.5567 37.9126C16.3652 36.4886 16.3652 34.6691 16.3652 32.3719V27.2308C16.3652 24.9336 16.3652 23.1141 16.5567 21.6901C16.7537 20.2245 17.1688 19.0383 18.1043 18.1029C19.0405 17.1667 20.2306 16.752 21.7013 16.5552C23.1313 16.3638 24.9599 16.3638 27.2696 16.3638L27.34 16.3638C27.4014 16.3638 27.4621 16.3638 27.5221 16.3638Z" fill="#1C274C"/>
<path fill-rule="evenodd" clip-rule="evenodd" d="M26.0689 30.9924C25.7083 30.6543 25.1472 30.6543 24.7865 30.9924L22.2865 33.3361C21.9088 33.6903 21.8897 34.2835 22.2438 34.6613C22.5979 35.039 23.1912 35.0581 23.5689 34.704L24.4902 33.8403L24.4902 37.9263C24.4902 38.4441 24.91 38.8638 25.4277 38.8638C25.9455 38.8638 26.3652 38.4441 26.3652 37.9263L26.3652 33.8403L27.2865 34.704C27.6643 35.0581 28.2576 35.039 28.6117 34.6613C28.9658 34.2835 28.9467 33.6903 28.5689 33.3361L26.0689 30.9924Z" fill="#1C274C"/>
</g>
</g>
</g>
</g>
</g>
</svg>
