<svg width="24" height="25" viewBox="0 0 24 25" fill="none" xmlns="http://www.w3.org/2000/svg">
<path d="M10.7302 5.38532C11.1449 5.33698 11.5685 5.31213 12 5.31213C16.664 5.31213 20.3999 8.21478 22 12.3121C21.6054 13.3225 21.0809 14.2603 20.4447 15.0998M6.51962 6.83157C4.47955 8.07619 2.90111 10.0047 2 12.3121C3.60014 16.4095 7.33603 19.3121 12 19.3121C14.0376 19.3121 15.898 18.7581 17.4806 17.7926M9.87877 10.1907C9.33582 10.7336 9 11.4837 9 12.3121C9 13.969 10.3431 15.3121 12 15.3121C12.8285 15.3121 13.5785 14.9763 14.1214 14.4334" stroke="#292929" stroke-width="1.5" stroke-linecap="round" stroke-linejoin="round"/>
<path d="M4 4.31213L20 20.3121" stroke="#292929" stroke-width="1.5" stroke-linecap="round"/>
</svg>
