<svg xmlns="http://www.w3.org/2000/svg" xmlns:xlink="http://www.w3.org/1999/xlink" width="163.389" height="28" viewBox="0 0 163.389 28">
  <defs>
    <clipPath id="clip-path">
      <rect id="Rectangle_39821" data-name="Rectangle 39821" width="163.389" height="28"/>
    </clipPath>
  </defs>
  <g id="Group_99559" data-name="Group 99559" clip-path="url(#clip-path)">
    <path id="Path_178610" data-name="Path 178610" d="M61.2,30.407V19.6a8.249,8.249,0,1,0-8.249,8.239h2.68v2.564h-2.68A10.805,10.805,0,1,1,63.757,19.6V30.4H61.2v.005Z" transform="translate(-13.214 -2.758)"/>
    <path id="Path_178611" data-name="Path 178611" d="M84.878,30.963V28.4h15.191a3.31,3.31,0,0,0,3.3-3.3,3.248,3.248,0,0,0-.947-2.361,3.208,3.208,0,0,0-2.285-.948H90.746a5.868,5.868,0,0,1,0-11.735h8.979v2.564H90.746a3.3,3.3,0,0,0,0,6.607h9.394a5.8,5.8,0,0,1,5.8,5.8,5.886,5.886,0,0,1-5.857,5.944Z" transform="translate(-26.609 -3.151)"/>
    <path id="Path_178612" data-name="Path 178612" d="M126.349,16.812a10.456,10.456,0,0,1,20.912-.005V27.235h-2.544V16.807a7.9,7.9,0,0,0-15.809.005V27.265h-2.553V16.812l-.01.01Zm.021-12V0h2.554V4.8h-2.554Z" transform="translate(-39.608)"/>
    <path id="Path_178613" data-name="Path 178613" d="M210.543,30.963V19.491a9.443,9.443,0,0,1,18.854-.76h-2.569a6.874,6.874,0,0,0-13.706.76V30.963h-2.579Z" transform="translate(-66.003 -3.151)" fill="#009af1"/>
    <path id="Path_178614" data-name="Path 178614" d="M10.8,28a10.8,10.8,0,0,1,0-21.6h2.68V8.963H10.8a8.249,8.249,0,1,0,8.249,8.249V0H21.6V17.2a10.819,10.819,0,0,1-10.8,10.8Z"/>
    <path id="Path_178615" data-name="Path 178615" d="M179.572,29.919a11.188,11.188,0,1,1,8.67-18.241l-1.915,1.4a9.4,9.4,0,0,0-6.755-2.969,8.626,8.626,0,1,0,0,17.253,9.1,9.1,0,0,0,6.78-2.959l1.941,1.338a11.215,11.215,0,0,1-8.715,4.185h-.01ZM176.563,19.9V17.6l12.967-.015V19.9H176.563Z" transform="translate(-52.787 -2.365)" fill="#009af1"/>
  </g>
</svg>
