<svg width="46" height="46" viewBox="0 0 46 46" fill="none" xmlns="http://www.w3.org/2000/svg">
<circle cx="23" cy="23" r="23" fill="#F7F7FC"/>
<path d="M17.1748 21.3331C15.9674 21.7407 15.2205 22.3039 15.2205 22.926C15.2205 23.7742 16.609 24.5129 18.6601 24.8968M18.6601 24.8968C17.8983 25.2823 17.4427 25.7714 17.4427 26.3037C17.4427 27.5473 19.93 28.5554 22.9983 28.5554C23.7884 28.5554 24.54 28.4886 25.2205 28.3681M18.6601 24.8968C19.6163 25.0758 20.7165 25.1778 21.8872 25.1778C23.5946 25.1778 25.1521 24.9609 26.3316 24.6044M27.4427 21.1242C26.031 21.5413 24.0635 21.8001 21.8872 21.8001C17.5916 21.8001 14.1094 20.7919 14.1094 19.5483C14.1094 18.588 16.1856 17.7681 19.1094 17.4443" stroke="#141B34" stroke-width="1.5" stroke-linecap="round" stroke-linejoin="round"/>
<path d="M33 30.0699C33 31.6882 28.5228 33 23 33C17.4772 33 13 31.6882 13 30.0699C13 28.9195 14.7073 27.9239 18 27.4444" stroke="#141B34" stroke-width="1.5" stroke-linecap="round"/>
<path d="M29.7591 19.788C33.9744 18.6944 34.5765 25.2562 28.5547 27.4438" stroke="#141B34" stroke-width="1.5" stroke-linecap="round" stroke-linejoin="round"/>
<path d="M28.5582 13C27.8173 13.1235 26.4246 13.8148 26.7802 15.5926C27.1358 17.3704 26.6322 18.3086 26.3359 18.5556" stroke="#141B34" stroke-width="1.5" stroke-linecap="round" stroke-linejoin="round"/>
<path d="M24.1128 13C23.372 13.1481 21.9793 13.9778 22.3349 16.1111C22.6905 18.2444 22.1869 18.8148 21.8906 19.1111" stroke="#141B34" stroke-width="1.5" stroke-linecap="round" stroke-linejoin="round"/>
</svg>
