<svg width="44" height="44" viewBox="0 0 44 44" fill="none" xmlns="http://www.w3.org/2000/svg">
<circle cx="22" cy="22" r="22" fill="#F7F7FE"/>
<path d="M26.5 17C27.4335 17.4244 28 17.9819 28 18.5925C28 19.9221 25.3137 21 22 21C18.6863 21 16 19.9221 16 18.5925C16 17.9819 16.5665 17.4244 17.5 17" stroke="black" stroke-linecap="round"/>
<path d="M16 23C16 24.1046 18.6863 25 22 25C25.3137 25 28 24.1046 28 23" stroke="black"/>
<path d="M28 19V27C28 28.1046 25.3137 29 22 29C18.6863 29 16 28.1046 16 27V19" stroke="black" stroke-linecap="round"/>
<path d="M30.5 26C31.4509 26.6013 32 27.3109 32 28.0708C32 30.2409 27.5228 32 22 32C16.4772 32 12 30.2409 12 28.0708C12 27.3109 12.5491 26.6013 13.5 26" stroke="black" stroke-linecap="round"/>
<path d="M22 14C23.1046 14 24 14.8954 24 16C24 17.1046 23.1046 18 22 18C20.8954 18 20 17.1046 20 16C20 14.8954 20.8954 14 22 14ZM22 14C22 13.5 22.4 12.4 24 12" stroke="black" stroke-linecap="round" stroke-linejoin="round"/>
</svg>
