<svg width="40" height="40" viewBox="0 0 40 40" fill="none" xmlns="http://www.w3.org/2000/svg">
<g id="Group 1171276477">
<path id="Ellipse 220" d="M19.984 39.968C31.0209 39.968 39.968 31.0209 39.968 19.984C39.968 8.94714 31.0209 0 19.984 0C8.94714 0 0 8.94714 0 19.984C0 31.0209 8.94714 39.968 19.984 39.968Z" fill="#0083FC"/>
<g id="Group 1171276476">
<path id="Path 1667" d="M13.7854 23.5253L12.9004 27.0683L16.4424 26.1823L26.7004 15.9223C27.0311 15.5904 27.2168 15.1409 27.2168 14.6723C27.2168 14.2038 27.0311 13.7543 26.7004 13.4223L26.5484 13.2703C26.2165 12.9396 25.767 12.7539 25.2984 12.7539C24.8298 12.7539 24.3803 12.9396 24.0484 13.2703L13.7854 23.5253Z" stroke="white" stroke-width="1.5" stroke-linecap="round" stroke-linejoin="round"/>
<path id="Path 1668" d="M22.6406 14.6719L25.2996 17.3289" stroke="white" stroke-width="1.5" stroke-linecap="round" stroke-linejoin="round"/>
</g>
</g>
</svg>
