<svg width="63" height="63" viewBox="0 0 63 63" fill="none" xmlns="http://www.w3.org/2000/svg">
<g id="Group 1171276693">
<g id="Group 1171276691">
<circle id="Ellipse 1" cx="31.3429" cy="31.8286" r="30.8643" fill="white"/>
<g id="Group 1171276698">
<g id="Group 1171276495">
<path id="Star 7" d="M26.1063 17.9929L26.4428 19.4868C26.7283 20.7539 27.7178 21.7434 28.9849 22.0289L30.4788 22.3654L28.9849 22.7019C27.7178 22.9873 26.7283 23.9768 26.4428 25.2439L26.1063 26.7378L25.7698 25.2439C25.4844 23.9768 24.4948 22.9873 23.2277 22.7019L21.7339 22.3654L23.2277 22.0289C24.4948 21.7434 25.4844 20.7539 25.7698 19.4868L26.1063 17.9929Z" stroke="#009AF1" stroke-width="1.27714" stroke-linejoin="round"/>
<path id="Star 8" d="M19.566 26.8114L19.8064 27.8784C20.0103 28.7835 20.7171 29.4903 21.6221 29.6942L22.6892 29.9346L21.6221 30.1749C20.7171 30.3788 20.0103 31.0856 19.8064 31.9907L19.566 33.0577L19.3257 31.9907C19.1218 31.0856 18.415 30.3788 17.5099 30.1749L16.4428 29.9346L17.5099 29.6942C18.415 29.4903 19.1218 28.7835 19.3257 27.8784L19.566 26.8114Z" stroke="#009AF1" stroke-width="1.27714" stroke-linejoin="round"/>
<g id="Group 1171276494">
<path id="Vector" d="M42.7058 34.1339H44.1977C46.1853 34.1339 46.7761 34.4189 46.7282 35.8341C46.649 38.1782 45.5919 40.9021 41.3633 41.6485" stroke="#009AF1" stroke-width="1.27714" stroke-linecap="round"/>
<path id="Vector_2" d="M29.4976 44.9921C25.8751 42.207 25.3414 38.2564 25.2627 34.1342C25.2287 32.3535 25.7456 31.9871 28.1159 31.9871H39.5827C41.953 31.9871 42.4699 32.3535 42.4359 34.1342C42.3573 38.2564 41.8235 42.207 38.2011 44.9921C37.1701 45.7847 36.3003 45.9428 34.8363 45.9428H32.8624C31.3983 45.9428 30.5285 45.7847 29.4976 44.9921Z" stroke="#009AF1" stroke-width="1.27714" stroke-linecap="round"/>
<path id="Vector_3" d="M35.997 31.9873C35.997 29.6158 34.0745 27.6932 31.703 27.6932C29.3314 27.6932 27.4089 29.6158 27.4089 31.9873" stroke="#009AF1" stroke-width="1.27714" stroke-linecap="round" stroke-linejoin="round"/>
<path id="Vector_4" d="M40.2859 31.9863C40.2859 30.0101 38.6934 28.408 36.729 28.408C36.0677 28.408 35.4487 28.5896 34.9183 28.9059" stroke="#009AF1" stroke-width="1.27714" stroke-linecap="round" stroke-linejoin="round"/>
</g>
</g>
</g>
</g>
</g>
</svg>
