<svg width="50" height="50" viewBox="0 0 50 50" fill="none" xmlns="http://www.w3.org/2000/svg">
<circle cx="25" cy="25" r="25" fill="white"/>
<path d="M15 25C15 20.286 15 17.9289 16.4645 16.4645C17.9289 15 20.286 15 25 15C29.714 15 32.0711 15 33.5355 16.4645C35 17.9289 35 20.286 35 25" stroke="#171717"/>
<path d="M15 27C15 24.1997 15 22.7996 15.545 21.73C16.0243 20.7892 16.7892 20.0243 17.73 19.545C18.7996 19 20.1997 19 23 19H27C29.8003 19 31.2004 19 32.27 19.545C33.2108 20.0243 33.9757 20.7892 34.455 21.73C35 22.7996 35 24.1997 35 27C35 29.8003 35 31.2004 34.455 32.27C33.9757 33.2108 33.2108 33.9757 32.27 34.455C31.2004 35 29.8003 35 27 35H23C20.1997 35 18.7996 35 17.73 34.455C16.7892 33.9757 16.0243 33.2108 15.545 32.27C15 31.2004 15 29.8003 15 27Z" stroke="#171717"/>
<path d="M25 24L25 30M25 30L27.5 27.5M25 30L22.5 27.5" stroke="#171717" stroke-linecap="round" stroke-linejoin="round"/>
</svg>
