<svg width="16" height="22" viewBox="0 0 16 22" fill="none" xmlns="http://www.w3.org/2000/svg">
<g id="elements">
<path id="Vector" d="M5.44699 11.4417L2.74694 9.13582C1.58231 8.14121 1 7.6439 1 7C1 6.3561 1.58231 5.85879 2.74694 4.86418L5.44699 2.55829C6.66342 1.51943 7.27164 1 8 1C8.72836 1 9.33658 1.51943 10.553 2.55829L13.2531 4.86418C14.4177 5.85879 15 6.3561 15 7C15 7.6439 14.4177 8.14121 13.2531 9.13582L10.553 11.4417C9.33658 12.4806 8.72836 13 8 13C7.27164 13 6.66342 12.4806 5.44699 11.4417Z" stroke="white" stroke-width="1.5" stroke-linecap="round" stroke-linejoin="round"/>
<path id="Vector_2" d="M1 12L5.39683 15.5118C6.63905 16.5039 7.26015 17 8 17C8.73985 17 9.36095 16.5039 10.6032 15.5118L15 12" stroke="white" stroke-width="1.5" stroke-linecap="round" stroke-linejoin="round"/>
<path id="Vector_3" d="M1 16L5.39683 19.5118C6.63905 20.5039 7.26015 21 8 21C8.73985 21 9.36095 20.5039 10.6032 19.5118L15 16" stroke="white" stroke-width="1.5" stroke-linecap="round" stroke-linejoin="round"/>
</g>
</svg>
