<svg width="18" height="22" viewBox="0 0 18 22" fill="none" xmlns="http://www.w3.org/2000/svg">
<path d="M2 5C2.08715 3.58055 2.32629 2.67665 2.98247 2.02513C4.01491 1 5.67661 1 9 1C12.3234 1 13.9851 1 15.0175 2.02513C15.6737 2.67665 15.9128 3.58055 16 5M16 17C15.9128 18.4194 15.6737 19.3233 15.0175 19.9749C13.9851 21 12.3234 21 9 21C5.67661 21 4.01491 21 2.98247 19.9749C2.32629 19.3233 2.08715 18.4194 2 17" stroke="#171717" stroke-width="1.25" stroke-linecap="round"/>
<path d="M8 18H10" stroke="#171717" stroke-width="1.25" stroke-linecap="round" stroke-linejoin="round"/>
<path d="M14.5 8L16.0332 9.58579C16.6777 10.2525 17 10.5858 17 11C17 11.4142 16.6777 11.7475 16.0332 12.4142L14.5 14" stroke="#171717" stroke-width="1.25" stroke-linecap="round" stroke-linejoin="round"/>
<path d="M3.5 8L1.96682 9.58579C1.32228 10.2525 1 10.5858 1 11C1 11.4142 1.32227 11.7475 1.96682 12.4142L3.5 14" stroke="#171717" stroke-width="1.25" stroke-linecap="round" stroke-linejoin="round"/>
</svg>
