<svg width="24" height="21" viewBox="0 0 24 21" fill="none" xmlns="http://www.w3.org/2000/svg">
<g id="Group 1171276009">
<circle id="Vector" cx="12" cy="5" r="4" stroke="white" stroke-width="1.5"/>
<path id="Vector_2" d="M18 8C19.6569 8 21 6.88071 21 5.5C21 4.11929 19.6569 3 18 3" stroke="white" stroke-width="1.5" stroke-linecap="round"/>
<path id="Vector_3" d="M6 8C4.34315 8 3 6.88071 3 5.5C3 4.11929 4.34315 3 6 3" stroke="white" stroke-width="1.5" stroke-linecap="round"/>
<path id="Vector_4" d="M13 12.0553C12.6748 12.0189 12.3407 12 12 12C8.68629 12 6 13.7909 6 16C6 18.2091 8.68629 20 12 20C15.3137 20 18 18.2091 18 16C18 15.2714 17.7078 14.5883 17.1973 14C16.1552 12.8 13.9649 12.1667 13 12" stroke="white" stroke-width="1.5" stroke-linecap="round"/>
<path id="Vector_5" d="M20 18C21.7542 17.6153 23 16.6411 23 15.5C23 14.3589 21.7542 13.3847 20 13" stroke="white" stroke-width="1.5" stroke-linecap="round"/>
<path id="Vector_6" d="M4 18C2.24575 17.6153 1 16.6411 1 15.5C1 14.3A589 2.24575 13.3847 4 13" stroke="white" stroke-width="1.5" stroke-linecap="round"/>
</g>
</svg>
