<svg width="44" height="44" viewBox="0 0 44 44" fill="none" xmlns="http://www.w3.org/2000/svg">
<g id="Group 1171276022">
<g id="Group 1171275209">
<g id="Group 102412">
<circle id="Ellipse 2172" cx="22" cy="22" r="22" fill="#F7F7FC"/>
</g>
</g>
<g id="Group 1171275793">
<path id="Rectangle 2177" d="M21.4118 30.5C17.9178 30.5 16.1709 30.5 15.0854 29.4749C14 28.4497 14 26.7998 14 23.5L14 20C14 16.7002 14 15.0503 15.0854 14.0251C16.1709 13 17.9178 13 21.4118 13L22.3382 13C25.8322 13 27.5791 13 28.6646 14.0251C29.75 15.0503 29.75 16.7002 29.75 20M21.4375 30.5H22.75" stroke="black" stroke-linecap="round"/>
<path id="Vector 4435" d="M18.375 17.375H25.375" stroke="black" stroke-linecap="round"/>
<path id="Vector 4436" d="M18.375 21.75H22.75" stroke="black" stroke-linecap="round"/>
<path id="Ellipse 1570" d="M26.6875 27.5159L25.8981 30.275C25.8625 30.4135 25.9996 30.5337 26.1326 30.4806L27.87 29.7867C27.9535 29.7534 28.0465 29.7534 28.13 29.7867L29.884 30.4872C30.0137 30.539 30.149 30.4256 30.1202 30.289L29.4515 27.4297M30.625 25.2457C30.625 23.7983 29.4497 22.625 28 22.625C26.5503 22.625 25.375 23.7983 25.375 25.2457C25.375 26.6931 26.5503 27.8665 28 27.8665C29.4497 27.8665 30.625 26.6931 30.625 25.2457Z" stroke="black" stroke-linejoin="round"/>
</g>
</g>
</svg>
