<svg width="205" height="518" viewBox="0 0 205 518" fill="none" xmlns="http://www.w3.org/2000/svg">
<circle cx="103.011" cy="39.6377" r="38.9999" stroke="black" stroke-width="1.27572"/>
<path d="M92.3848 85.6546V78.5273H113.517V85.6546H92.3848Z" stroke="black" stroke-width="1.27572"/>
<path d="M142.239 358.873L138.772 129.417L142.648 92.4047V92.4047C117.264 81.9147 88.7571 81.9147 63.373 92.4047V92.4047L66.6241 129.417L64.069 358.873" stroke="black" stroke-width="1.27572"/>
<path d="M63.998 105.16L85.2162 99.2187C88.6896 98.2461 92.1321 100.857 92.1321 104.464V104.464C92.1321 107.472 94.5709 109.911 97.5792 109.911H108.36C111.344 109.911 113.764 107.492 113.764 104.507V104.507C113.764 100.898 117.233 98.3035 120.695 99.3225L140.523 105.16" stroke="black" stroke-width="1.27572"/>
<path d="M39.298 386.039L39.5686 386.617L39.298 386.039ZM33.0101 388.986L33.2807 389.563L33.0101 388.986ZM20.4141 500.881H19.7762V501.326L20.1938 501.48L20.4141 500.881ZM60.5634 365.388L61.1358 365.669V365.669L60.5634 365.388ZM96.5219 516.628L96.5573 515.991L96.5219 516.628ZM21.3997 416.171L20.826 415.892H20.826L21.3997 416.171ZM51.9864 377.238L51.5402 376.783L51.9864 377.238ZM167.009 386.039L166.738 386.617L167.009 386.039ZM173.297 388.986L173.026 389.563L173.297 388.986ZM185.893 500.881L186.113 501.48L186.53 501.326V500.881H185.893ZM145.743 365.388L145.171 365.669V365.669L145.743 365.388ZM109.785 516.628L109.749 515.991L109.785 516.628ZM184.907 416.171L185.481 415.892L184.907 416.171ZM154.32 377.238L154.766 376.783L154.32 377.238ZM39.0273 385.462L32.7394 388.408L33.2807 389.563L39.5686 386.617L39.0273 385.462ZM21.7475 405.698V411.886H23.0233V405.698H21.7475ZM19.7762 420.457V500.881H21.0519V420.457H19.7762ZM63.4432 358.083L59.9909 365.106L61.1358 365.669L64.5881 358.646L63.4432 358.083ZM96.4865 517.265L103.175 517.637L103.246 516.363L96.5573 515.991L96.4865 517.265ZM20.1938 501.48C44.701 510.497 70.4134 515.817 96.4865 517.265L96.5573 515.991C70.6105 514.55 45.0227 509.256 20.6343 500.283L20.1938 501.48ZM20.826 415.892C20.1351 417.315 19.7762 418.875 19.7762 420.457H21.0519C21.0519 419.068 21.367 417.698 21.9735 416.45L20.826 415.892ZM21.7475 411.886C21.7475 413.274 21.4324 414.644 20.826 415.892L21.9735 416.45C22.6643 415.028 23.0233 413.467 23.0233 411.886H21.7475ZM59.9909 365.106C57.8563 369.449 54.9986 373.398 51.5402 376.783L52.4326 377.694C55.9943 374.208 58.9374 370.142 61.1358 365.669L59.9909 365.106ZM32.7394 388.408C26.0319 391.551 21.7475 398.29 21.7475 405.698H23.0233C23.0233 398.785 27.0213 392.497 33.2807 389.563L32.7394 388.408ZM39.5686 386.617C44.3276 384.387 48.6766 381.37 52.4326 377.694L51.5402 376.783C47.8867 380.358 43.6564 383.292 39.0273 385.462L39.5686 386.617ZM166.738 386.617L173.026 389.563L173.567 388.408L167.279 385.462L166.738 386.617ZM183.283 405.698V411.886H184.559V405.698H183.283ZM185.255 420.457V500.881H186.53V420.457H185.255ZM141.719 358.646L145.171 365.669L146.316 365.106L142.863 358.083L141.719 358.646ZM109.749 515.991L103.061 516.363L103.131 517.637L109.82 517.265L109.749 515.991ZM185.672 500.283C161.284 509.256 135.696 514.55 109.749 515.991L109.82 517.265C135.893 515.817 161.606 510.497 186.113 501.48L185.672 500.283ZM184.333 416.45C184.94 417.698 185.255 419.068 185.255 420.457H186.53C186.53 418.875 186.171 417.315 185.481 415.892L184.333 416.45ZM183.283 411.886C183.283 413.467 183.642 415.028 184.333 416.45L185.481 415.892C184.874 414.644 184.559 413.274 184.559 411.886H183.283ZM145.171 365.669C147.369 370.142 150.312 374.208 153.874 377.694L154.766 376.783C151.308 373.398 148.45 369.449 146.316 365.106L145.171 365.669ZM173.026 389.563C179.285 392.497 183.283 398.785 183.283 405.698H184.559C184.559 398.29 180.275 391.551 173.567 388.408L173.026 389.563ZM167.279 385.462C162.65 383.292 158.42 380.358 154.766 376.783L153.874 377.694C157.63 381.37 161.979 384.387 166.738 386.617L167.279 385.462Z" fill="black"/>
<path d="M24.4746 397.332V397.332C76.3332 408.865 130.092 408.865 181.951 397.332V397.332" stroke="black" stroke-width="1.27572"/>
<path d="M20.6465 418.666V418.666C74.9344 430.883 131.368 430.866 185.66 418.666V418.666" stroke="black" stroke-width="1.27572"/>
<mask id="path-8-outside-1_1100_5470" maskUnits="userSpaceOnUse" x="76" y="27" width="19" height="18" fill="black">
<rect fill="white" x="76" y="27" width="19" height="18"/>
<path d="M88.4031 43.3874H82.8911C81.5939 43.3874 80.3498 42.9026 79.4326 42.0396C78.5153 41.1766 78 40.0062 78 38.7858V33.6016C78 32.3812 78.5153 31.2108 79.4326 30.3478C80.3498 29.4848 81.5939 29 82.8911 29H88.4031C89.7003 29 90.9443 29.4848 91.8616 30.3478C92.7789 31.2108 93.2942 32.3812 93.2942 33.6016V38.7873C93.2942 40.0077 92.7789 41.1782 91.8616 42.0411C90.9443 42.9041 89.7003 43.3889 88.4031 43.3889"/>
</mask>
<path d="M82.8911 43.3874V44.6674V43.3874ZM78 38.7858H76.72H78ZM78 33.6016H76.72H78ZM82.8911 29V27.72V29ZM88.4031 29V27.72V29ZM93.2942 33.6016H94.5742H93.2942ZM88.4031 42.1074H82.8911V44.6674H88.4031V42.1074ZM82.8911 42.1074C81.9091 42.1074 80.9817 41.7396 80.3097 41.1073L78.5555 42.9719C79.718 44.0655 81.2788 44.6674 82.8911 44.6674V42.1074ZM80.3097 41.1073C79.6402 40.4775 79.28 39.6406 79.28 38.7858H76.72C76.72 40.3717 77.3904 41.8757 78.5555 42.9719L80.3097 41.1073ZM79.28 38.7858V33.6016H76.72V38.7858H79.28ZM79.28 33.6016C79.28 32.7467 79.6402 31.9098 80.3097 31.28L78.5555 29.4155C77.3904 30.5117 76.72 32.0156 76.72 33.6016H79.28ZM80.3097 31.28C80.9817 30.6478 81.9091 30.28 82.8911 30.28V27.72C81.2788 27.72 79.718 28.3219 78.5555 29.4155L80.3097 31.28ZM82.8911 30.28H88.4031V27.72H82.8911V30.28ZM88.4031 30.28C89.3851 30.28 90.3125 30.6478 90.9845 31.28L92.7387 29.4155C91.5762 28.3219 90.0154 27.72 88.4031 27.72V30.28ZM90.9845 31.28C91.6539 31.9098 92.0142 32.7467 92.0142 33.6016H94.5742C94.5742 32.0156 93.9038 30.5117 92.7387 29.4155L90.9845 31.28ZM92.0142 33.6016V38.7873H94.5742V33.6016H92.0142ZM92.0142 38.7873C92.0142 39.6422 91.6539 40.4791 90.9845 41.1089L92.7387 42.9734C93.9038 41.8772 94.5742 40.3733 94.5742 38.7873H92.0142ZM90.9845 41.1089C90.3125 41.7411 89.3851 42.1089 88.4031 42.1089V44.6689C90.0154 44.6689 91.5762 44.067 92.7387 42.9734L90.9845 41.1089Z" fill="black" mask="url(#path-8-outside-1_1100_5470)"/>
<mask id="path-10-outside-2_1100_5470" maskUnits="userSpaceOnUse" x="110" y="27" width="19" height="18" fill="black">
<rect fill="white" x="110" y="27" width="19" height="18"/>
<path d="M122.403 43.3874H116.891C115.594 43.3874 114.35 42.9026 113.433 42.0396C112.515 41.1766 112 40.0062 112 38.7858V33.6016C112 32.3812 112.515 31.2108 113.433 30.3478C114.35 29.4848 115.594 29 116.891 29H122.403C123.7 29 124.944 29.4848 125.862 30.3478C126.779 31.2108 127.294 32.3812 127.294 33.6016V38.7873C127.294 40.0077 126.779 41.1782 125.862 42.0411C124.944 42.9041 123.7 43.3889 122.403 43.3889"/>
</mask>
<path d="M116.891 43.3874V44.6674V43.3874ZM112 38.7858H110.72H112ZM112 33.6016H110.72H112ZM116.891 29V27.72V29ZM122.403 29V27.72V29ZM127.294 33.6016H128.574H127.294ZM122.403 42.1074H116.891V44.6674H122.403V42.1074ZM116.891 42.1074C115.909 42.1074 114.982 41.7396 114.31 41.1073L112.555 42.9719C113.718 44.0655 115.279 44.6674 116.891 44.6674V42.1074ZM114.31 41.1073C113.64 40.4775 113.28 39.6406 113.28 38.7858H110.72C110.72 40.3717 111.39 41.8757 112.555 42.9719L114.31 41.1073ZM113.28 38.7858V33.6016H110.72V38.7858H113.28ZM113.28 33.6016C113.28 32.7467 113.64 31.9098 114.31 31.28L112.555 29.4155C111.39 30.5117 110.72 32.0156 110.72 33.6016H113.28ZM114.31 31.28C114.982 30.6478 115.909 30.28 116.891 30.28V27.72C115.279 27.72 113.718 28.3219 112.555 29.4155L114.31 31.28ZM116.891 30.28H122.403V27.72H116.891V30.28ZM122.403 30.28C123.385 30.28 124.312 30.6478 124.985 31.28L126.739 29.4155C125.576 28.3219 124.015 27.72 122.403 27.72V30.28ZM124.985 31.28C125.654 31.9098 126.014 32.7467 126.014 33.6016H128.574C128.574 32.0156 127.904 30.5117 126.739 29.4155L124.985 31.28ZM126.014 33.6016V38.7873H128.574V33.6016H126.014ZM126.014 38.7873C126.014 39.6422 125.654 40.4791 124.985 41.1089L126.739 42.9734C127.904 41.8772 128.574 40.3733 128.574 38.7873H126.014ZM124.985 41.1089C124.312 41.7411 123.385 42.1089 122.403 42.1089V44.6689C124.015 44.6689 125.576 44.067 126.739 42.9734L124.985 41.1089Z" fill="black" mask="url(#path-10-outside-2_1100_5470)"/>
<path d="M109.603 48.8224C108.424 51.1148 105.641 52.6396 102.499 52.6396C99.3558 52.6396 96.5731 51.1148 95.3947 48.8224H109.603ZM109.603 48.8224C109.997 48.0544 109.803 47.2536 109.31 46.6914M109.603 48.8224L109.31 46.6914M109.31 46.6914C108.828 46.1422 108.063 45.8053 107.216 45.8053M109.31 46.6914L107.216 45.8053M107.216 45.8053H97.7817C96.9347 45.8053 96.1694 46.1422 95.6875 46.6914M107.216 45.8053L95.6875 46.6914M95.6875 46.6914C95.1942 47.2535 94.9998 48.0544 95.3947 48.8223L95.6875 46.6914Z" stroke="black" stroke-width="1.28"/>
</svg>
