<svg width="71" height="71" viewBox="0 0 71 71" fill="none" xmlns="http://www.w3.org/2000/svg">
<circle cx="35.5" cy="35.5" r="35.5" fill="#F7F7FC"/>
<path d="M27.6521 33.1037C30.6692 27.765 32.1778 25.0956 34.2478 24.4085C35.3866 24.0305 36.6134 24.0305 37.7522 24.4085C39.8222 25.0956 41.3308 27.765 44.3479 33.1037C47.365 38.4423 48.8735 41.1117 48.421 43.2867C48.172 44.4832 47.5587 45.5686 46.6688 46.3871C45.0513 47.875 42.0342 47.875 36 47.875C29.9658 47.875 26.9487 47.875 25.3312 46.3871C24.4413 45.5686 23.828 44.4832 23.579 43.2867C23.1265 41.1117 24.635 38.4423 27.6521 33.1037Z" stroke="#141B34" stroke-width="1.875"/>
<path d="M36.3027 42.25V37.25C36.3027 36.6607 36.3027 36.3661 36.1197 36.1831C35.9366 36 35.642 36 35.0527 36" stroke="#141B34" stroke-width="1.875" stroke-linecap="round" stroke-linejoin="round"/>
<path d="M35.99 32.25H36.0012" stroke="#141B34" stroke-width="2.5" stroke-linecap="round" stroke-linejoin="round"/>
</svg>
