<svg width="63" height="62" viewBox="0 0 63 62" fill="none" xmlns="http://www.w3.org/2000/svg">
<circle cx="31.4572" cy="30.8644" r="30.8643" fill="white"/>
<path d="M22.588 34.412C22.588 32.3376 22.588 31.3004 23.0638 30.5432C23.3119 30.1484 23.6458 29.8145 24.0407 29.5664C24.7979 29.0906 25.8351 29.0906 27.9095 29.0906H35.0047C37.0791 29.0906 38.1163 29.0906 38.8735 29.5664C39.2683 29.8145 39.6022 30.1484 39.8503 30.5432C40.3261 31.3004 40.3261 32.3376 40.3261 34.412C40.3261 36.4864 40.3261 37.5236 39.8503 38.2808C39.6022 38.6756 39.2683 39.0095 38.8735 39.2576C38.1163 39.7334 37.0791 39.7334 35.0047 39.7334H27.9095C25.8351 39.7334 24.7979 39.7334 24.0407 39.2576C23.6458 39.0095 23.3119 38.6756 23.0638 38.2808C22.588 37.5236 22.588 36.4864 22.588 34.412Z" stroke="#009AF1" stroke-width="1.27714" stroke-linecap="round" stroke-linejoin="round"/>
<path d="M38.5523 29.0906C38.5523 27.8488 38.5523 27.2279 38.3106 26.7536C38.098 26.3364 37.7588 25.9972 37.3416 25.7846C36.8673 25.543 36.2464 25.543 35.0047 25.543H27.9094C26.6676 25.543 26.0468 25.543 25.5725 25.7846C25.1553 25.9972 24.8161 26.3364 24.6035 26.7536C24.3618 27.2279 24.3618 27.8488 24.3618 29.0906" stroke="#009AF1" stroke-width="1.27714" stroke-linecap="round" stroke-linejoin="round"/>
<path d="M36.7785 25.5429C36.7785 23.8705 36.7785 23.0343 36.259 22.5148C35.7394 21.9952 34.9032 21.9952 33.2309 21.9952H29.6833C28.0109 21.9952 27.1747 21.9952 26.6552 22.5148C26.1356 23.0343 26.1356 23.8705 26.1356 25.5429" stroke="#009AF1" stroke-width="1.27714" stroke-linecap="round" stroke-linejoin="round"/>
<path d="M34.1178 32.6381C34.1178 33.6177 33.3236 34.4119 32.344 34.4119H30.5702C29.5905 34.4119 28.7964 33.6177 28.7964 32.6381" stroke="#009AF1" stroke-width="1.27714" stroke-linecap="round"/>
</svg>
