<svg width="70" height="70" viewBox="0 0 70 70" fill="none" xmlns="http://www.w3.org/2000/svg">
<circle cx="35" cy="35" r="35" fill="#F7F7FC"/>
<path d="M25.7799 40.959C25.7799 41.494 26.2137 41.9277 26.7487 41.9277C27.2837 41.9277 27.7174 41.494 27.7174 40.959H25.7799ZM46.2804 22.7189L46.9654 22.0339V22.0339L46.2804 22.7189ZM39.9265 43.5224L40.8714 43.3087L39.9265 43.5224ZM21.805 43.5224L20.8602 43.7362L21.805 43.5224ZM21.8332 41.4441L22.5893 42.0498L21.8332 41.4441ZM34.4987 22.5527H39.6654V20.6152H34.4987V22.5527ZM46.4466 29.334V42.2507H48.3841V29.334H46.4466ZM27.7174 40.959V29.334H25.7799V40.959H27.7174ZM34.4987 20.6152C32.6994 20.6152 31.2525 20.6132 30.1177 20.7657C28.955 20.9221 27.9761 21.2565 27.1986 22.0339L28.5687 23.404C28.9262 23.0465 29.4281 22.8134 30.3759 22.686C31.3515 22.5548 32.6446 22.5527 34.4987 22.5527V20.6152ZM27.7174 29.334C27.7174 27.4799 27.7195 26.1868 27.8507 25.2111C27.9781 24.2633 28.2112 23.7614 28.5687 23.404L27.1986 22.0339C26.4212 22.8114 26.0868 23.7903 25.9305 24.953C25.7779 26.0877 25.7799 27.5347 25.7799 29.334H27.7174ZM39.6654 22.5527C41.5194 22.5527 42.8125 22.5548 43.7882 22.686C44.736 22.8134 45.2379 23.0465 45.5954 23.404L46.9654 22.0339C46.1879 21.2565 45.209 20.9221 44.0464 20.7657C42.9116 20.6132 41.4647 20.6152 39.6654 20.6152V22.5527ZM48.3841 29.334C48.3841 27.5347 48.3862 26.0877 48.2336 24.953C48.0773 23.7903 47.7429 22.8114 46.9654 22.0339L45.5954 23.404C45.9529 23.7614 46.186 24.2633 46.3134 25.2111C46.4446 26.1868 46.4466 27.4799 46.4466 29.334H48.3841ZM46.4466 42.2507C46.4466 43.5882 46.2022 44.6622 45.7361 45.3727C45.3111 46.0204 44.6529 46.4486 43.5322 46.4486V48.3861C45.271 48.3861 46.5543 47.6576 47.3561 46.4354C48.1167 45.2759 48.3841 43.7665 48.3841 42.2507H46.4466ZM43.5322 46.4486C42.8506 46.4486 42.3265 46.1601 41.8913 45.6322C41.4335 45.0769 41.0874 44.2633 40.8714 43.3087L38.9817 43.7362C39.2354 44.8578 39.6766 45.9917 40.3964 46.8647C41.1388 47.7652 42.1828 48.3861 43.5322 48.3861V46.4486ZM25.4107 46.4486C24.7291 46.4486 24.205 46.1601 23.7698 45.6322C23.312 45.0769 22.9659 44.2633 22.7499 43.3087L20.8602 43.7362C21.1139 44.8578 21.5551 45.9917 22.2749 46.8647C23.0173 47.7652 24.0612 48.3861 25.4107 48.3861V46.4486ZM25.4107 48.3861H43.5322V46.4486H25.4107V48.3861ZM24.1163 41.9277H37.0602V39.9902H24.1163V41.9277ZM22.7499 43.3087C22.6216 42.7416 22.559 42.4468 22.5514 42.2328C22.5464 42.0898 22.5677 42.0767 22.5893 42.0498L21.0772 40.8384C20.7101 41.2966 20.5972 41.7916 20.6151 42.301C20.6306 42.7394 20.7482 43.2411 20.8602 43.7362L22.7499 43.3087ZM24.1163 39.9902C23.5185 39.9902 22.9499 39.9871 22.4878 40.064C21.9733 40.1497 21.4669 40.3519 21.0772 40.8384L22.5893 42.0498C22.601 42.0352 22.606 42.032 22.6169 42.0264C22.6359 42.0167 22.688 41.9949 22.8059 41.9752C23.0725 41.9309 23.4511 41.9277 24.1163 41.9277V39.9902ZM40.8714 43.3087C40.725 42.6617 40.6013 42.1101 40.4646 41.6894C40.333 41.2841 40.135 40.8121 39.7242 40.4844L38.516 41.999C38.4596 41.9541 38.5142 41.9565 38.6219 42.2879C38.7245 42.6038 38.8267 43.0512 38.9817 43.7362L40.8714 43.3087ZM37.0602 41.9277C37.6507 41.9277 38.0154 41.9291 38.28 41.9575C38.5345 41.9849 38.5493 42.0257 38.516 41.999L39.7242 40.4844C39.3364 40.1751 38.8897 40.0744 38.4872 40.0311C38.0947 39.9889 37.6067 39.9902 37.0602 39.9902V41.9277Z" fill="#009AF1"/>
<path d="M32.5605 28.042H41.6022" stroke="#009AF1" stroke-width="1.9375" stroke-linecap="round"/>
<path d="M32.5605 33.209H37.0814" stroke="#009AF1" stroke-width="1.9375" stroke-linecap="round"/>
</svg>
