<svg width="44" height="44" viewBox="0 0 44 44" fill="none" xmlns="http://www.w3.org/2000/svg">
<g id="Group 1171275837">
<g id="Group 1171276181">
<circle id="Ellipse 2172" cx="22" cy="22" r="22" fill="#F7F7FC"/>
<g id="Group 1171276180">
<g id="Group 1171276179">
<g id="Vector">
<path fill-rule="evenodd" clip-rule="evenodd" d="M22.0833 13.4522C21.6613 13.3805 21.086 13.375 20.0481 13.375C18.2912 13.375 17.0424 13.3765 16.0955 13.5032C15.168 13.6274 14.635 13.8602 14.2476 14.2476C13.8596 14.6356 13.6271 15.1669 13.5031 16.0892C13.3765 17.0312 13.375 18.273 13.375 20.0209V23.6875C13.375 25.4355 13.3765 26.6772 13.5031 27.6193C13.6271 28.5415 13.8596 29.0729 14.2476 29.4608C14.6355 29.8487 15.1669 30.0813 16.0891 30.2053C17.0311 30.3319 18.2729 30.3334 20.0208 30.3334H23.6875C25.4354 30.3334 26.6772 30.3319 27.6192 30.2053C28.5415 30.0813 29.0728 29.8487 29.4608 29.4608C29.8487 29.0729 30.0812 28.5415 30.2052 27.6193C30.3319 26.6772 30.3333 25.4355 30.3333 23.6875V23.2869C30.3333 21.8789 30.3235 21.2114 30.174 20.7084H27.305C26.2665 20.7084 25.4179 20.7084 24.748 20.6183C24.0477 20.5242 23.4405 20.3204 22.9559 19.8358C22.4713 19.3512 22.2675 18.744 22.1734 18.0437C22.0833 17.3738 22.0833 16.5252 22.0833 15.4868V13.4522ZM23.4583 14.1629V15.4375C23.4583 16.5373 23.4598 17.2929 23.5361 17.8605C23.6098 18.4083 23.7416 18.677 23.9282 18.8635C24.1148 19.0501 24.3834 19.182 24.9312 19.2556C25.4988 19.3319 26.2544 19.3334 27.3542 19.3334H29.2053C28.9336 19.0698 28.5854 18.754 28.1333 18.3471L24.5045 15.0811C24.0595 14.6806 23.7284 14.385 23.4583 14.1629ZM20.1817 12C21.4509 11.9997 22.2709 11.9995 23.0256 12.2891C23.7803 12.5787 24.3871 13.1251 25.3258 13.9704C25.3583 13.9996 25.3911 14.0291 25.4243 14.059L29.0532 17.325C29.0918 17.3598 29.1299 17.3941 29.1677 17.428C30.2527 18.404 30.9543 19.035 31.3317 19.8824C31.7091 20.7298 31.7088 21.6735 31.7084 23.1328C31.7083 23.1836 31.7083 23.2349 31.7083 23.2869V23.7393C31.7083 25.4239 31.7084 26.7582 31.568 27.8025C31.4235 28.8772 31.119 29.7471 30.433 30.4331C29.747 31.1191 28.8772 31.4235 27.8024 31.568C26.7582 31.7084 25.4238 31.7084 23.7392 31.7084H19.9691C18.2845 31.7084 16.9502 31.7084 15.9059 31.568C14.8312 31.4235 13.9613 31.1191 13.2753 30.4331C12.5893 29.7471 12.2849 28.8772 12.1404 27.8025C12 26.7582 12 25.4239 12 23.7393V19.9692C12 18.2846 12 16.9502 12.1404 15.9059C12.2849 14.8312 12.5893 13.9614 13.2753 13.2754C13.9618 12.5888 14.8346 12.2847 15.9131 12.1404C16.9618 12 18.3027 12 19.9966 12L20.0481 12C20.0932 12 20.1377 12 20.1817 12Z" fill="#1C274C"/>
<path fill-rule="evenodd" clip-rule="evenodd" d="M19.116 22.7277C18.8516 22.4797 18.4401 22.4797 18.1756 22.7277L16.3423 24.4464C16.0653 24.7061 16.0513 25.1412 16.3109 25.4182C16.5706 25.6952 17.0057 25.7092 17.2827 25.4495L17.9583 24.8161L17.9583 27.8125C17.9583 28.1922 18.2661 28.5 18.6458 28.5C19.0255 28.5 19.3333 28.1922 19.3333 27.8125L19.3333 24.8161L20.009 25.4495C20.286 25.7092 20.721 25.6952 20.9807 25.4182C21.2404 25.1412 21.2264 24.7061 20.9494 24.4464L19.116 22.7277Z" fill="#1C274C"/>
</g>
</g>
</g>
</g>
</g>
</svg>
