<svg width="44" height="44" viewBox="0 0 44 44" fill="none" xmlns="http://www.w3.org/2000/svg">
<circle cx="22" cy="22" r="22" fill="white"/>
<g clip-path="url(#clip0_1276_19930)">
<path d="M32.2982 23.1631C32.1876 23.3603 32.0191 23.4447 31.7941 23.4689C31.3124 23.5204 30.8328 23.5891 30.3535 23.6619C30.267 23.6752 30.1709 23.7239 30.1098 23.7863C29.7604 24.1419 29.4218 24.5084 29.0765 24.8682C28.7778 25.1789 28.4804 25.1294 28.2932 24.7401C28.0773 24.2912 27.8681 23.8391 27.646 23.3936C27.6069 23.3154 27.5303 23.2384 27.4521 23.1993C27.0066 22.9772 26.5545 22.7684 26.106 22.5516C25.715 22.3628 25.6655 22.0645 25.9754 21.7684C26.3361 21.4239 26.7021 21.0849 27.0582 20.7359C27.1206 20.6748 27.1701 20.5783 27.183 20.4917C27.2587 19.9851 27.3224 19.4768 27.3885 18.9693C27.4363 18.6036 27.7213 18.4489 28.0499 18.6224C28.5025 18.8611 28.948 19.114 29.4022 19.3503C29.4858 19.3936 29.6006 19.4123 29.6938 19.3969C30.1988 19.3129 30.7005 19.2101 31.2046 19.1228C31.5636 19.0608 31.7833 19.28 31.7213 19.6394C31.6347 20.144 31.5341 20.6461 31.4459 21.1502C31.4326 21.2268 31.4301 21.3224 31.4646 21.3869C31.7367 21.899 32.0191 22.4056 32.2982 22.914V23.1635V23.1631ZM28.1451 19.6186C28.099 19.9676 28.0453 20.2937 28.0162 20.6219C27.9921 20.8977 27.9043 21.1207 27.6826 21.3046C27.4197 21.5225 27.1822 21.7713 26.9214 22.0184C27.2874 22.1927 27.6219 22.3586 27.9625 22.5113C28.1368 22.5895 28.2541 22.706 28.3323 22.8807C28.4862 23.2243 28.6539 23.5616 28.8261 23.9231C29.1065 23.6265 29.3581 23.3407 29.6335 23.0791C29.7408 22.9772 29.8935 22.8927 30.0382 22.8653C30.4222 22.7921 30.8132 22.7538 31.2234 22.6985C31.027 22.3366 30.8319 22.0021 30.6647 21.6544C30.6035 21.5271 30.5744 21.3628 30.5927 21.223C30.6435 20.8349 30.7263 20.4514 30.8011 20.0421C30.411 20.114 30.0445 20.1744 29.6818 20.2517C29.4867 20.2933 29.319 20.2655 29.1468 20.1656C28.8248 19.9789 28.4937 19.8075 28.1451 19.6182V19.6186Z" fill="black"/>
<path d="M11 22.9132C11.2791 22.4048 11.5611 21.8978 11.8344 21.3865C11.8665 21.3266 11.8694 21.2393 11.8569 21.1694C11.7733 20.6993 11.6814 20.231 11.5928 19.7617C11.5824 19.7072 11.5749 19.6523 11.5686 19.5974C11.5324 19.2821 11.7392 19.0658 12.0532 19.117C12.5653 19.2002 13.0732 19.3075 13.5853 19.3903C13.6909 19.4073 13.8207 19.3886 13.9151 19.3399C14.3519 19.1153 14.7791 18.872 15.2113 18.639C15.5857 18.4373 15.8582 18.5845 15.9131 19.0113C15.9767 19.5055 16.0403 20.0001 16.1148 20.4926C16.1277 20.5787 16.1789 20.6744 16.2413 20.7359C16.5874 21.0754 16.9426 21.4057 17.2941 21.7397C17.6431 22.0716 17.5944 22.362 17.1547 22.5721C16.718 22.7809 16.2787 22.9847 15.8453 23.201C15.7671 23.2401 15.6905 23.3162 15.6514 23.3944C15.4268 23.8466 15.2155 24.3054 14.9954 24.7597C14.8195 25.1232 14.5141 25.1727 14.2346 24.882C13.8839 24.5176 13.5416 24.1453 13.1876 23.7842C13.126 23.7214 13.0295 23.6723 12.943 23.6594C12.4642 23.5866 11.9842 23.5155 11.5025 23.4676C11.2745 23.4448 11.1127 23.3549 11 23.1627C11 23.0795 11 22.9963 11 22.9132ZM16.3773 22.018C16.1065 21.7617 15.8656 21.5126 15.6019 21.2904C15.3943 21.1157 15.3087 20.9044 15.2841 20.644C15.2529 20.3092 15.2001 19.9768 15.1539 19.6203C14.7983 19.8133 14.4709 20.0072 14.1285 20.1681C13.9888 20.2339 13.8107 20.2659 13.6585 20.2468C13.277 20.1993 12.9006 20.1145 12.4963 20.04C12.5582 20.3824 12.5973 20.7043 12.6785 21.0155C12.7558 21.3117 12.7176 21.5642 12.5541 21.8225C12.3798 22.0983 12.2396 22.3957 12.0765 22.6989C12.4376 22.7459 12.7662 22.7992 13.0965 22.8287C13.3661 22.8528 13.5795 22.9477 13.7583 23.1602C13.978 23.4219 14.2263 23.6598 14.4734 23.9202C14.6535 23.5434 14.8091 23.1881 14.9933 22.8478C15.0607 22.7239 15.1789 22.6053 15.3028 22.5379C15.6427 22.3537 15.9979 22.1985 16.3777 22.0171L16.3773 22.018Z" fill="black"/>
<path d="M19.0396 18.1832C19.0396 18.1208 19.0284 18.0563 19.0413 17.9964C19.1881 17.315 18.9606 16.7668 18.4884 16.2751C18.2168 15.9922 17.9992 15.6566 17.7605 15.3421C17.5275 15.0351 17.6257 14.7323 17.9963 14.6204C18.6253 14.4307 19.2572 14.251 19.884 14.0546C19.9851 14.023 20.0916 13.9452 20.1532 13.8587C20.5292 13.3275 20.8919 12.7872 21.2617 12.2514C21.4918 11.9182 21.8033 11.9149 22.0334 12.2456C22.4086 12.7859 22.7742 13.3325 23.154 13.8695C23.2114 13.9506 23.3137 14.0214 23.4094 14.0513C24.03 14.2443 24.6552 14.4224 25.2775 14.61C25.6852 14.7327 25.7771 15.0288 25.5163 15.3704C25.1253 15.882 24.728 16.3891 24.3433 16.9057C24.2796 16.9914 24.2359 17.1158 24.2368 17.2219C24.2443 17.8662 24.2671 18.5101 24.285 19.1541C24.2971 19.5879 24.0542 19.7714 23.6473 19.6283C23.0342 19.4124 22.4244 19.1878 21.8091 18.9781C21.7147 18.9461 21.5903 18.9465 21.4955 18.9785C20.8932 19.1836 20.2958 19.402 19.6964 19.615C19.238 19.778 18.998 19.6025 19.0142 19.1175C19.0196 18.9581 19.0238 18.7988 19.0259 18.6395C19.0279 18.4873 19.0263 18.3346 19.0263 18.1823C19.0304 18.1823 19.0346 18.1823 19.0392 18.1823L19.0396 18.1832ZM24.5492 15.2643C24.1357 15.1428 23.7522 15.0031 23.357 14.9207C22.8982 14.8254 22.5766 14.595 22.3458 14.1844C22.1482 13.8325 21.8932 13.5126 21.6494 13.1578C21.3304 13.6229 21.0255 14.0588 20.7309 14.5014C20.6249 14.6611 20.4909 14.7551 20.3067 14.8067C19.795 14.9502 19.2871 15.1066 18.7567 15.2643C18.81 15.3375 18.8491 15.3924 18.8898 15.4461C19.1806 15.825 19.4809 16.1977 19.758 16.5867C19.8399 16.7015 19.8923 16.8625 19.8953 17.0035C19.9027 17.4115 19.877 17.8204 19.8661 18.2289C19.8624 18.3699 19.8657 18.5114 19.8657 18.6724C20.3786 18.4893 20.8686 18.3213 21.3528 18.1387C21.5596 18.0609 21.7488 18.0621 21.9552 18.1399C22.4389 18.3225 22.9285 18.4897 23.3969 18.6566C23.3969 18.1154 23.404 17.5838 23.3932 17.053C23.389 16.8533 23.4431 16.6932 23.5662 16.5384C23.8928 16.127 24.2089 15.7073 24.5492 15.2651V15.2643Z" fill="black"/>
<path d="M21.3235 31.5199C21.3348 31.7832 21.1929 31.9675 20.9612 31.9896C20.7021 32.0141 20.5253 31.8548 20.4916 31.5499C20.3897 30.6356 20.1563 29.7562 19.7919 28.9118C19.0028 27.0836 17.7932 25.5877 16.2087 24.3893C16.2033 24.3851 16.1975 24.3814 16.1917 24.3772C15.9354 24.1892 15.8726 23.9484 16.0261 23.74C16.175 23.5378 16.4196 23.5183 16.6679 23.6971C16.8364 23.8186 17.0028 23.9438 17.1613 24.0777C18.9217 25.5619 20.2278 27.3619 20.9155 29.574C21.1118 30.2054 21.2237 30.8627 21.3743 31.5083C21.3572 31.512 21.3402 31.5162 21.3231 31.5199H21.3235Z" fill="black"/>
<path d="M21.9672 31.5728C22.1199 30.1535 22.5213 28.8944 23.1573 27.7118C24.0167 26.1136 25.1786 24.7737 26.6357 23.6914C26.8004 23.5691 26.9718 23.5246 27.1561 23.6344C27.3075 23.7247 27.3903 23.8744 27.3408 24.0391C27.3042 24.1606 27.2164 24.2895 27.1149 24.3657C25.9128 25.2654 24.9248 26.3582 24.1519 27.6435C23.4294 28.8453 22.9652 30.1381 22.8092 31.5371C22.7672 31.9148 22.4581 32.1078 22.1736 31.9372C22.0051 31.8361 21.9519 31.6801 21.9672 31.5728Z" fill="black"/>
<path d="M22.0654 23.8914C22.0654 24.98 22.0654 26.0682 22.0654 27.1568C22.0654 27.2259 22.0695 27.2966 22.0587 27.3644C22.0246 27.5769 21.8461 27.7205 21.6336 27.713C21.4306 27.7059 21.2671 27.5595 21.2384 27.3536C21.2309 27.2991 21.2338 27.2429 21.2338 27.1876C21.2338 24.9759 21.2338 22.7641 21.2338 20.5528C21.2338 20.5042 21.2318 20.4555 21.2367 20.4072C21.2609 20.1809 21.4335 20.0254 21.6552 20.0279C21.8678 20.0304 22.0358 20.1805 22.0616 20.3972C22.0699 20.4659 22.0658 20.5358 22.0658 20.6048C22.0658 21.7001 22.0658 22.7957 22.0658 23.891L22.0654 23.8914Z" fill="black"/>
</g>
<defs>
<clipPath id="clip0_1276_19930">
<rect width="21.2978" height="20" fill="white" transform="translate(11 12)"/>
</clipPath>
</defs>
</svg>
