<svg width="26" height="26" viewBox="0 0 26 26" fill="none" xmlns="http://www.w3.org/2000/svg">
<path d="M4.83325 4.83325L5.27519 4.39131C5.03112 4.14723 4.63539 4.14723 4.39131 4.39131L4.83325 4.83325ZM2.70009 6.96642L3.14203 7.40836L2.70009 6.96642ZM6.96642 6.96642L6.52447 7.40836L6.96642 6.96642ZM8.15564 8.40682L8.73306 8.16765L8.73306 8.16765L8.15564 8.40682ZM2.01667 23.9832L2.45861 23.5412H2.45861L2.01667 23.9832ZM1.51087 8.40682L2.08829 8.646H2.08829L1.51087 8.40682ZM4.20825 4.83767C4.20825 5.18285 4.48807 5.46267 4.83325 5.46267C5.17843 5.46267 5.45825 5.18285 5.45825 4.83767H4.20825ZM17.5713 5.42264L18.0512 5.02222V5.02222L17.5713 5.42264ZM19.9999 8.33325H20.6249C20.6249 8.18691 20.5736 8.04521 20.4798 7.93284L19.9999 8.33325ZM5.27747 1.78575L5.71914 2.22797H5.71914L5.27747 1.78575ZM17.1286 4.73741L17.7292 4.56471L17.7292 4.56471L17.1286 4.73741ZM16.7901 1.96169L17.2941 1.59204L17.2941 1.59204L16.7901 1.96169ZM8.33325 7.70825C7.98807 7.70825 7.70825 7.98807 7.70825 8.33325C7.70825 8.67843 7.98807 8.95825 8.33325 8.95825V7.70825ZM11.8333 25.2916C12.1784 25.2916 12.4583 25.0118 12.4583 24.6666C12.4583 24.3214 12.1784 24.0416 11.8333 24.0416V25.2916ZM19.3749 10.6666C19.3749 11.0118 19.6547 11.2916 19.9999 11.2916C20.3451 11.2916 20.6249 11.0118 20.6249 10.6666H19.3749ZM4.39131 4.39131L2.25815 6.52447L3.14203 7.40836L5.27519 5.27519L4.39131 4.39131ZM0.708252 10.2662V19.9999H1.95825V10.2662H0.708252ZM4.39131 5.27519L6.52447 7.40836L7.40836 6.52447L5.27519 4.39131L4.39131 5.27519ZM7.70825 10.2662V24.6666H8.95825V10.2662H7.70825ZM5.99992 25.2916H8.33325V24.0416H5.99992V25.2916ZM6.52447 7.40836C7.23494 8.11882 7.45924 8.35877 7.57821 8.646L8.73306 8.16765C8.49681 7.59728 8.0467 7.16282 7.40836 6.52447L6.52447 7.40836ZM8.95825 10.2662C8.95825 9.36349 8.96932 8.73801 8.73306 8.16765L7.57821 8.646C7.69719 8.93323 7.70825 9.2615 7.70825 10.2662H8.95825ZM0.708252 19.9999C0.708252 21.0822 0.706925 21.9568 0.799252 22.6435C0.893997 23.3482 1.09754 23.9479 1.57473 24.4251L2.45861 23.5412C2.25238 23.335 2.11422 23.043 2.03811 22.4769C1.95958 21.8929 1.95825 21.1175 1.95825 19.9999H0.708252ZM5.99992 24.0416C4.88231 24.0416 4.10697 24.0403 3.5229 23.9617C2.9568 23.8856 2.66484 23.7475 2.45861 23.5412L1.57473 24.4251C2.05192 24.9023 2.65163 25.1058 3.35634 25.2006C4.04306 25.2929 4.91764 25.2916 5.99992 25.2916V24.0416ZM2.25815 6.52447C1.6198 7.16282 1.16969 7.59728 0.933442 8.16765L2.08829 8.646C2.20727 8.35877 2.43157 8.11882 3.14203 7.40836L2.25815 6.52447ZM1.95825 10.2662C1.95825 9.2615 1.96931 8.93323 2.08829 8.646L0.933442 8.16765C0.697189 8.73801 0.708252 9.36349 0.708252 10.2662H1.95825ZM5.45825 4.83767V4.37159H4.20825V4.83767H5.45825ZM7.86659 1.96709H14.3457V0.717091H7.86659V1.96709ZM17.0915 5.82305L19.52 8.73367L20.4798 7.93284L18.0512 5.02222L17.0915 5.82305ZM5.45825 4.37159C5.45825 3.63984 5.45958 3.15398 5.50819 2.79288C5.55437 2.44984 5.63265 2.31435 5.71914 2.22797L4.83581 1.34353C4.47808 1.70081 4.33424 2.14418 4.26937 2.62612C4.20692 3.08999 4.20825 3.67522 4.20825 4.37159H5.45825ZM7.86659 0.717091C7.16927 0.717091 6.58349 0.715767 6.11921 0.778108C5.63704 0.842852 5.19343 0.98636 4.83581 1.34353L5.71914 2.22797C5.80574 2.14148 5.94172 2.06316 6.28557 2.01699C6.64731 1.96842 7.13398 1.96709 7.86659 1.96709V0.717091ZM18.0512 5.02222C17.8394 4.7684 17.7613 4.67615 17.7292 4.56471L16.5279 4.91011C16.65 5.33483 16.9526 5.65665 17.0915 5.82305L18.0512 5.02222ZM16.2861 2.33134C16.4412 2.54279 16.4789 2.81991 16.4592 3.29199C16.4425 3.69307 16.3646 4.34207 16.5279 4.91011L17.7292 4.56471C17.6391 4.25105 17.6845 3.91106 17.7081 3.34413C17.7288 2.84821 17.7241 2.17832 17.2941 1.59204L16.2861 2.33134ZM14.3457 1.96709C14.8198 1.96709 15.2022 1.9362 15.5844 1.9893C15.9377 2.03838 16.1505 2.14643 16.2861 2.33134L17.2941 1.59204C16.8788 1.02588 16.2815 0.82414 15.7564 0.751187C15.2601 0.682249 14.6957 0.717091 14.3457 0.717091V1.96709ZM8.33325 8.95825H19.9999V7.70825H8.33325V8.95825ZM11.8333 24.0416H8.33325V25.2916H11.8333V24.0416ZM19.3749 8.33325V10.6666H20.6249V8.33325H19.3749Z" fill="#626262"/>
<path d="M14.4606 20.676C13.6978 19.9132 14.4708 17.9034 16.1871 16.187C17.9035 14.4706 19.9133 13.6976 20.6761 14.4605M14.4606 20.676C14.4606 21.3666 14.8748 22.4715 15.4965 23.0932C17.5943 25.191 20.9955 25.191 23.0933 23.0932C25.1911 20.9954 25.1911 17.5942 23.0933 15.4964C22.4716 14.8747 21.3667 14.4605 20.6761 14.4605M14.4606 20.676C15.1179 21.3333 16.7012 20.8503 18.2247 19.6059M20.6761 14.4605C21.439 15.2233 20.666 17.2331 18.9496 18.9495C18.7122 19.1868 18.4693 19.4061 18.2247 19.6059M18.2247 19.6059C18.3513 20.423 18.6043 21.3666 19.9855 22.0572" stroke="#626262" stroke-width="1.25" stroke-linecap="round"/>
</svg>
