<svg width="211" height="211" viewBox="0 0 211 211" fill="none" xmlns="http://www.w3.org/2000/svg">
<circle cx="105.292" cy="105.292" r="105.292" fill="white"/>
<mask id="mask0_1100_5327" style="mask-type:alpha" maskUnits="userSpaceOnUse" x="0" y="0" width="211" height="211">
<circle cx="105.292" cy="105.292" r="105.292" fill="#FBFBFF"/>
</mask>
<g mask="url(#mask0_1100_5327)">
<path d="M129.61 136.846C147.027 134.718 151.385 144.299 151.385 144.299C151.385 144.299 154.863 157.27 156.506 161.907C157.915 165.883 158.266 169.303 158.325 170.197V170.622L158.34 188.567C158.34 189.857 157.958 191.148 157.136 192.146C154.686 195.095 154.759 198.572 154.759 198.572L153.012 386.934C157.941 423.794 179.761 439.14 190.825 444.643C194.816 446.624 197.325 450.689 197.325 455.134V571.306C197.325 576.265 194.867 580.984 190.386 583.104C162.408 596.347 116.868 594.778 104.811 594.09C92.7538 594.778 47.207 596.334 19.2382 583.104C14.7548 580.982 12.2949 576.265 12.2949 571.306V455.134C12.2949 450.689 14.8042 446.624 18.7953 444.643C29.8728 439.14 51.6772 423.807 56.6085 386.934L54.8615 198.572C54.8615 198.572 54.9356 195.095 52.484 192.146C51.6624 191.148 51.2804 189.857 51.2804 188.567V170.622C51.2804 170.46 51.2804 170.314 51.2953 170.152C51.3693 169.214 51.72 165.838 53.1146 161.892C54.7578 157.255 58.2352 144.284 58.2352 144.284C58.2352 144.284 62.5934 134.703 80.01 136.831H129.605V136.846H129.61Z" fill="url(#paint0_linear_1100_5327)"/>
<ellipse cx="105.416" cy="149.692" rx="26.3377" ry="8.4657" fill="url(#paint1_linear_1100_5327)"/>
<path d="M114.824 133.702C114.824 130.585 112.297 128.059 109.18 128.059H100.714C97.5971 128.059 95.0703 130.585 95.0703 133.702V146.871C95.0703 149.988 97.5971 152.515 100.714 152.515H109.18C112.297 152.515 114.824 149.988 114.824 146.871V133.702Z" fill="url(#paint2_linear_1100_5327)"/>
<path d="M104.965 136.887C132.858 136.887 155.471 114.274 155.471 86.3813C155.471 58.4882 132.858 35.877 104.965 35.877C77.0718 35.877 54.459 58.4898 54.459 86.3829C54.459 114.276 77.0702 136.889 104.965 136.889V136.887Z" fill="url(#paint3_linear_1100_5327)"/>
<path d="M140.113 62.0967H70.0257C67.5147 62.0967 65.4785 64.1393 65.4785 66.6582V106.302C65.4785 108.821 67.5147 110.864 70.0257 110.864H140.113C142.624 110.864 144.66 108.821 144.66 106.302V66.6582C144.66 64.1393 142.624 62.0967 140.113 62.0967Z" fill="url(#paint4_linear_1100_5327)"/>
<rect x="82.6738" y="74.0938" width="16.3788" height="15.5988" rx="3.67066" fill="#F3F3F3"/>
<rect x="112.312" y="74.0938" width="16.3788" height="15.5988" rx="3.67066" fill="#F3F3F3"/>
<path d="M97.4922 100.486C99.8113 98.5234 106.93 93.0766 114.651 100.486" stroke="#F3F3F3" stroke-width="3.21113" stroke-linecap="round"/>
</g>
<defs>
<linearGradient id="paint0_linear_1100_5327" x1="104.81" y1="136.522" x2="104.81" y2="594.531" gradientUnits="userSpaceOnUse">
<stop stop-color="#2D2D2D"/>
<stop offset="0.296672" stop-color="#2D2D2D" stop-opacity="0"/>
</linearGradient>
<linearGradient id="paint1_linear_1100_5327" x1="80.6584" y1="149.692" x2="203.919" y2="149.692" gradientUnits="userSpaceOnUse">
<stop stop-color="#2A2A2A"/>
<stop offset="1" stop-color="#0C0C0C"/>
</linearGradient>
<linearGradient id="paint2_linear_1100_5327" x1="104.947" y1="128.059" x2="104.947" y2="152.515" gradientUnits="userSpaceOnUse">
<stop stop-color="#0C0C0C"/>
<stop offset="1" stop-opacity="0.18"/>
</linearGradient>
<linearGradient id="paint3_linear_1100_5327" x1="104.965" y1="28.8222" x2="104.965" y2="136.889" gradientUnits="userSpaceOnUse">
<stop stop-color="#2D2D2D" stop-opacity="0.17"/>
<stop offset="1" stop-color="#2D2D2D"/>
</linearGradient>
<linearGradient id="paint4_linear_1100_5327" x1="105.069" y1="62.0967" x2="105.069" y2="110.864" gradientUnits="userSpaceOnUse">
<stop stop-color="#0C0C0C"/>
<stop offset="1" stop-color="#0C0C0C" stop-opacity="0.19"/>
</linearGradient>
</defs>
</svg>
