<svg width="40" height="40" viewBox="0 0 40 40" fill="none" xmlns="http://www.w3.org/2000/svg">
<circle cx="20" cy="20" r="20" fill="#FEE3C6"/>
<path d="M25.7291 20.7139H26.8563C28.358 20.7139 28.8044 20.9292 28.7682 21.9984C28.7084 23.7695 27.9097 25.8274 24.7148 26.3914" stroke="black" stroke-width="0.884812" stroke-linecap="round"/>
<path d="M15.7496 28.9176C13.0126 26.8133 12.6094 23.8285 12.55 20.714C12.5243 19.3686 12.9148 19.0918 14.7056 19.0918H23.3693C25.1601 19.0918 25.5506 19.3686 25.5249 20.714C25.4655 23.8285 25.0622 26.8133 22.3253 28.9176C21.5465 29.5164 20.8893 29.6358 19.7831 29.6358H18.2918C17.1856 29.6358 16.5284 29.5164 15.7496 28.9176Z" stroke="black" stroke-width="0.811077" stroke-linecap="round"/>
<path d="M20.6605 19.092C20.6605 17.3002 19.208 15.8477 17.4162 15.8477C15.6244 15.8477 14.1719 17.3002 14.1719 19.092" stroke="black" stroke-width="0.811077" stroke-linecap="round" stroke-linejoin="round"/>
<path d="M23.9011 19.0913C23.9011 17.5981 22.6979 16.3877 21.2137 16.3877C20.7141 16.3877 20.2464 16.5249 19.8457 16.7639" stroke="black" stroke-width="0.811077" stroke-linecap="round" stroke-linejoin="round"/>
<path d="M20.0964 10.9805C19.653 11.2551 19.0358 12.1971 19.0358 13.4137M17.0393 12.1971C17.0393 12.1971 16.6016 12.6026 16.6016 13.4137M22.2801 12.1971C22.0584 12.3344 21.8736 13.0082 21.8736 13.4137" stroke="black" stroke-width="0.884812" stroke-linecap="round" stroke-linejoin="round"/>
</svg>
