<svg width="50" height="50" viewBox="0 0 50 50" fill="none" xmlns="http://www.w3.org/2000/svg">
<circle cx="25" cy="25" r="25" fill="white"/>
<mask id="mask0_524_1271" style="mask-type:luminance" maskUnits="userSpaceOnUse" x="15" y="15" width="20" height="20">
<path d="M35 15H15V35H35V15Z" fill="white"/>
</mask>
<g mask="url(#mask0_524_1271)">
<path d="M16.668 31.2526C16.668 30.1475 17.107 29.0877 17.8884 28.3063C18.6698 27.5249 19.7296 27.0859 20.8346 27.0859H29.168C30.273 27.0859 31.3328 27.5249 32.1142 28.3063C32.8957 29.0877 33.3346 30.1475 33.3346 31.2526C33.3346 31.8051 33.1151 32.335 32.7244 32.7257C32.3337 33.1164 31.8038 33.3359 31.2513 33.3359H18.7513C18.1988 33.3359 17.6689 33.1164 17.2782 32.7257C16.8875 32.335 16.668 31.8051 16.668 31.2526Z" stroke="#272727" stroke-width="1.25" stroke-linejoin="round"/>
<path d="M25.002 22.918C26.7278 22.918 28.127 21.5189 28.127 19.793C28.127 18.0671 26.7278 16.668 25.002 16.668C23.2761 16.668 21.877 18.0671 21.877 19.793C21.877 21.5189 23.2761 22.918 25.002 22.918Z" stroke="#272727" stroke-width="1.25"/>
</g>
</svg>
