<svg width="253" height="239" viewBox="0 0 253 239" fill="none" xmlns="http://www.w3.org/2000/svg">
<g opacity="0.84">
<path d="M115.701 236.846C179.049 236.846 230.402 185.492 230.402 122.145C230.402 58.797 179.049 7.4436 115.701 7.4436C52.3534 7.4436 1 58.797 1 122.145C1 185.492 52.3534 236.846 115.701 236.846Z" fill="url(#paint0_linear_402_8)"/>
<path d="M177.581 34.134H50.5169C42.5968 34.134 36.1763 40.5545 36.1763 48.4747H191.922C191.922 40.5545 185.502 34.134 177.581 34.134Z" fill="url(#paint1_linear_402_8)"/>
<path d="M36.1763 48.0828H191.922V166.701C191.922 171.975 189.827 177.033 186.098 180.762C182.369 184.491 177.311 186.586 172.037 186.586H56.0614C50.7875 186.586 45.7297 184.491 42.0005 180.762C38.2713 177.033 36.1763 171.975 36.1763 166.701V48.0828Z" fill="url(#paint2_linear_402_8)"/>
<path d="M62.9986 63.0654H165.15C167.278 63.0654 169.002 64.7881 169.002 66.9132C169.002 69.0382 167.278 70.7609 165.15 70.7609H62.9986C60.8712 70.7609 59.1466 69.0382 59.1466 66.9132C59.1466 64.7881 60.8712 63.0654 62.9986 63.0654Z" fill="url(#paint3_linear_402_8)"/>
<path d="M62.9986 95.7609H165.15C167.278 95.7609 169.002 97.4836 169.002 99.6087C169.002 101.734 167.278 103.457 165.15 103.457H62.9986C60.8712 103.457 59.1466 101.734 59.1466 99.6087C59.1466 97.4836 60.8712 95.7609 62.9986 95.7609Z" fill="url(#paint4_linear_402_8)"/>
<path d="M62.9986 128.456H165.15C167.278 128.456 169.002 130.179 169.002 132.304C169.002 134.429 167.278 136.152 165.15 136.152H62.9986C60.8712 136.152 59.1466 134.429 59.1466 132.304C59.1466 130.179 60.8712 128.456 62.9986 128.456Z" fill="url(#paint5_linear_402_8)"/>
<path d="M62.9985 161.152H165.15C167.278 161.152 169.002 162.875 169.002 165C169.002 167.125 167.278 168.847 165.15 168.847H62.9985C60.8711 168.847 59.1465 167.125 59.1465 165C59.1465 162.875 60.8711 161.152 62.9985 161.152Z" fill="url(#paint6_linear_402_8)"/>
<path d="M62.3067 121.444H7.91235C3.54248 121.444 0 124.986 0 129.356V207.104C0 211.474 3.54248 215.016 7.91235 215.016H62.3067C66.6765 215.016 70.219 211.474 70.219 207.104V129.356C70.219 124.986 66.6765 121.444 62.3067 121.444Z" fill="url(#paint7_linear_402_8)"/>
<path d="M217.15 0H157.069C154.27 0 152 2.26958 152 5.06924V33.3086C152 36.1082 154.27 38.3778 157.069 38.3778H217.15C219.949 38.3778 222.219 36.1082 222.219 33.3086V5.06924C222.219 2.26958 219.949 0 217.15 0Z" fill="url(#paint8_linear_402_8)"/>
<path d="M56.2369 160.338H13.9821C12.5592 160.338 11.4058 161.492 11.4058 162.915V162.923C11.4058 164.346 12.5592 165.499 13.9821 165.499H56.2369C57.6597 165.499 58.8132 164.346 58.8132 162.923V162.915C58.8132 161.492 57.6597 160.338 56.2369 160.338Z" fill="#DFDFDF"/>
<path d="M56.2609 196.653H14.3692C12.9586 196.653 11.8151 197.771 11.8151 199.149V199.157C11.8151 200.536 12.9586 201.653 14.3692 201.653H56.2609C57.6715 201.653 58.8151 200.536 58.8151 199.157V199.149C58.8151 197.771 57.6715 196.653 56.2609 196.653Z" fill="#DFDFDF"/>
<path d="M56.2609 177.653H14.3692C12.9586 177.653 11.8151 178.771 11.8151 180.149V180.157C11.8151 181.536 12.9586 182.653 14.3692 182.653H56.2609C57.6715 182.653 58.8151 181.536 58.8151 180.157V180.149C58.8151 178.771 57.6715 177.653 56.2609 177.653Z" fill="#DFDFDF"/>
<path d="M29.4318 133.45H17.0839C14.3487 133.45 12.1313 135.667 12.1313 138.402V141.829C12.1313 144.564 14.3487 146.781 17.0839 146.781H29.4318C32.167 146.781 34.3843 144.564 34.3843 141.829V138.402C34.3843 135.667 32.167 133.45 29.4318 133.45Z" fill="#DFDFDF"/>
<path d="M166.828 25.0127C170.047 25.0127 172.656 22.4034 172.656 19.1847C172.656 15.966 170.047 13.3568 166.828 13.3568C163.609 13.3568 161 15.966 161 19.1847C161 22.4034 163.609 25.0127 166.828 25.0127Z" fill="#0681F9"/>
<path d="M187.655 25.0127C190.874 25.0127 193.483 22.4034 193.483 19.1847C193.483 15.966 190.874 13.3568 187.655 13.3568C184.436 13.3568 181.827 15.966 181.827 19.1847C181.827 22.4034 184.436 25.0127 187.655 25.0127Z" fill="#0681F9"/>
<path d="M208.482 25.0127C211.701 25.0127 214.31 22.4034 214.31 19.1847C214.31 15.966 211.701 13.3568 208.482 13.3568C205.264 13.3568 202.654 15.966 202.654 19.1847C202.654 22.4034 205.264 25.0127 208.482 25.0127Z" fill="#0681F9"/>
<path d="M200.681 175.573L185.921 191.845L227.525 229.583L242.285 213.311L200.681 175.573Z" fill="url(#paint9_linear_402_8)"/>
<path fill-rule="evenodd" clip-rule="evenodd" d="M216.279 148.64C216.279 182.682 188.682 210.279 154.64 210.279C120.597 210.279 93.0001 182.682 93.0001 148.64C93.0001 114.597 120.597 87 154.64 87C188.682 87 216.279 114.597 216.279 148.64ZM206.824 148.64C206.824 177.461 183.46 200.825 154.64 200.825C125.819 200.825 102.455 177.461 102.455 148.64C102.455 119.819 125.819 96.4548 154.64 96.4548C183.46 96.4548 206.824 119.819 206.824 148.64Z" fill="url(#paint10_linear_402_8)"/>
<g filter="url(#filter0_b_402_8)">
<path d="M154.64 200.824C183.461 200.824 206.825 177.461 206.825 148.64C206.825 119.819 183.461 96.4548 154.64 96.4548C125.819 96.4548 102.455 119.819 102.455 148.64C102.455 177.461 125.819 200.824 154.64 200.824Z" fill="url(#paint11_linear_402_8)" fill-opacity="0.2"/>
</g>
<path d="M167.18 148.64L182.104 133.682C183.502 132.202 184.268 130.236 184.239 128.2C184.21 126.165 183.389 124.22 181.949 122.781C180.51 121.341 178.566 120.52 176.53 120.491C174.495 120.462 172.528 121.228 171.048 122.626L156.091 137.584L141.166 122.626C140.448 121.866 139.585 121.258 138.628 120.837C137.67 120.417 136.638 120.193 135.593 120.178C134.547 120.163 133.509 120.358 132.54 120.751C131.571 121.145 130.691 121.728 129.952 122.468C129.212 123.207 128.629 124.087 128.236 125.056C127.842 126.025 127.647 127.063 127.662 128.108C127.677 129.154 127.901 130.186 128.322 131.143C128.742 132.101 129.351 132.964 130.111 133.682L145.06 148.64L130.111 163.597C129.351 164.315 128.742 165.179 128.322 166.136C127.901 167.093 127.677 168.125 127.662 169.171C127.647 170.216 127.842 171.254 128.236 172.223C128.629 173.192 129.212 174.072 129.952 174.812C130.691 175.551 131.571 176.135 132.54 176.528C133.509 176.921 134.547 177.116 135.593 177.102C136.638 177.087 137.67 176.862 138.628 176.442C139.585 176.021 140.448 175.413 141.166 174.653L156.124 159.695L171.082 174.653C172.575 175.969 174.515 176.665 176.504 176.601C178.494 176.536 180.384 175.715 181.789 174.306C183.195 172.896 184.01 171.004 184.068 169.014C184.126 167.024 183.424 165.087 182.104 163.597L167.18 148.64Z" fill="#0083FC"/>
<path d="M227.522 229.585L242.282 213.313L244.505 215.329C246.663 217.286 247.954 220.019 248.096 222.928C248.238 225.837 247.218 228.683 245.261 230.84C243.305 232.997 240.571 234.288 237.663 234.43C234.754 234.572 231.908 233.552 229.751 231.596L227.528 229.579L227.522 229.585Z" fill="url(#paint12_linear_402_8)"/>
</g>
<defs>
<filter id="filter0_b_402_8" x="85.7801" y="79.7797" width="137.72" height="137.72" filterUnits="userSpaceOnUse" color-interpolation-filters="sRGB">
<feFlood flood-opacity="0" result="BackgroundImageFix"/>
<feGaussianBlur in="BackgroundImageFix" stdDeviation="8.33757"/>
<feComposite in2="SourceAlpha" operator="in" result="effect1_backgroundBlur_402_8"/>
<feBlend mode="normal" in="SourceGraphic" in2="effect1_backgroundBlur_402_8" result="shape"/>
</filter>
<linearGradient id="paint0_linear_402_8" x1="114.817" y1="-29.9059" x2="117.167" y2="372.907" gradientUnits="userSpaceOnUse">
<stop stop-color="white" stop-opacity="0"/>
<stop offset="1" stop-color="#F3F3F3"/>
</linearGradient>
<linearGradient id="paint1_linear_402_8" x1="35.9999" y1="37.4436" x2="192" y2="48.4436" gradientUnits="userSpaceOnUse">
<stop stop-color="#F7F7F7"/>
<stop offset="1" stop-color="#F7F7FC"/>
</linearGradient>
<linearGradient id="paint2_linear_402_8" x1="192" y1="89" x2="-328.5" y2="198.5" gradientUnits="userSpaceOnUse">
<stop stop-color="white"/>
<stop offset="1" stop-color="#CBCBCB"/>
</linearGradient>
<linearGradient id="paint3_linear_402_8" x1="173.649" y1="70.4436" x2="52.6487" y2="70.4436" gradientUnits="userSpaceOnUse">
<stop stop-color="white"/>
<stop offset="1" stop-color="#CBCBCB"/>
</linearGradient>
<linearGradient id="paint4_linear_402_8" x1="173.649" y1="103.139" x2="52.6487" y2="103.139" gradientUnits="userSpaceOnUse">
<stop stop-color="white"/>
<stop offset="1" stop-color="#CBCBCB"/>
</linearGradient>
<linearGradient id="paint5_linear_402_8" x1="173.649" y1="135.835" x2="52.6487" y2="135.835" gradientUnits="userSpaceOnUse">
<stop stop-color="white"/>
<stop offset="1" stop-color="#CBCBCB"/>
</linearGradient>
<linearGradient id="paint6_linear_402_8" x1="173.649" y1="168.53" x2="52.6486" y2="168.53" gradientUnits="userSpaceOnUse">
<stop stop-color="white"/>
<stop offset="1" stop-color="#CBCBCB"/>
</linearGradient>
<linearGradient id="paint7_linear_402_8" x1="-2.10838" y1="191.612" x2="249.906" y2="286.778" gradientUnits="userSpaceOnUse">
<stop stop-color="#F6F6F6"/>
<stop offset="1" stop-color="#CBCBCB"/>
</linearGradient>
<linearGradient id="paint8_linear_402_8" x1="149.892" y1="28.7787" x2="251.282" y2="31.7116" gradientUnits="userSpaceOnUse">
<stop stop-color="#F6F6F6"/>
<stop stop-color="#F6F6F6"/>
<stop offset="0.704641" stop-color="#F7F7FC"/>
</linearGradient>
<linearGradient id="paint9_linear_402_8" x1="195.506" y1="200.573" x2="210.405" y2="184.231" gradientUnits="userSpaceOnUse">
<stop stop-color="#F6F6F6"/>
<stop offset="1" stop-color="#CBCBCB" stop-opacity="0.55"/>
</linearGradient>
<linearGradient id="paint10_linear_402_8" x1="92.8605" y1="115.451" x2="216.95" y2="116.257" gradientUnits="userSpaceOnUse">
<stop stop-color="#CBCBCB"/>
<stop offset="1" stop-color="#F6F6F6"/>
</linearGradient>
<linearGradient id="paint11_linear_402_8" x1="154.64" y1="96.4548" x2="207.225" y2="232.907" gradientUnits="userSpaceOnUse">
<stop stop-color="white"/>
<stop offset="1" stop-color="#D2F7FF"/>
</linearGradient>
<linearGradient id="paint12_linear_402_8" x1="234.902" y1="221.449" x2="245.259" y2="230.843" gradientUnits="userSpaceOnUse">
<stop stop-color="#F6F6F6"/>
<stop offset="1" stop-color="#CBCBCB"/>
</linearGradient>
</defs>
</svg>
