<svg xmlns="http://www.w3.org/2000/svg" width="72.108" height="57.564" viewBox="0 0 72.108 57.564">
  <g id="_460603" data-name="460603" transform="translate(0 0)">
    <path id="Path_190570" data-name="Path 190570" d="M41.616,62.989H7.948a6.869,6.869,0,0,1-6.86-6.86v-35.8a6.869,6.869,0,0,1,6.86-6.859H58.32a6.869,6.869,0,0,1,6.861,6.859V40.163H62.833V20.333a4.516,4.516,0,0,0-4.512-4.511H7.949a4.517,4.517,0,0,0-4.512,4.511v35.8a4.517,4.517,0,0,0,4.512,4.512H41.616Z" transform="translate(-1.088 -13.474)" fill="#979797"/>
    <path id="Path_190571" data-name="Path 190571" d="M38.356,63.216a5.209,5.209,0,0,1-3.216-1.108,1.142,1.142,0,0,1-.157-.149L19.439,44.326a2.868,2.868,0,0,0-3.164-.143l-12.93,14L1.619,56.593,14.655,42.477a1.187,1.187,0,0,1,.215-.183,5.214,5.214,0,0,1,6.1.244,1.174,1.174,0,0,1,.157.148l15.544,17.63a2.872,2.872,0,0,0,3.589-.167l8.2-7.222a5.231,5.231,0,0,1,6.624-.23L53.65,54.562a2.877,2.877,0,0,0-3.644.126l-8.2,7.225A5.216,5.216,0,0,1,38.356,63.216Z" transform="translate(-1.307 -25.016)" fill="#979797"/>
    <path id="Path_190572" data-name="Path 190572" d="M58.95,41.011a6.88,6.88,0,1,1,6.879-6.88,6.88,6.88,0,0,1-6.879,6.88Zm0-11.411a4.532,4.532,0,1,0,4.531,4.531A4.532,4.532,0,0,0,58.95,29.6Z" transform="translate(-22.139 -19.163)" fill="#979797"/>
    <path id="Path_190573" data-name="Path 190573" d="M90.747,92.141a13.781,13.781,0,1,1,13.781-13.78A13.781,13.781,0,0,1,90.747,92.141Zm0-25.212a11.432,11.432,0,1,0,11.432,11.432A11.432,11.432,0,0,0,90.747,66.929Z" transform="translate(-32.419 -34.577)" fill="#979797"/>
    <path id="Path_190574" data-name="Path 190574" d="M88.034,86.054H102.6V88.4H88.034Z" transform="translate(-36.99 -43.444)" fill="#979797"/>
    <path id="Path_190575" data-name="Path 190575" d="M98.439,75.648h2.348V90.213H98.439Z" transform="translate(-41.286 -39.147)" fill="#979797"/>
  </g>
</svg>
