<svg width="87" height="97" viewBox="0 0 87 97" fill="none" xmlns="http://www.w3.org/2000/svg">
<g id="OBJECTS">
<path id="Subtract" fill-rule="evenodd" clip-rule="evenodd" d="M15.8963 24.7452L15.8979 24.7436C17.2652 23.4055 19.4581 23.4293 20.7954 24.7956C22.1335 26.1629 22.1097 28.3558 20.7434 29.6931L20.7422 29.6942C14.4639 35.8441 10.9802 44.0793 10.9802 52.87C10.9802 70.7471 25.5186 85.2855 43.3957 85.2855C61.2729 85.2855 75.8112 70.7471 75.8112 52.87C75.8112 44.0837 72.3432 35.8459 66.0471 29.6921C64.6818 28.3547 64.6583 26.1625 65.9961 24.7956C67.3333 23.4293 69.5263 23.4055 70.8935 24.7436L70.8951 24.7452C78.5371 32.2163 82.7397 42.191 82.7397 52.87C82.7397 74.564 65.0897 92.214 43.3957 92.214C21.7018 92.214 4.05176 74.564 4.05176 52.87C4.05176 42.191 8.25434 32.2163 15.8963 24.7452ZM43.3929 40.7604H43.0965C41.325 40.6098 39.9349 39.1218 39.9349 37.3149V7.45797C39.9349 5.54767 41.4863 4 43.3929 4C45.295 4 46.8508 5.55582 46.8508 7.45797V37.3024C46.8508 39.2127 45.2994 40.7604 43.3929 40.7604Z" fill="white"/>
</g>
</svg>
