<svg width="51" height="51" viewBox="0 0 51 51" fill="none" xmlns="http://www.w3.org/2000/svg">
<g id="Group 1171275452">
<circle id="Ellipse 2249" cx="25.5" cy="25.5" r="25.5" fill="#FEE3C6"/>
<g id="Group 1171275447">
<g id="Group 1171275418">
<path id="Vector 5682" d="M32.8049 26.4102H34.2421C36.1567 26.4102 36.7259 26.6847 36.6798 28.048C36.6035 30.3061 35.5852 32.9299 31.5117 33.649" stroke="black" stroke-width="1.12813" stroke-linecap="round"/>
<path id="Vector" d="M20.0809 36.8677C16.5914 34.1847 16.0772 30.3792 16.0015 26.4082C15.9688 24.6928 16.4667 24.3398 18.7499 24.3398H29.796C32.0793 24.3398 32.5772 24.6928 32.5445 26.4082C32.4687 30.3792 31.9546 34.1847 28.4651 36.8677C27.472 37.6312 26.634 37.7834 25.2237 37.7834H23.3223C21.9119 37.7834 21.074 37.6312 20.0809 36.8677Z" stroke="black" stroke-width="1.03412" stroke-linecap="round"/>
<path id="Vector_2" d="M25.6239 14C25.0585 14.3502 24.2716 15.5512 24.2716 17.1024M21.7261 15.5512C21.7261 15.5512 21.168 16.0682 21.168 17.1024M28.4081 15.5512C28.1254 15.7263 27.8898 16.5853 27.8898 17.1024" stroke="black" stroke-width="1.12813" stroke-linecap="round" stroke-linejoin="round"/>
<path id="Ellipse 1670" d="M26.3433 24.3396C26.3433 22.0551 24.4913 20.2031 22.2068 20.2031C19.9223 20.2031 18.0703 22.0551 18.0703 24.3396" stroke="black" stroke-width="1.03412" stroke-linecap="round" stroke-linejoin="round"/>
<path id="Ellipse 1680" d="M30.4753 24.3416C30.4753 22.4378 28.9413 20.8945 27.0489 20.8945C26.4119 20.8945 25.8156 21.0695 25.3047 21.3742" stroke="black" stroke-width="1.03412" stroke-linecap="round" stroke-linejoin="round"/>
</g>
</g>
</g>
</svg>
