<svg width="23" height="23" viewBox="0 0 23 23" fill="none" xmlns="http://www.w3.org/2000/svg">
<path d="M1 11.5C1 6.55025 1 4.07538 2.53769 2.53769C4.07538 1 6.55025 1 11.5 1C16.4497 1 18.9246 1 20.4623 2.53769C22 4.07538 22 6.55025 22 11.5C22 16.4497 22 18.9246 20.4623 20.4623C18.9246 22 16.4497 22 11.5 22C6.55025 22 4.07538 22 2.53769 20.4623C1 18.9246 1 16.4497 1 11.5Z" stroke="#171717" stroke-width="1.25"/>
<path d="M4.5 11.5V9.5C4.5 9.22386 4.72386 9 5 9H6.25C6.94036 9 7.5 9.55964 7.5 10.25C7.5 10.9404 6.94036 11.5 6.25 11.5H4.5ZM4.5 11.5V14" stroke="#171717" stroke-width="1.25" stroke-linecap="round" stroke-linejoin="round"/>
<path d="M15.5 11.5V9.5C15.5 9.22386 15.7239 9 16 9H17.25C17.9404 9 18.5 9.55964 18.5 10.25C18.5 10.9404 17.9404 11.5 17.25 11.5H15.5ZM15.5 11.5V14" stroke="#171717" stroke-width="1.25" stroke-linecap="round" stroke-linejoin="round"/>
<path d="M10 9V11.5M10 14V11.5M13 9V11.5M13 14V11.5M10 11.5H13" stroke="#171717" stroke-width="1.25" stroke-linecap="round" stroke-linejoin="round"/>
</svg>
