<svg width="21" height="21" viewBox="0 0 21 21" fill="none" xmlns="http://www.w3.org/2000/svg">
<path d="M1.07956 7.12505C1.00886 6.53528 0.973508 6.24039 1.02323 5.999C1.1651 5.31015 1.77111 4.75159 2.57871 4.56529C2.86172 4.5 3.217 4.5 3.92757 4.5H17.0724C17.783 4.5 18.1383 4.5 18.4213 4.56529C19.2289 4.75159 19.8349 5.31015 19.9768 5.999C20.0265 6.24039 19.9911 6.53528 19.9204 7.12505C19.7584 8.47669 18.9991 9.21605 17.5512 9.64231L13.38 10.8703C11.9541 11.2901 11.2411 11.5 10.5 11.5C9.75886 11.5 9.04589 11.2901 7.61996 10.8703L3.44882 9.64231C2.00094 9.21605 1.2416 8.47669 1.07956 7.12505Z" stroke="#171717" stroke-width="1.25"/>
<path d="M1.96283 9L1.76658 11.2757C1.41481 15.355 1.23892 17.3947 2.36734 18.6974C3.49576 20 5.43851 20 9.32402 20H11.676C15.5615 20 17.5042 20 18.6327 18.6974C19.7611 17.3947 19.5852 15.355 19.2334 11.2757L19.0372 9" stroke="#171717" stroke-width="1.25" stroke-linecap="round" stroke-linejoin="round"/>
<path d="M14 4L13.9227 3.73509C13.5377 2.41505 13.3452 1.75503 12.8869 1.37752C12.4286 1 11.8199 1 10.6023 1H10.3977C9.18014 1 8.57139 1 8.11309 1.37752C7.65478 1.75503 7.46228 2.41505 7.07727 3.73509L7 4" stroke="#171717" stroke-width="1.25"/>
</svg>
