<svg width="16" height="16" viewBox="0 0 16 16" fill="none" xmlns="http://www.w3.org/2000/svg">
<rect width="16" height="16" fill="#535353"/>
<g id="Dashboard - Order Management">
<g id="Home">
<rect x="-1188" y="-61" width="1444" height="903" rx="30" fill="#171717"/>
<path id="Rectangle" d="M-1091 -4.99999C-1091 -21.5685 -1077.57 -35 -1061 -35H201C217.568 -35 231 -21.5685 231 -5V780C231 796.569 217.569 810 201 810H-1061C-1077.57 810 -1091 796.569 -1091 780V-4.99999Z" fill="#F7F7FC"/>
<g id="Group 1171276610">
<circle id="Ellipse 2292" cx="8" cy="8" r="8" fill="#EE0000"/>
</g>
</g>
<path d="M-11340 -837H11866V-875H-11340V-837ZM11849 -854V2258H11887V-854H11849ZM11866 2241H-11340V2279H11866V2241ZM-11323 2258V-854H-11361V2258H-11323ZM-11340 2241C-11330.6 2241 -11323 2248.61 -11323 2258H-11361C-11361 2269.6 -11351.6 2279 -11340 2279V2241ZM11849 2258C11849 2248.61 11856.6 2241 11866 2241V2279C11877.6 2279 11887 2269.6 11887 2258H11849ZM11866 -837C11856.6 -837 11849 -844.606 11849 -854H11887C11887 -865.603 11877.6 -875 11866 -875V-837ZM-11340 -875C-11351.6 -875 -11361 -865.599 -11361 -854H-11323C-11323 -844.61 -11330.6 -837 -11340 -837V-875Z" fill="white"/>
</g>
</svg>
