<svg width="44" height="44" viewBox="0 0 44 44" fill="none" xmlns="http://www.w3.org/2000/svg">
<circle cx="22" cy="22" r="22" fill="#F7F7FC"/>
<path d="M14 20C14 16.2288 14 14.3431 15.2448 13.1716C16.4896 12 18.4931 12 22.5 12H23.2727C26.5339 12 28.1645 12 29.2969 12.7978C29.6214 13.0264 29.9094 13.2975 30.1523 13.6029C31 14.6687 31 16.2034 31 19.2727V21.8182C31 24.7814 31 26.2629 30.5311 27.4462C29.7772 29.3486 28.1829 30.8491 26.1616 31.5586C24.9044 32 23.3302 32 20.1818 32C18.3827 32 17.4832 32 16.7648 31.7478C15.6098 31.3424 14.6988 30.4849 14.268 29.3979C14 28.7217 14 27.8751 14 26.1818V20Z" stroke="black" stroke-linejoin="round"/>
<path d="M31 22C31 23.8409 29.5076 25.3333 27.6667 25.3333C27.0009 25.3333 26.216 25.2167 25.5686 25.3901C24.9935 25.5442 24.5442 25.9935 24.3901 26.5686C24.2167 27.216 24.3333 28.0009 24.3333 28.6667C24.3333 30.5076 22.8409 32 21 32" stroke="black" stroke-linecap="round" stroke-linejoin="round"/>
<path d="M18.5 17H25.5" stroke="black" stroke-linecap="round" stroke-linejoin="round"/>
<path d="M18.5 21H21.5" stroke="black" stroke-linecap="round" stroke-linejoin="round"/>
</svg>
