<svg width="48" height="48" viewBox="0 0 48 48" fill="none" xmlns="http://www.w3.org/2000/svg">
<g id="Group 1171275998">
<circle id="Ellipse" cx="24" cy="24" r="24" fill="#009AF1"/>
<path id="Vector" d="M18.4569 33.5724V30.3757H23.1859C24.3836 30.3757 25.4315 30.1291 26.3297 29.636C27.228 29.1252 27.9237 28.4119 28.4168 27.4961C28.9276 26.5802 29.183 25.4971 29.183 24.2466C29.183 23.0313 28.9276 21.9746 28.4168 21.0763C27.9061 20.1605 27.2016 19.456 26.3033 18.9628C25.4051 18.4521 24.3659 18.1967 23.1859 18.1967H18.3777V15H23.2387C24.6125 15 25.8806 15.229 27.043 15.6869C28.2231 16.1448 29.2446 16.7965 30.1076 17.6419C30.9882 18.4697 31.6663 19.4472 32.1419 20.5744C32.635 21.7016 32.8816 22.9344 32.8816 24.273C32.8816 25.6115 32.635 26.8532 32.1419 27.998C31.6663 29.1252 30.9971 30.1115 30.134 30.9569C29.271 31.7847 28.2495 32.4276 27.0695 32.8855C25.907 33.3434 24.6477 33.5724 23.2916 33.5724H18.4569ZM16 33.5724V15H19.593V33.5724H16Z" fill="white"/>
</g>
</svg>
