<svg width="50" height="50" viewBox="0 0 50 50" fill="none" xmlns="http://www.w3.org/2000/svg">
<g id="Group 1171275760">
<g id="Group 1171276411">
<circle id="Ellipse 2172" cx="25" cy="25" r="25" fill="white"/>
<g id="Group 1171275759">
<path id="Vector" d="M27.4252 16.702L21.6359 19.481C21.1904 19.6948 20.7143 19.7484 20.229 19.6397C19.9114 19.5686 19.7526 19.533 19.6247 19.5184C18.0367 19.337 17.0469 20.5939 17.0469 22.0392V22.8323C17.0469 24.2776 18.0367 25.5345 19.6247 25.3531C19.7526 25.3385 19.9114 25.3029 20.229 25.2318C20.7143 25.1231 21.1904 25.1766 21.6359 25.3905L27.4252 28.1695C28.7542 28.8075 29.4187 29.1264 30.1595 28.8778C30.9004 28.6292 31.1546 28.0957 31.6632 27.0287C33.0598 24.0988 33.0598 20.7726 31.6632 17.8428C31.1546 16.7758 30.9004 16.2423 30.1595 15.9937C29.4187 15.7451 28.7542 16.064 27.4252 16.702Z" stroke="#171717" stroke-width="1.16028" stroke-linecap="round" stroke-linejoin="round"/>
<path id="Vector_2" d="M22.2025 32.9224L20.5948 33.4158C18.7763 30.155 19.5288 29.2687 21.21 25.1967L22.122 25.5732C21.542 28.0272 21.965 29.4776 22.8438 30.764C23.3852 31.5563 23.116 32.642 22.2025 32.9224Z" stroke="#171717" stroke-width="1.16028" stroke-linecap="round" stroke-linejoin="round"/>
<path id="Vector 7300" d="M20.9629 25.0464V19.8252" stroke="#171717" stroke-width="1.16028" stroke-linecap="round" stroke-linejoin="round"/>
</g>
</g>
</g>
</svg>
