<svg width="46" height="46" viewBox="0 0 46 46" fill="none" xmlns="http://www.w3.org/2000/svg">
<circle cx="23" cy="23" r="23" fill="white"/>
<path d="M18 18.5L20.942 20.2394C22.6572 21.2535 23.3428 21.2535 25.058 20.2394L28 18.5" stroke="#141B34" stroke-width="1.5" stroke-linecap="round" stroke-linejoin="round"/>
<path d="M32.996 21C32.9933 20.6333 32.9894 20.7702 32.9842 20.5265C32.9189 17.46 32.8862 15.9268 31.7551 14.791C30.6239 13.6553 29.0497 13.6157 25.9012 13.5366C23.9607 13.4878 22.0393 13.4878 20.0988 13.5366C16.9503 13.6157 15.3761 13.6553 14.245 14.791C13.1138 15.9268 13.0811 17.46 13.0158 20.5265C12.9947 21.5125 12.9947 22.4926 13.0158 23.4786C13.0811 26.5451 13.1138 28.0783 14.245 29.2141C15.3761 30.3498 16.9503 30.3894 20.0988 30.4685C20.7068 30.4838 21.4957 30.4943 22 30.5" stroke="#141B34" stroke-width="1.5" stroke-linecap="round" stroke-linejoin="round"/>
<path d="M26.586 29.6482C25.9572 30.0167 24.3086 30.7693 25.3127 31.711C25.8032 32.171 26.3495 32.5 27.0364 32.5H30.9556C31.6424 32.5 32.1887 32.171 32.6792 31.711C33.6834 30.7693 32.0347 30.0167 31.4059 29.6482C29.9314 28.7839 28.0605 28.7839 26.586 29.6482Z" stroke="#141B34" stroke-width="1.5"/>
<path d="M30.996 25C30.996 26.1046 30.1005 27 28.996 27C27.8914 27 26.996 26.1046 26.996 25C26.996 23.8954 27.8914 23 28.996 23C30.1005 23 30.996 23.8954 30.996 25Z" stroke="#141B34" stroke-width="1.5"/>
</svg>
