<svg width="70" height="70" viewBox="0 0 70 70" fill="none" xmlns="http://www.w3.org/2000/svg">
<g id="Group 1171276496">
<circle id="Ellipse 1" cx="35" cy="35" r="35" fill="#F7F7FC"/>
<g id="Group 1171276495">
<path id="Star 7" d="M28.9583 19L29.3399 20.694C29.6636 22.1309 30.7857 23.2531 32.2226 23.5767L33.9167 23.9583L32.2226 24.3399C30.7857 24.6636 29.6636 25.7857 29.3399 27.2226L28.9583 28.9167L28.5767 27.2226C28.2531 25.7857 27.1309 24.6636 25.694 24.3399L24 23.9583L25.694 23.5767C27.1309 23.2531 28.2531 22.1309 28.5767 20.694L28.9583 19Z" stroke="#009AF1" stroke-width="1.94" stroke-linejoin="round"/>
<path id="Star 8" d="M21.5417 29L21.8142 30.21C22.0454 31.2364 22.8469 32.0379 23.8733 32.2691L25.0833 32.5417L23.8733 32.8142C22.8469 33.0454 22.0454 33.8469 21.8142 34.8733L21.5417 36.0833L21.2691 34.8733C21.0379 33.8469 20.2364 33.0454 19.21 32.8142L18 32.5417L19.21 32.2691C20.2364 32.0379 21.0379 31.2364 21.2691 30.21L21.5417 29Z" stroke="#009AF1" stroke-width="1.94" stroke-linejoin="round"/>
<g id="Group 1171276494">
<path id="Vector" d="M47.7821 37.3037H49.4739C51.7279 37.3037 52.3978 37.6269 52.3436 39.2318C52.2537 41.89 51.055 44.9788 46.2598 45.8252" stroke="#009AF1" stroke-width="1.94" stroke-linecap="round"/>
<path id="Vector_2" d="M32.804 49.6168C28.6962 46.4585 28.0909 41.9786 28.0017 37.304C27.9632 35.2846 28.5494 34.8691 31.2372 34.8691H44.2406C46.9284 34.8691 47.5146 35.2846 47.4761 37.304C47.3869 41.9786 46.7816 46.4585 42.6738 49.6168C41.5047 50.5157 40.5183 50.6949 38.8581 50.6949H36.6197C34.9595 50.6949 33.9731 50.5157 32.804 49.6168Z" stroke="#009AF1" stroke-width="1.94" stroke-linecap="round"/>
<path id="Vector_3" d="M40.1744 34.8695C40.1744 32.1801 37.9943 30 35.305 30C32.6157 30 30.4355 32.1801 30.4355 34.8695" stroke="#009AF1" stroke-width="1.94" stroke-linecap="round" stroke-linejoin="round"/>
<path id="Vector_4" d="M45.038 34.8684C45.038 32.6273 43.2321 30.8105 41.0045 30.8105C40.2546 30.8105 39.5526 31.0165 38.9512 31.3752" stroke="#009AF1" stroke-width="1.94" stroke-linecap="round" stroke-linejoin="round"/>
</g>
</g>
</g>
</svg>
