<svg width="22" height="22" viewBox="0 0 22 22" fill="none" xmlns="http://www.w3.org/2000/svg">
<g id="elements">
<path id="Ellipse 1669" d="M16 12.2308C16 12.2308 15.0909 11.7693 14.1818 11.7693C12.8182 11.7693 11 13.6154 11 16.3846C11 19.1537 13.4896 21 16 21C18.5104 21 21 19.1537 21 16.3846C21 13.6154 19.1818 11.7693 17.8182 11.7693C16.9091 11.7693 16 12.2308 16 12.2308ZM16 12.2308C16 10.8462 16.9091 9 18.7273 9" stroke="white" stroke-width="1.5" stroke-linecap="round" stroke-linejoin="round"/>
<path id="Vector" d="M9.65496 4C10.5512 4 11.2778 3.32843 11.2778 2.5C11.2778 1.67157 10.5512 1 9.65496 1H4.24561C3.34936 1 2.6228 1.67157 2.6228 2.5C2.6228 3.32843 3.34936 4 4.24561 4M10.1693 3.92311C11.1247 5.68943 11.9095 7.28337 12.3888 9C12.4279 9.14008 12.465 9.28098 12.5 9.42286M9.42801 21H5.32748C1.74721 21 1 20.3093 1 17V12.7771C1 9.37735 2.09757 6.88562 3.70467 3.91465" stroke="white" stroke-width="1.5" stroke-linecap="round" stroke-linejoin="round"/>
</g>
</svg>
