<svg width="27" height="31" viewBox="0 0 27 31" fill="none" xmlns="http://www.w3.org/2000/svg">
<path d="M23.9942 14.3488L15.9793 15.7427C15.164 15.8845 14.3892 15.3352 14.2532 14.5189C14.1147 13.6881 13.316 13.1368 12.49 13.302L10.2702 13.746C9.56867 13.8863 8.88627 13.4313 8.74597 12.7298C8.60886 12.0443 7.95247 11.5913 7.26287 11.7062L7 11.75C6.16386 11.8894 5.36801 11.34 5.20177 10.5088L4.40008 6.50038C4.18041 5.40207 4.90546 4.33748 6.00791 4.13961L21.5557 1.34898C22.6334 1.15555 23.6663 1.86462 23.873 2.93983L25.6155 12.0007C25.8267 13.0991 25.0961 14.1572 23.9942 14.3488Z" stroke="#7E7E7E" stroke-width="1.25"/>
<path d="M20.9942 18.8488L12.9793 20.2427C12.164 20.3845 11.3892 19.8352 11.2532 19.0189C11.1147 18.1881 10.316 17.6368 9.49004 17.802L7.27016 18.246C6.56867 18.3863 5.88627 17.9313 5.74597 17.2298C5.60886 16.5443 4.95247 16.0913 4.26287 16.2062L4 16.25C3.16386 16.3894 2.36801 15.84 2.20177 15.0088L1.40008 11.0004C1.18041 9.90207 1.90546 8.83748 3.00791 8.63961L18.5557 5.84898C19.6334 5.65555 20.6663 6.36462 20.873 7.43983L22.6155 16.5007C22.8267 17.5991 22.0961 18.6572 20.9942 18.8488Z" fill="#F7F7FC" stroke="#7E7E7E" stroke-width="1.25"/>
<circle cx="6" cy="22" r="1" fill="#7E7E7E"/>
<circle cx="6" cy="30" r="1" fill="#7E7E7E"/>
<circle cx="8" cy="26" r="1" fill="#7E7E7E"/>
<circle cx="4" cy="26" r="1" fill="#7E7E7E"/>
<circle cx="1" cy="30" r="1" fill="#7E7E7E"/>
<circle cx="11" cy="30" r="1" fill="#7E7E7E"/>
</svg>
