<svg width="82" height="75" viewBox="0 0 82 75" fill="none" xmlns="http://www.w3.org/2000/svg">
<circle cx="44.2292" cy="37.3972" r="6.23313" stroke="white" stroke-width="2"/>
<path d="M23.661 18.3223C20.7634 21.4453 18.6594 25.1516 17.4342 29.1224L22.4186 32.0001C26.574 34.3992 26.574 40.3971 22.4186 42.7962L17.4289 45.677C18.0373 47.6405 18.8724 49.5673 19.9436 51.4227C21.0147 53.2779 22.2658 54.9645 23.662 56.4731L28.6518 53.5923C32.8072 51.1931 38.0015 54.1921 38.0015 58.9903L38.0015 64.746C42.0528 65.6704 46.3146 65.7013 50.4681 64.7535L50.4681 58.9906C50.4681 54.1923 55.6623 51.1934 59.8178 53.5925L64.8086 56.474C67.7062 53.3509 69.8103 49.6446 71.0354 45.6739L66.0508 42.796C61.8954 40.3969 61.8954 34.3991 66.0508 31.9999L71.0407 29.1191C70.4323 27.1556 69.5972 25.2288 68.526 23.3736C67.4549 21.5183 66.2038 19.8316 64.8075 18.323L59.8178 21.2038C55.6623 23.6029 50.4681 20.604 50.4681 15.8057L50.4681 10.0503C46.4167 9.12586 42.155 9.09489 38.0015 10.0427L38.0015 15.8057C38.0015 20.6039 32.8072 23.6028 28.6518 21.2037L23.661 18.3223Z" stroke="white" stroke-width="2" stroke-linejoin="round"/>
</svg>
