<svg width="70" height="70" viewBox="0 0 70 70" fill="none" xmlns="http://www.w3.org/2000/svg">
<circle cx="35" cy="35" r="35" fill="#F7F7FC"/>
<path d="M21.582 39.667C21.582 36.6459 21.582 35.1354 22.275 34.0326C22.6363 33.4575 23.1226 32.9713 23.6976 32.6099C24.8004 31.917 26.311 31.917 29.332 31.917H39.6654C42.6864 31.917 44.197 31.917 45.2998 32.6099C45.8748 32.9713 46.3611 33.4575 46.7224 34.0326C47.4154 35.1354 47.4154 36.6459 47.4154 39.667C47.4154 42.6881 47.4154 44.1986 46.7224 45.3014C46.3611 45.8765 45.8748 46.3627 45.2998 46.7241C44.197 47.417 42.6864 47.417 39.6654 47.417H29.332C26.311 47.417 24.8004 47.417 23.6976 46.7241C23.1226 46.3627 22.6363 45.8765 22.275 45.3014C21.582 44.1986 21.582 42.6881 21.582 39.667Z" stroke="#009AF1" stroke-width="1.9375" stroke-linecap="round" stroke-linejoin="round"/>
<path d="M44.8327 31.9176C44.8327 30.1091 44.8327 29.2049 44.4807 28.5141C44.1711 27.9065 43.6771 27.4125 43.0695 27.1029C42.3788 26.751 41.4745 26.751 39.666 26.751H29.3327C27.5242 26.751 26.6199 26.751 25.9292 27.1029C25.3216 27.4125 24.8276 27.9065 24.518 28.5141C24.166 29.2049 24.166 30.1091 24.166 31.9176" stroke="#009AF1" stroke-width="1.9375" stroke-linecap="round" stroke-linejoin="round"/>
<path d="M42.248 26.7507C42.248 24.3151 42.248 23.0973 41.4914 22.3406C40.7348 21.584 39.517 21.584 37.0814 21.584H31.9147C29.4791 21.584 28.2613 21.584 27.5047 22.3406C26.748 23.0973 26.748 24.3151 26.748 26.7507" stroke="#009AF1" stroke-width="1.9375" stroke-linecap="round" stroke-linejoin="round"/>
<path d="M38.373 37.084C38.373 38.5107 37.2164 39.6673 35.7897 39.6673H33.2064C31.7796 39.6673 30.623 38.5107 30.623 37.084" stroke="#009AF1" stroke-width="1.9375" stroke-linecap="round"/>
</svg>
