<svg width="50" height="50" viewBox="0 0 50 50" fill="none" xmlns="http://www.w3.org/2000/svg">
<circle cx="25" cy="25" r="25" fill="#F7F7FC"/>
<path d="M20.5 20.8793H25M30.5 20.8793H28M25 20.8793H28M25 20.8793V19.5M28 20.8793C27.4725 22.7656 26.3679 24.5487 25.1071 26.1158M21.8929 29.5C22.912 28.5628 24.0631 27.4134 25.1071 26.1158M25.1071 26.1158C24.4643 25.3621 23.5643 24.1426 23.3071 23.5909M25.1071 26.1158L27.0357 28.1207" stroke="black" stroke-linecap="round" stroke-linejoin="round"/>
<path d="M16 24.5C16 20.0217 16 17.7825 17.3912 16.3912C18.7825 15 21.0217 15 25.5 15C29.9783 15 32.2175 15 33.6088 16.3912C35 17.7825 35 20.0217 35 24.5C35 28.9783 35 31.2175 33.6088 32.6088C32.2175 34 29.9783 34 25.5 34C21.0217 34 18.7825 34 17.3912 32.6088C16 31.2175 16 28.9783 16 24.5Z" stroke="black"/>
</svg>
