<svg width="37" height="37" viewBox="0 0 37 37" fill="none" xmlns="http://www.w3.org/2000/svg">
<g id="Group 1171276855">
<g id="Group 1171276708">
<g id="Group 1171276627">
<g id="Group 1171275999">
<circle id="Ellipse 2172" opacity="0.4" cx="18.5" cy="18.5" r="18.5" fill="white" fill-opacity="0.15"/>
</g>
</g>
</g>
<g id="Group 1171276854">
<path id="Vector" d="M25.2667 14.8537L24.8962 14.2107C24.616 13.7243 24.4759 13.4812 24.2375 13.3842C23.9991 13.2873 23.7294 13.3638 23.1902 13.5168L22.2742 13.7748C21.9299 13.8542 21.5687 13.8092 21.2544 13.6476L21.0015 13.5017C20.7319 13.3291 20.5246 13.0745 20.4098 12.7753L20.1591 12.0266C19.9943 11.5311 19.9119 11.2834 19.7157 11.1417C19.5195 11 19.2588 11 18.7376 11H17.9008C17.3795 11 17.1189 11 16.9227 11.1417C16.7265 11.2834 16.6441 11.5311 16.4792 12.0266L16.2285 12.7753C16.1138 13.0745 15.9064 13.3291 15.6369 13.5017L15.384 13.6476C15.0696 13.8092 14.7084 13.8542 14.3642 13.7748L13.4482 13.5168C12.9089 13.3638 12.6393 13.2873 12.4009 13.3842C12.1625 13.4812 12.0224 13.7243 11.7422 14.2107L11.3716 14.8537C11.109 15.3095 10.9776 15.5375 11.0031 15.7801C11.0286 16.0227 11.2044 16.2183 11.5561 16.6093L12.3301 17.4747C12.5192 17.7141 12.6535 18.1315 12.6535 18.5067C12.6535 18.8822 12.5193 19.2994 12.3301 19.5389L11.5561 20.4043C11.2044 20.7953 11.0286 20.9909 11.0031 21.2335C10.9776 21.4761 11.109 21.7041 11.3716 22.1599L11.7422 22.8029C12.0224 23.2892 12.1625 23.5324 12.4009 23.6294C12.6393 23.7263 12.9089 23.6498 13.4482 23.4968L14.3641 23.2388C14.7085 23.1594 15.0697 23.2044 15.3841 23.366L15.637 23.5119C15.9065 23.6846 16.1138 23.9391 16.2285 24.2383L16.4792 24.9871C16.6441 25.4825 16.7265 25.7303 16.9227 25.872C17.1189 26.0137 17.3795 26.0137 17.9008 26.0137H18.7376C19.2588 26.0137 19.5195 26.0137 19.7157 25.872C19.9119 25.7303 19.9943 25.4825 20.1591 24.9871L20.4099 24.2383C20.5246 23.9391 20.7319 23.6846 21.0014 23.5119L21.2542 23.366C21.5686 23.2044 21.9299 23.1594 22.2742 23.2388L23.1902 23.4968C23.7294 23.6498 23.9991 23.7263 24.2375 23.6294C24.4759 23.5324 24.616 23.2892 24.8962 22.8029L24.8962 22.8029L25.2667 22.1599C25.5294 21.7041 25.6607 21.4761 25.6352 21.2335C25.6098 20.9909 25.4339 20.7953 25.0823 20.4043L24.3083 19.5389C24.1191 19.2994 23.9848 18.8822 23.9848 18.5067C23.9848 18.1315 24.1191 17.7141 24.3083 17.4747L25.0823 16.6093C25.4339 16.2183 25.6098 16.0227 25.6352 15.7801C25.6607 15.5375 25.5294 15.3095 25.2667 14.8537Z" stroke="white" stroke-width="0.840766" stroke-linecap="round"/>
<path id="Ellipse 1200" d="M20.9143 18.5009C20.9143 19.952 19.738 21.1283 18.2869 21.1283C16.8358 21.1283 15.6595 19.952 15.6595 18.5009C15.6595 17.0499 16.8358 15.8735 18.2869 15.8735C19.738 15.8735 20.9143 17.0499 20.9143 18.5009Z" stroke="white" stroke-width="0.840766"/>
</g>
</g>
</svg>
