<svg width="50" height="50" viewBox="0 0 50 50" fill="none" xmlns="http://www.w3.org/2000/svg">
<circle cx="25" cy="25" r="25" fill="white"/>
<mask id="mask0_524_1289" style="mask-type:luminance" maskUnits="userSpaceOnUse" x="13" y="13" width="24" height="24">
<path d="M37 13H13V37H37V13Z" fill="white"/>
</mask>
<g mask="url(#mask0_524_1289)">
<path d="M25.0002 34.9997C27.1797 34.9984 29.2989 34.2847 31.0351 32.9673C32.7713 31.6499 34.0292 29.801 34.6173 27.7024C35.2054 25.6038 35.0913 23.3706 34.2926 21.3428C33.4938 19.315 32.054 17.604 30.1927 16.4703C28.3313 15.3366 26.1504 14.8424 23.9822 15.0631C21.814 15.2837 19.7773 16.2071 18.1825 17.6925C16.5877 19.1779 15.5221 21.1439 15.1482 23.291C14.7743 25.4382 15.1125 27.6486 16.1112 29.5857L15.0002 34.9997L20.4142 33.8887C21.8318 34.6211 23.4046 35.0022 25.0002 34.9997Z" stroke="#171717" stroke-width="1.5" stroke-linecap="round" stroke-linejoin="round"/>
<path d="M21 25.5C21 25.2239 20.7761 25 20.5 25C20.2239 25 20 25.2239 20 25.5C20 25.7761 20.2239 26 20.5 26C20.7761 26 21 25.7761 21 25.5Z" fill="#272727" stroke="#171717" stroke-width="1.5" stroke-linejoin="round"/>
<path d="M26 25.5C26 25.2239 25.7761 25 25.5 25C25.2239 25 25 25.2239 25 25.5C25 25.7761 25.2239 26 25.5 26C25.7761 26 26 25.7761 26 25.5Z" fill="#272727" stroke="#171717" stroke-width="1.5" stroke-linejoin="round"/>
<path d="M31 25.5C31 25.2239 30.7761 25 30.5 25C30.2239 25 30 25.2239 30 25.5C30 25.7761 30.2239 26 30.5 26C30.7761 26 31 25.7761 31 25.5Z" fill="#272727" stroke="#171717" stroke-width="1.5" stroke-linejoin="round"/>
</g>
</svg>
